<?xml version="1.0" encoding="UTF-8"?>
<svg id="art" xmlns="http://www.w3.org/2000/svg" baseProfile="tiny" version="1.2" viewBox="0 0 693.65 893.11">
  <!-- Generator: Adobe Illustrator 30.2.1, SVG Export Plug-In . SVG Version: 2.1.1 Build 1)  -->
  <path d="M126.6,502.62h-10.37c2.38,34.69,8.17,68.41,17.3,100.61,8.25,29.08,18.96,56.07,31.97,80.62.28-4.81.89-9.86,2-15.21.14-.66.33-1.55.57-2.66-9.75-20.34-17.98-42.25-24.59-65.57-8.87-31.3-14.52-64.06-16.88-97.79Z" fill="#fff"/>
  <path d="M497.64,223.54c20.9,31.18,37.35,67.62,48.89,108.32,1.21,4.26,2.35,8.54,3.44,12.86h10.66c-1.3-5.26-2.68-10.49-4.15-15.68-11.83-41.74-28.74-79.17-50.25-111.25-19.55-29.17-41.98-52.52-66.74-69.53-.06.45-.11.9-.16,1.35-.1.85-.2,1.7-.3,2.54-.09.76-.18,1.51-.27,2.26-.01.12-.03.25-.04.37-.09.77-.17,1.52-.26,2.28-.08.73-.16,1.45-.24,2.17-.03.25-.05.49-.08.74,21.91,15.96,41.89,37.29,59.51,63.58Z" fill="#fff"/>
  <path d="M212.07,734.91c-7.88-4.07-14.78-7.72-14.78-7.72v-3.81l-5.89,1.04c-.4-.22-.84-.51-1.32-.86,16.05,22.24,33.88,40.76,53.23,55.29.58-4.11,1.14-8.05,1.67-11.78-11.57-9.2-22.56-19.94-32.92-32.16Z" fill="#fff"/>
  <path d="M557.02,502.62h-57.71c-.69-4.97-1.82-10.19-3.71-14.39l-.9-2-77.65-41.5-1.38-3.37c.26.13.53.27.82.43l5.29,2.99,3.26-5.13c.72-1.14,4.24-7.12,2.53-13.3-.12-.43-.26-.85-.42-1.26,2.19-2.96,2.51-6,2.58-8.09l6.4-5.25-4.63-6.07.98.49,1.53-8.4c1.11-6.1.76-11.22.5-14.96-.02-.24-.03-.51-.05-.77,8.82-1.62,16.8-10.67,17.7-20.99.25-2.91,1.44-6.55,3.09-11.6.48-1.47.99-3.04,1.53-4.73h86.6c-.95-3.73-1.95-7.43-3-11.12-11.35-40.05-27.52-75.88-48.05-106.51-16.4-24.46-34.85-44.5-54.99-59.77-.04.35-.07.71-.11,1.05,0,.1-.02.2-.03.29-.1,1.03-.2,2.04-.3,3.05-.01.11-.02.22-.03.33-.1,1.01-.19,2-.28,2.99,0,.1-.02.19-.03.29-.09,1.01-.18,2-.27,2.99,0,.06-.01.12-.02.18-.27,3.13-.52,6.16-.74,9.1,0,.03,0,.05,0,.08-.07.95-.14,1.9-.21,2.83,0,.06,0,.11-.01.17-.07.92-.13,1.83-.19,2.73,0,.06,0,.12-.01.17-.06.91-.12,1.8-.18,2.69,0,.04,0,.08,0,.12-.06.91-.11,1.8-.16,2.69-.99,16.76-1.16,29.71-1.08,38.5,38.49,5.56,50.48,14.09,50.48,19.22,0,13.15-10.55,23.56-35.41,30.53l.07.42c.43-.17.85-.27,1.26-.32,6.1-.72,9.16,11.67,6.95,24.16-5.13,28.97-11.66,39.73-12.43,48.58-.77,8.84-8.46,15.77-14.61,15.38-6.15-.38-1.15,8.07-3.46,20.76,0,0-3.85-1.92-6.15,3.08-1.95,4.22,3.77,9.25,5.6,10.73.34.27.54.42.54.42h0s0,0,0,0c-8.84,1.54.38,8.46-9.61,13.46.65.32,1.19.69,1.63,1.09,4.32,3.88-.1,10.83-.1,10.83-.68-.38-1.32-.7-1.94-.96l-2.26,2.96-1.26-3.07c.05-.15.09-.29.13-.44l.49-.23c.38.03.78.08,1.19.16-6.26-1.82-9.04,2.34-9.04,2.34l3.46,8.46s-8.27-4.77-10.92-3.32c-.1.11-.2.22-.31.33l90.59,48.41c4.5,10.05,4.16,28.41,4.16,28.41l-3.12,6.24,2.42,5.54s.35,3.81,4.16,27.71c3.44,21.59,25.82,72.02,30.12,81.56,5.28-13.22,9.97-27.03,14.04-41.37,8.72-30.74,14.28-62.92,16.62-96.05ZM462.97,312.66c1.36-7.69,1.14-16.73-1.69-23.13,19.2-7.51,28.92-18.49,28.92-32.71,0-13.22-26.35-20.49-50.5-24.38.02-7.94.26-19.11,1.08-32.99l.17-2.79c.06-.88.11-1.77.17-2.66l.21-3.06c.07-.93.13-1.86.2-2.8v-.14c.23-2.9.47-5.89.73-8.95v-.08c16.32,13.85,31.44,31.12,45.08,51.45,20.18,30.1,36.08,65.36,47.26,104.8.33,1.15.65,2.31.97,3.48h-78.65c1.96-6.7,4.09-15.09,6.03-26.05ZM525.94,624.21c-10.63-24.67-21.61-53.09-23.77-66.66-3.66-22.93-4.09-27.17-4.11-27.31l-.09-.97-1.69-3.86,2.47-4.94.03-1.36c.02-.92.07-5.13-.35-10.49h52.11c-2.56,30.45-7.9,60.17-15.91,88.42-2.62,9.23-5.53,18.32-8.69,27.16Z" fill="#fff"/>
  <path d="M143.48,331.86c11.54-40.69,27.99-77.14,48.89-108.32,17.43-26,37.16-47.16,58.79-63.06-.02-.2-.04-.39-.06-.59-.22-2.06-.45-4.16-.69-6.29,0-.07-.02-.15-.03-.22-.03-.26-.06-.53-.09-.8-.15-1.28-.3-2.56-.46-3.86-24.49,16.97-46.68,40.16-66.06,69.06-21.51,32.08-38.41,69.52-50.25,111.25-1.47,5.19-2.85,10.41-4.15,15.68h10.66c1.09-4.31,2.23-8.6,3.44-12.86Z" fill="#fff"/>
  <path d="M286.45,445.48c-.17-1.16-.24-1.84-.24-1.84l-10.38,1.92h0s0,0,0,0l7.3-8.84-8.84-.38s0,0,0,0h0c2.59-2.88,3.57-5.6,3.77-7.88.34-3.79-1.46-6.34-1.46-6.34-4.61,1.15-6.92-.77-6.92-.77,0,0,0,0,0,0,0,0,0,0,0,0,2.04-2.64,3.15-5.89,3.58-9.08.96-7.04-1.32-13.86-3.97-13.6-.96.1-1.47.62-1.68,1.36-.65,2.22,1.3,6.32,1.3,6.32,0,0,0,0,0,0,0,0,0,0,0,0-6.81-4.4-6.94-10.48-5.5-15.28,1.31-4.41,3.94-7.75,3.96-7.79-7.04,0-10.14-3.46-11.43-5.85-6.39.54-14.72-5.58-16.3-14.1-1.62-8.74-6.41-19.85-17.57-47.31-7.41-18.23,4.24-23.01,11.04-23.94-2.1-2.53-3.6-4.47-3.6-4.47.39-.27.75-.53,1.08-.78-23.53-6.96-33.56-17.18-33.56-29.99,0-5.67,14.8-14.85,57.25-20.27.19-4.89.32-11.01.27-18.33,0-.07,0-.14,0-.22,0-.62-.01-1.26-.02-1.91,0-.21,0-.42,0-.64,0-.53-.02-1.07-.02-1.61,0-.34,0-.68-.02-1.03,0-.47-.02-.96-.03-1.44,0-.42-.02-.84-.03-1.27-.01-.44-.02-.89-.03-1.33-.01-.49-.02-.98-.04-1.48-.01-.4-.03-.82-.04-1.23-.02-.55-.03-1.1-.05-1.66-.01-.39-.03-.79-.04-1.18-.02-.6-.04-1.19-.07-1.8-.02-.39-.03-.79-.05-1.19-.03-.61-.05-1.22-.08-1.84-.06-1.26-.12-2.54-.19-3.84,0-.16-.02-.32-.02-.47-.14-2.65-.3-5.39-.49-8.22-.02-.29-.04-.59-.06-.88-.09-1.4-.19-2.81-.3-4.25,0-.03,0-.06,0-.1-.08-1.01-.15-2.03-.23-3.06-.08-.98-.16-1.97-.24-2.96-.02-.21-.04-.42-.05-.64-.03-.39-.07-.78-.1-1.18-.14-1.62-.29-3.26-.44-4.92-19.85,15.19-38.04,35.04-54.23,59.19-20.53,30.62-36.69,66.46-48.05,106.51-1.04,3.68-2.04,7.39-3,11.12h81.28c3.77,9.52,5.78,15.32,6.67,20.07,1.81,9.73,10.27,17.85,19.21,19.18,1.46,1.62,3.22,2.94,5.24,3.93-1.18,3.24-1.95,7.15-1.28,11.23.6,3.64,2.64,8.83,8.91,12.89l1.27.82c-.36,1.75-1.01,3.47-2.09,4.87l-3.78,4.89,4.74,3.95c.52.44,2.56,1.96,5.95,2.46-.27.94-.86,2.05-2,3.32l-9.09,10.1,9.55.42-10.33,12.51,2.59-.48c-2.84,2.39-4.68,4.1-4.89,4.29l-2.46,2.28.95,6.65c-2.05,1.06-5.76,2.76-12.28,5.17-16.16,5.97-44.95,21.35-46.17,22l-2.69,1.44-.58,3c-.05.26-.25,1.3-.56,2.94h-61.8c2.35,33.13,7.91,65.31,16.62,96.05,5.71,20.13,12.63,39.19,20.71,57.07,5.13-23.15,15.15-68.17,17.61-85.13,3.12-21.48,12.47-69.97,12.47-69.97,0,0,29.44-15.76,45.38-21.65,15.93-5.89,16.97-8.14,16.97-8.14l-1.04-7.27s13.45-12.47,24.73-18.1ZM154.41,338.71c.32-1.17.65-2.33.97-3.48,11.18-39.44,27.08-74.7,47.26-104.8,13.4-19.99,28.24-37.01,44.23-50.74.04.49.07.99.11,1.5.44,5.96.8,11.88,1.05,17.62.51,11.43.65,22.54.41,32.48-47.29,6.66-57.41,17.49-57.41,25.54,0,14.6,10.24,25.78,30.46,33.3-2.02,1.41-3.91,3.28-5.35,5.78-3.4,5.88-3.28,13.41.36,22.37l3.63,8.9c1.76,4.31,3.31,8.13,4.69,11.54h-70.42ZM182,569.75c-1.88,12.93-8.32,42.9-13.47,66.32-4.93-12.52-9.33-25.58-13.14-39.03-8.01-28.25-13.36-57.97-15.91-88.42h53.3c-2.87,15.13-8.47,45.21-10.78,61.13Z" fill="#fff"/>
  <path d="M233.66,745.55c-1.18-.46-3.23-1.41-5.77-2.64,5.86,6.06,11.91,11.66,18.13,16.8,2.4-16.95,3.94-27.94,3.94-27.94l-7.58,16.67s-5.8-1.75-8.73-2.88Z" fill="#fff"/>
  <path d="M546.53,600.42c-4.46,15.73-9.66,30.83-15.56,45.23,2.24,2.36,5.1,5.46,7.66,8.49,6.84-16.13,12.81-33.13,17.85-50.91,9.13-32.21,14.92-65.92,17.3-100.61h-10.37c-2.36,33.73-8.01,66.49-16.88,97.79Z" fill="#fff"/>
  <path d="M494.51,715.42s-.56.04-1.51.05c-10.84,15.28-22.51,28.77-34.93,40.35.62,3.8,1.33,7.92,2.08,12.08,15.58-13.72,30.05-30.2,43.27-49.27-.08-.03-.16-.06-.24-.1-10.39-4.5-8.66-3.12-8.66-3.12Z" fill="#fff"/>
  <path d="M485.46,715.03c-4.34-.61-9.08-2.02-11.39-5.15-4.85-6.58-20.44-12.82-20.44-12.82,0,0,1.73,31.52,2.42,43.65.1,1.79.4,4.36.83,7.44,10.05-9.75,19.59-20.8,28.57-33.11ZM469.24,713.43c1.49,2.02,3.56,3.67,6.19,4.94-4.44,5.7-9.02,11.12-13.71,16.21-.46-8.23-1.09-19.64-1.54-27.77,3.94,2.16,7.57,4.6,9.06,6.62Z" fill="#fff"/>
  <path d="M640.61,338.71h-51.65c-1.45-5.91-3-11.8-4.63-17.57-12.66-44.67-30.85-84.86-54.05-119.48-23.26-34.71-50.46-62.14-80.85-81.55,2-13,4.3-26.29,6.87-39.56,1.69-8.75-.59-17.08-6.11-22.27-.24-.23-.49-.45-.75-.67-1.57-1.33-3.35-2.4-5.29-3.18-8.64-3.46-19.06-6.39-30.94-8.71l-1.45-.28c-19.4-3.66-41.84-5.53-66.73-5.57h-.74c-22.78.03-43.58,1.61-61.83,4.7-3.25.55-6.47,1.15-9.55,1.8-1.97.41-3.92.85-5.79,1.29-.93.22-1.84.44-2.73.67-3.4.86-6.7,1.79-9.8,2.76-.75.23-1.47.47-2.18.7-4.29,1.42-8.21,2.95-11.66,4.53-7.27,3.34-10.88,11.64-8.99,20.66,3.09,14.67,5.79,29.32,8.06,43.61-30.09,19.39-57.03,46.66-80.11,81.08-23.2,34.61-41.39,74.81-54.05,119.48-1.63,5.76-3.19,11.65-4.63,17.57h-61.34l18.96,84.96-18.96,84.96h47.93c2.68,35.26,8.74,69.72,18.04,102.51,12.66,44.67,30.85,84.86,54.05,119.48,23.55,35.13,51.12,62.8,81.95,82.26,32.61,20.58,67.37,31.01,103.32,31.01s70.72-10.43,103.32-31.01c30.83-19.46,58.41-47.13,81.95-82.26,23.2-34.61,41.39-74.81,54.05-119.48,9.3-32.79,15.36-67.25,18.04-102.51h38.24l-18.96-84.96,18.96-84.96ZM633.12,502.62h-36.35c-2.42,36.83-8.52,72.65-18.22,106.87-12.49,44.06-30.41,83.68-53.26,117.77-23.08,34.43-50.05,61.52-80.17,80.52-31.63,19.96-65.32,30.08-100.12,30.08s-68.49-10.12-100.12-30.08c-30.12-19.01-57.09-46.1-80.17-80.52-22.85-34.09-40.77-73.71-53.26-117.77-9.7-34.23-15.8-70.04-18.22-106.87h-46.04l17.62-78.96-17.62-78.96h58.58c1.73-7.38,3.62-14.69,5.67-21.94,12.49-44.06,30.41-83.68,53.26-117.77,23.08-34.43,50.05-61.52,80.17-80.52.5-.31.99-.62,1.49-.92-.02-.15-.04-.29-.07-.44-.18-1.17-.37-2.36-.56-3.55-.27-1.67-.54-3.36-.82-5.07-.12-.71-.23-1.41-.35-2.12-.01-.07-.02-.14-.03-.2-.02-.13-.04-.26-.07-.39-.37-2.21-.76-4.46-1.16-6.72-.16-.89-.32-1.78-.48-2.67-.4-2.22-.81-4.47-1.24-6.74-.05-.25-.09-.5-.14-.75-.06-.3-.12-.61-.17-.91-.07-.36-.14-.72-.21-1.07-.23-1.23-.47-2.46-.71-3.7-.13-.69-.27-1.39-.41-2.08-.23-1.16-.46-2.33-.7-3.5-.17-.84-.34-1.68-.51-2.53-.36-1.78-.73-3.57-1.11-5.38-.1-.48-.17-.96-.23-1.45-.01-.11-.02-.21-.04-.31-.1-.98-.12-1.95-.04-2.9,0-.08.01-.16.02-.24.09-.96.28-1.9.56-2.79.02-.06.04-.11.06-.17.3-.9.69-1.74,1.19-2.52.03-.04.05-.08.08-.12.97-1.47,2.3-2.68,4.03-3.48,2.96-1.36,6.62-2.82,11.04-4.29.68-.23,1.38-.45,2.09-.68,2.86-.9,6.01-1.8,9.46-2.67.86-.22,1.74-.43,2.64-.65,1.8-.43,3.68-.85,5.63-1.26,2.93-.61,6.04-1.2,9.32-1.76,15.88-2.68,35.96-4.58,60.84-4.61h.74c27.44.04,49.05,2.34,65.62,5.47.47.09.94.18,1.41.27,13.03,2.54,22.85,5.58,29.86,8.39,1.38.55,2.59,1.29,3.65,2.19.18.15.35.3.51.46.92.86,1.69,1.86,2.35,2.94,2.3,3.83,2.95,8.85,1.99,13.82-.72,3.71-1.4,7.35-2.06,10.95-.37,2.05-.74,4.09-1.1,6.1-.23,1.33-.46,2.63-.69,3.94-.19,1.12-.38,2.24-.57,3.35-.36,2.1-.7,4.18-1.04,6.25-.17,1.07-.35,2.14-.52,3.2-.22,1.4-.44,2.79-.66,4.17-.13.86-.26,1.71-.39,2.56-.16,1.06-.33,2.13-.48,3.18.74.45,1.48.91,2.21,1.37,30.12,19.01,57.09,46.1,80.17,80.52,22.85,34.09,40.77,73.71,53.26,117.77,2.05,7.24,3.94,14.56,5.67,21.94h48.89l-17.62,78.96,17.62,78.96Z" fill="#fff"/>
  <path d="M352.2,581.72c.61-1.99,1.22-3.98,1.86-5.98,2.43-7.69,5.06-15.44,7.88-23.03,0,0-.76,4.91-2.38,13.23-.55,2.82-1.2,6.04-1.96,9.6,6.85-8.55,17.2-23.95,29.52-50.3,13.3-28.44,11.61-51.8,8-66.17-.01.09-.03.17-.04.25-.01.08-.02.15-.03.22-.04.27-.1.54-.16.79-.01.05-.02.1-.03.15-.15.63-.35,1.2-.57,1.73,0,.01-.01.03-.02.04-.11.26-.23.51-.35.74,0,0,0,0,0,0-.99,1.95-2.2,2.99-2.2,2.99,0,0,0,0,0,0,0,0,0,0,0,0,.1-1.2-.2-2.22-.68-3.05-1.06-1.84-3-2.81-3.52-2.97l.3,6.03-3.96-.69-.15,4.28s-4.14-.79-6.69.61c-.02.01-.04.02-.06.03-.17.1-.33.2-.48.32-.04.03-.07.05-.11.08-.14.11-.26.23-.38.37-.04.04-.08.09-.11.13-.11.13-.21.27-.3.42,0,.01-.02.03-.02.05,1.44-.77,6.66-1.47,9.67,1.15,7.97,6.93,8.83,6.24-1.21,23.9-5.11,8.98-5.54,10.74-9.7,9.35-4.16-1.39-12.99-12.47-12.99-12.47-4.56,4.4-8.58,7.27-18.19,7.27-11.24,0-14.74-6.78-14.74-6.78,0,0-6.72,10.54-14.25,11.17-2.81.23-6.3-2.07-11.27-9.03-7.64-10.69-7.94-13.75-2.29-20.78,3.08-3.83,7.44-2.22,8.95-1.5,0-.03,0-.06-.02-.09-.06-.3-.11-.58-.15-.86,0-.03,0-.05-.01-.08-.1-.64-.16-1.23-.19-1.74,0-.02,0-.05,0-.07-.01-.23-.02-.44-.03-.64,0-.03,0-.05,0-.08,0-.19,0-.37,0-.53,0-.01,0-.02,0-.04,0-.49.03-.79.03-.8-.01,0-2.15-.29-5.65,3.51,0,0-2.15-3.11-2.75-9.78-2.35,1.14-2.17,5.91-2.14,6.51,0,.03,0,.05,0,.05,0,0,0,0,0,0-.33-.18-.65-.38-.96-.59,0,0,0,0,0,0-.29-.19-.58-.4-.85-.62-.05-.04-.1-.08-.15-.12-.23-.18-.46-.38-.68-.57-.06-.05-.12-.1-.17-.16-.08-.07-.16-.14-.24-.21-12.71,44.28,28.63,92.95,45.9,110.86-.64-2.53-1.28-5.11-1.91-7.72-2.52-10.55-4.86-21.69-6.74-33.03,0,0,2.49,6.72,6.15,17.73,1.83,5.51,3.94,12.09,6.18,19.44,1,3.27,2.02,6.69,3.05,10.24.32.3.49.45.49.45,0,0,1.25-.91,3.53-3.27Z" fill="#fff"/>
  <path d="M326.77,583.13c-1.06-1.56-2.09-3.11-3.07-4.69-1.96-3.14-3.8-6.26-5.55-9.29-3.48-6.07-6.64-11.76-9.35-16.62-2.71-4.86-4.98-8.91-6.58-11.73-1.61-2.81-2.53-4.43-2.53-4.43,4.61,13.71,11.58,27.14,17.99,36.65,1.59,2.38,3.16,4.52,4.62,6.36.72.93,1.44,1.77,2.1,2.55.34.38.67.75.98,1.1.31.35.61.68.91.99.59.61,1.11,1.16,1.6,1.61.48.45.88.85,1.24,1.14.7.59,1.07.91,1.07.91-1.23-1.48-2.36-3.01-3.44-4.55Z" fill="#fff"/>
  <path d="M322.49,590.79s-.11-.02-.18-.03h-.05s-.03-.02-.03-.02l-.05-.02-.07-.03c-.2-.08-.4-.15-.59-.23-.78-.3-1.55-.61-2.28-.92-2.95-1.22-5.49-2.43-7.54-3.55-2.05-1.11-3.63-2.11-4.66-2.86-.27-.18-.49-.35-.68-.5-.19-.15-.36-.28-.49-.38-.27-.2-.4-.31-.4-.31,1.51,1.73,3.27,3.25,5.12,4.61,1.85,1.36,3.79,2.58,5.76,3.68.99.55,1.98,1.07,2.98,1.57.5.25,1,.49,1.5.73l.38.18.21.1.34.15c.46.2.93.39,1.39.59.48.21.92.37,1.37.54l.68.25.34.13c.09.02.13,0,.2,0,.25-.02.51-.03.76-.05.15-.05.28-.11.42-.17.06-.02.15-.09.26-.22.11-.12.2-.28.25-.4.05-.12.05-.15.06-.22l.04-.18c0-.16,0-.36,0-.53-.12-.28-.28-.59-.42-.88-.47-.52-.94-1.04-1.4-1.55-.46-.52-.92-1.04-1.38-1.55-.46-.52-.91-1.04-1.35-1.55-.89-1.03-1.76-2.04-2.62-3.03-1.7-1.99-3.33-3.91-4.85-5.75-3.04-3.68-5.66-7.03-7.72-9.93-1.03-1.45-1.92-2.78-2.66-3.98-.38-.59-.7-1.16-1-1.68-.28-.53-.56-1.01-.77-1.45-.22-.44-.42-.84-.57-1.19-.15-.35-.29-.64-.38-.89-.19-.49-.29-.74-.29-.74.29,1.73.85,3.42,1.5,5.05.66,1.64,1.44,3.23,2.27,4.77,1.68,3.09,3.59,6.02,5.58,8.8,1.99,2.78,4.06,5.42,6.14,7.9,1.04,1.24,2.08,2.45,3.11,3.61.52.58,1.04,1.15,1.54,1.71l.09.1s0,0,0,0h0s.02.02.02.02l.06.04.12.09s.13.09.11.14c-.03.03-.09.02-.19.01Z" fill="#fff"/>
  <path d="M329.12,607.12l-.2-.25-.21-.23c-.15-.15-.29-.3-.44-.45-.58-.62-1.23-1.13-1.87-1.66-.65-.51-1.32-.96-1.99-1.4-.68-.41-1.35-.82-2.03-1.18-2.72-1.44-5.4-2.41-7.73-3.07-2.33-.66-4.32-1.02-5.72-1.22-1.4-.2-2.22-.23-2.22-.23,5.43,3.19,11.33,5.49,15.79,7.3,2.23.91,4.1,1.68,5.37,2.33.66.3,1.13.59,1.47.78.34.19.53.29.53.29-.24-.34-.49-.67-.75-1.01Z" fill="#fff"/>
  <path d="M326.09,613.24c.28.11.51.22.72.32.21.1.39.18.53.25.3.13.46.2.46.2-.78-1.14-1.74-2.19-2.79-3.04-.52-.45-1.06-.83-1.6-1.2-.54-.38-1.1-.69-1.65-1.01-2.22-1.22-4.43-1.99-6.36-2.49-1.93-.5-3.58-.72-4.75-.82-1.17-.1-1.84-.08-1.84-.08,4.42,2.76,9.2,4.6,12.85,6.05,1.82.72,3.37,1.33,4.44,1.81Z" fill="#fff"/>
  <path d="M321.34,622.65c.26.08.53.16.79.24,0,0,0,.02,0,.02,0,.01,0,.01-.01.02-.02,0,0,0,.04,0,.04,0,.07.02.05.06,0,0-.02.02-.03.03l-.02.02h-.01s0,.01,0,.01h-.05s-.09.03-.09.03c-.5.12-.98.23-1.46.34-7.63,1.82-12.77,3.51-12.77,3.51,2.66-.09,5.28-.27,7.84-.53,1.28-.13,2.54-.28,3.79-.44.62-.09,1.24-.17,1.85-.26.31-.05.61-.09.91-.14l.46-.07c.29-.05.58-.1.87-.15,1.19-.21,2.36-.42,3.53-.63l.44-.08c.14-.03.31-.05.42-.09l.17-.05.12-.06s.09-.04.12-.06l.09-.06c.13-.09.19-.17.27-.25.06-.07.11-.15.15-.22l.09-.19.05-.16s.02-.05.02-.08c0-.03,0-.03.01-.1,0-.07,0-.19,0-.21v-.07c-.04-.2-.08-.45-.38-.79-.17-.17-.36-.37-.93-.51-.53-.14-1.05-.28-1.57-.43-1.02-.27-2.02-.54-3.01-.8-.17-.04-.33-.08-.5-.13-.13-.03-.25-.06-.37-.09-.25-.06-.49-.12-.74-.18-.49-.11-.97-.22-1.44-.33-7.52-1.69-12.62-2.26-12.62-2.26,4.58,2.01,9.35,3.71,13.93,5.14Z" fill="#fff"/>
  <path d="M315.2,640.25c2.31-.55,4.43-1.02,6.3-1.4,1.86-.35,3.45-.65,4.59-.84,1.13-.17,1.81-.33,1.81-.33-2.44-.96-5.15-1.3-7.69-1.11-2.54.18-4.89.86-6.79,1.7-1.9.84-3.35,1.84-4.3,2.61-.48.39-.83.72-1.06.95-.23.24-.35.37-.35.37,1.35-.43,2.64-.74,3.89-1.07,1.24-.33,2.45-.6,3.6-.89Z" fill="#fff"/>
  <path d="M321.56,653.56c-2.73.27-5.19,1.28-7.05,2.48-1.87,1.2-3.17,2.55-3.96,3.56-.4.51-.68.93-.86,1.23-.18.3-.26.47-.26.47.44-.28.88-.54,1.32-.79.02.27.1.55.23.78.32.61.97,1.05,1.71,1.28l.28.09.13.04.09.02c.11.03.23.06.34.08.22.05.44.08.65.11.42.06.83.1,1.23.12.79.04,1.5.05,2.23.07.72,0,1.41,0,2.08-.03,2.68-.09,4.95-.39,6.52-.75.79-.18,1.4-.37,1.81-.53.41-.16.62-.29.63-.3-.26.05-.47.05-.7.05-.23,0-.45-.01-.67-.02-.45-.03-.89-.06-1.32-.11-.87-.08-1.74-.19-2.59-.29-1.71-.2-3.37-.39-4.99-.54-.81-.07-1.6-.15-2.38-.2-.75-.05-1.46-.12-2.06-.24l-.11-.02h-.05s0-.01,0-.01c0,0,0,0-.01,0,0,0-.02,0-.03,0-.02,0-.06,0-.08-.03-.02-.02-.02-.06-.02-.1v-.03s.01-.02.01-.02c0,0,.04-.04.06-.06.09-.1.2-.2.3-.29.71-.64,1.49-1.2,2.22-1.71.13-.05.27-.11.4-.16,2.27-.89,4.42-1.5,6.33-1.89,1.91-.39,3.59-.56,4.79-.67.6-.06,1.08-.08,1.41-.1.33-.03.51-.04.51-.04-2.45-1.23-5.36-1.73-8.08-1.45Z" fill="#fff"/>
  <path d="M321.36,680.95c-1.78-.26-3.52-.64-5.06-.96-1.54-.32-2.87-.6-3.82-.79-.95-.19-1.52-.29-1.52-.29,3.14,3.4,7.64,4.88,11.14,4.47,1.75-.2,3.18-.95,3.84-1.73.09-.1.17-.18.24-.27.06-.09.12-.18.17-.26.05-.08.1-.15.14-.22.04-.07.06-.14.09-.2.1-.24.14-.36.14-.36-.9.55-1.8.75-2.69.78-.89.04-1.79-.05-2.68-.18Z" fill="#fff"/>
  <path d="M306,705.94c12.7-2.25,22.17-10.39,22.17-10.39-11.81,2.51-22.17,10.39-22.17,10.39Z" fill="#fff"/>
  <path d="M329.54,706.29c-10.59,3.32-19.05,11.78-19.05,11.78,11.46-3.14,19.05-11.78,19.05-11.78Z" fill="#fff"/>
  <path d="M395.2,573.81c-2.68,2.72-5.18,5.35-7.51,7.78-2.33,2.43-4.5,4.65-6.41,6.53-1.9,1.88-3.53,3.43-4.7,4.5-.58.54-1.05.95-1.37,1.24-.32.28-.5.44-.5.44,3.43-1.13,6.57-3.11,9.25-5.3,2.67-2.21,4.88-4.67,6.55-6.95.43-.56.79-1.14,1.16-1.67.36-.54.7-1.04.99-1.55.29-.5.55-.97.8-1.41.25-.44.47-.84.64-1.22.73-1.51,1.1-2.39,1.1-2.39Z" fill="#fff"/>
  <path d="M396.14,542.68l.05-.41.02-.2s0-.05,0-.16c0-.09-.01-.19-.04-.3-.05-.21-.16-.42-.3-.59-.3-.33-.69-.47-1.1-.45-.2.01-.42.07-.62.19-.2.12-.36.29-.47.47-.05.09-.09.17-.12.26l-.02.04-.02.05-.07.19-.14.37c-.18.5-.36,1-.54,1.49-1.49,3.96-3.19,7.76-4.83,11.37-1.66,3.61-3.28,7.02-4.8,10.18-3.04,6.32-5.66,11.64-7.49,15.38-1.83,3.74-2.89,5.91-2.89,5.91,5.4-7.76,10.2-15.81,14.25-23.56,2.02-3.88,3.83-7.69,5.41-11.37.31-.74.61-1.47.91-2.2-.54,10.08-.57,16.42-.57,16.42.77-4.39,1.46-8.83,2.08-13.25.31-2.21.6-4.41.87-6.59.13-1.09.27-2.18.4-3.26Z" fill="#fff"/>
  <path d="M377.13,604.69c8.88-1.37,15.93-7.97,15.93-7.97-9.61,1.06-15.93,7.97-15.93,7.97Z" fill="#fff"/>
  <path d="M384.88,638.53c.77-.23,1.49-.46,2.18-.68,1.37-.45,2.56-.89,3.54-1.27,1.96-.77,3.08-1.31,3.08-1.31-2.02.03-4.05.18-6.02.42-.99.12-1.97.26-2.93.41-.48.08-.96.16-1.43.25-.91.19-1.8.37-2.69.55-.54.13-.81.38-1,.58-.08.1-.16.2-.21.29-.05.08-.1.19-.16.37-.12.34-.08.82,0,1.01.05.19.16.41.35.65l.18.19.25.19c.11.06.21.12.33.17l.36.16c.47.2.94.41,1.41.61.22.09.43.18.64.27.12.05.23.09.35.14.23.09.46.18.69.27,1.82.7,3.49,1.28,4.89,1.74,2.82.92,4.61,1.35,4.61,1.35-2.37-1.82-4.84-3.37-7.27-4.69-.61-.33-1.21-.65-1.81-.95-.15-.08-.3-.15-.45-.22-.03-.02-.01-.02-.02-.03,0-.01,0-.02.01-.02.01,0,.02,0,0,0-.02,0-.04-.01-.05-.04,0-.02,0-.04.03-.07.38-.11.76-.22,1.12-.33Z" fill="#fff"/>
  <path d="M403.72,690.61c-3.47-1.51-6.86-2.81-10.02-3.95-3.16-1.15-6.07-2.17-8.52-3.14-2.45-.96-4.44-1.9-5.79-2.69-.17-.1-.33-.19-.48-.28-.15-.09-.28-.18-.41-.26-.13-.08-.25-.16-.36-.23-.11-.08-.2-.14-.29-.21-.35-.25-.54-.38-.54-.38.91,1.55,2.21,2.9,3.63,4.02,1.42,1.12,2.97,2.04,4.52,2.81,3.11,1.54,6.23,2.48,8.95,3.11,2.72.62,5.06.91,6.71,1.05,1.65.14,2.61.14,2.61.14Z" fill="#fff"/>
  <path d="M382.14,697.85s.08.02.11.03c.09.03.19.06.28.08.3.11.59.22.89.32.32.12.64.24.95.34,1.26.43,2.47.8,3.61,1.12,2.28.64,4.3,1.1,5.98,1.45,3.35.69,5.32.92,5.32.92-3.04-1.2-6.08-2.4-9.08-3.58-1.49-.61-2.98-1.2-4.43-1.83-.73-.3-1.43-.63-2.14-.94-.61-.3-1.22-.59-1.83-.89-.32-.16-.64-.31-.96-.47-.37-.22-.75-.43-1.12-.65-.35-.07-.7-.15-1.05-.22-.22-.06-.22,0-.3.01l-.19.07c-.12.05-.26.09-.37.15-.06.04-.19.14-.3.26-.11.12-.2.27-.24.36-.06.15-.1.3-.15.45,0,.22.02.44.03.66-.04.08.11.29.21.46l.31.52.31.52c.12.18.29.38.43.57.29.38.59.76.88,1.14.14.19.3.38.46.57l.46.52c.17.19.34.38.51.57.17.18.35.36.52.54.34.36.68.72,1.03,1.05.35.34.69.68,1.04,1,2.76,2.59,5.49,4.65,7.86,6.24,2.37,1.61,4.4,2.72,5.8,3.48,1.42.73,2.22,1.11,2.22,1.11-4.43-3.53-8.59-7.15-12.28-10.8-.92-.91-1.82-1.82-2.67-2.74-.43-.45-.85-.91-1.25-1.37-.21-.23-.41-.45-.6-.68l-.15-.17s-.02-.02-.02-.03h0s0,0,0,0c0,0,0,0-.06-.04-.06-.07-.06-.08-.02-.1,0,0,.02,0,.03,0Z" fill="#fff"/>
  <path d="M407.23,721.9l-.12-.17c-.09-.12-.22-.27-.42-.42-.05-.04-.14-.07-.2-.11-.04-.02-.06-.04-.11-.05l-.15-.05c-.08-.04-.25-.05-.39-.06h-.53c-1.46-.01-2.91-.02-4.34-.03-.91,0-1.81,0-2.69,0-.71,0-1.4.01-2.09.02-2.75.03-5.35.11-7.74.22-9.56.42-15.86,1.26-15.86,1.26,6.16.69,12.44,1.03,18.41,1.16,2.98.06,5.88.07,8.65.05h.23s0,0,0,0h.01s.02-.02.04-.02c.04-.01.09-.02.17-.04.08-.02.19-.03.33-.05.07-.02.16-.01.19.03.03.03.03.02.03.04.01.04-.06.12-.23.23-.09.06-.2.12-.34.2,0,.01-.33.14-.55.23-.24.1-.47.19-.7.29-1.85.76-3.46,1.44-4.79,2.01-2.66,1.15-4.18,1.85-4.18,1.85,3.22-.67,6.39-1.44,9.48-2.26.39-.1.77-.21,1.15-.31l.16-.05.24-.07.48-.15c.33-.1.66-.2.99-.3.69-.21,1.37-.43,2.05-.64.35-.11.7-.22,1.05-.33.38-.11.66-.23.85-.35.11-.06.16-.11.25-.17.08-.06.14-.11.19-.16l.16-.15.12-.13.11-.13.08-.11c.05-.07.1-.15.14-.2.03-.07.07-.07.08-.29.01-.2-.06-.48-.11-.58-.04-.08-.06-.1-.1-.17Z" fill="#fff"/>
  <path d="M325.74,729.75c.73-.04,1.38-.07,1.94-.1.56-.05,1.04-.09,1.43-.13.78-.08,1.2-.12,1.2-.12-3.27-.36-6.5-.78-9.57-1.42-1.54-.3-3.03-.69-4.46-1.14-.72-.22-1.41-.48-2.08-.75l-.47-.2s-.03-.03-.05-.04c-.02-.02-.03-.04-.03-.05,0-.03,0-.04.03-.04.02,0,.07,0,.07.01.01,0,0,0,0,0h0s0,0,0,0h0s.05,0,.05,0c.18,0,.35,0,.52,0,.35,0,.69,0,1.04-.01,2.75-.03,5.34-.11,7.73-.22,9.56-.42,15.85-1.26,15.85-1.26-6.15-.69-12.44-1.03-18.4-1.16-1.49-.03-2.96-.05-4.4-.06-2.06,0-4.09,0-6.06.01-.18,0-.33,0-.47.03-.12.03-.25.06-.33.1l-.14.06-.11.07-.1.07-.08.07c-.12.09-.17.17-.25.25-.06.08-.1.15-.15.22-.04.07-.15.31-.18.51-.04.22,0,.3,0,.43,0,.12.07.26.11.39.02.13.17.28.28.42l.17.22c.07.07.19.15.28.22.19.15.39.29.58.44.24.14.47.28.71.42l.35.21.18.1.2.09c.54.24,1.07.5,1.59.71.32.11.64.22.96.33,2.45.74,4.75,1.05,6.77,1.21.25.02.5.04.75.06.25,0,.49.02.72.03.47.02.93.04,1.37.04.88,0,1.69,0,2.41-.03Z" fill="#fff"/>
  <path d="M334.58,744.63c-2.15,1.05-4.16,2.03-5.93,2.89-1.77.87-3.27,1.64-4.33,2.2-1.06.56-1.67.9-1.67.9,5.62.14,10.78-1.95,14.04-4.42,1.64-1.23,2.79-2.54,3.43-3.56.08-.13.15-.25.22-.36.06-.12.12-.23.17-.33.11-.2.19-.38.25-.53.12-.29.17-.45.17-.45-1.01.8-2.07,1.44-3.14,2.02-1.07.58-2.16,1.12-3.22,1.64Z" fill="#fff"/>
  <path d="M204.11,513.42c-.07,2.69-.07,5.29-.03,7.79.1,5,.41,9.61.87,13.68.46,4.08,1.08,7.62,1.7,10.52.66,2.89,1.31,5.14,1.81,6.65.53,1.5.81,2.31.81,2.31-.83-3.24-1.39-6.52-1.81-9.78-.09-.82-.19-1.63-.28-2.45-.08-.82-.14-1.63-.22-2.45-.08-.81-.13-1.63-.18-2.44-.05-.81-.12-1.62-.14-2.43-.18-3.67-.24-7.31-.23-10.89,1.26,5.33,2.8,10.27,4.37,14.76,3.27,9.26,6.75,16.64,9.49,21.61.34.62.69,1.2,1.01,1.74.32.54.61,1.06.91,1.52.6.92,1.1,1.71,1.53,2.33.91,1.21,1.39,1.85,1.39,1.85-.4-.67-.8-1.35-1.19-2.02-.37-.69-.72-1.4-1.08-2.09l-.27-.52-.25-.53-.5-1.07c-.33-.71-.67-1.42-.97-2.15l-.93-2.17c-.31-.72-.59-1.46-.88-2.19-.6-1.45-1.14-2.93-1.7-4.39-2.19-5.88-4.14-11.79-5.8-17.6-1.66-5.81-3.06-11.53-3.93-17.01-.1-.69-.21-1.37-.31-2.04-.07-.68-.14-1.35-.2-2.02-.03-.33-.07-.67-.1-1v-.12s-.04-.21-.04-.21c-.04-.31-.27-.7-.59-.91-.32-.21-.66-.27-.99-.22-.32.05-.69.24-.92.58-.11.16-.18.34-.22.5-.04.2-.03.26-.03.23v.06s0,.09,0,.09c-.15.01-.19.02,0,0l-.02.42c-.02.68-.05,1.36-.07,2.03ZM205.58,510.87h0s0,0,0,0c-.28-.02-.39-.02,0,0Z" fill="#fff"/>
  <path d="M482.01,662.01c-.46,1.35-1,2.62-1.61,3.8-.62,1.17-1.31,2.25-2.06,3.21-1.5,1.93-3.28,3.35-5.06,4.25-.89.45-1.77.79-2.61,1.05-.42.11-.83.23-1.22.31-.2.04-.39.08-.58.12-.19.03-.38.06-.56.08-1.46.21-2.63.22-3.43.21-.8-.03-1.23-.04-1.23-.04,1.62.4,3.31.61,5.03.57.43,0,.86-.05,1.29-.08.43-.07.86-.1,1.28-.2.86-.15,1.69-.41,2.51-.71.82-.31,1.6-.71,2.35-1.16.74-.46,1.45-.98,2.11-1.55,1.31-1.15,2.43-2.47,3.34-3.89,1.84-2.83,2.93-5.94,3.61-8.92.67-2.99.91-5.9.91-8.57-.01-3.54-.47-6.68-1.14-9.25.23.46.47.92.69,1.38,1.36,2.7,2.57,5.17,3.4,7.35.41,1.09.71,2.11.9,3.03.11.46.15.89.21,1.3,0,.4.07.79.04,1.13,0,.17-.01.34-.02.49-.01.15-.04.3-.06.43-.02.14-.04.27-.05.38-.02.12-.05.22-.07.31-.1.38-.15.59-.15.59.54-.62,1-1.36,1.28-2.17.28-.81.45-1.68.49-2.53.09-1.72-.2-3.39-.66-4.93-.92-3.09-2.44-5.69-3.89-7.78-1.46-2.09-2.9-3.69-3.96-4.76-1.06-1.07-1.74-1.63-1.74-1.63,0,.02.02.04.03.06-.03-.03-.06-.06-.09-.09-.16-.15-.24-.23-.24-.23.23.3.43.62.62.94.28.6.55,1.19.83,1.77.25.67.46,1.36.64,2.05.42,1.67.68,3.35.84,5.03.31,3.35.24,6.66-.1,9.81-.34,3.15-.97,6.13-1.9,8.83Z" fill="#fff"/>
  <path d="M413,584.11c-1.17-25.26-8.08-51.73-8.08-51.73.8,26.84,8.08,51.73,8.08,51.73Z" fill="#fff"/>
  <path d="M410.23,467.32h.02s.01,0,.01,0c0,0,0,0,.01,0l.06.04c.16.09.33.19.49.28,1.3.76,2.55,1.49,3.71,2.2,2.34,1.41,4.38,2.72,6.06,3.85.85.56,1.58,1.09,2.23,1.55.64.47,1.19.88,1.64,1.21.87.69,1.35,1.07,1.35,1.07-2.46-3.15-5.45-5.86-8.48-8.25-1.52-1.2-3.07-2.31-4.62-3.36-.19-.13-.39-.26-.58-.39-.21-.13-.41-.27-.61-.4-.75-.48-1.51-.93-2.27-1.39-1.51-.9-3-1.74-4.46-2.57.39.94.78,1.88,1.17,2.8l.29.7c.1.24.17.43.25.65.16.42.32.84.48,1.26.16.42.32.83.48,1.25l.24.62.06.15c.02.05.02.06.03.09l.05.16c.13.43.26.86.39,1.28.06.21.13.42.19.63.06.21.11.42.17.64.11.42.23.84.34,1.25.2.83.4,1.64.6,2.43.73,3.18,1.27,6.05,1.71,8.46.43,2.41.75,4.34.96,5.68.21,1.34.33,2.07.33,2.07.38-4.73.26-9.56-.29-14.23-.29-2.33-.69-4.63-1.24-6.85-.14-.55-.3-1.1-.45-1.64-.07-.26-.15-.51-.22-.77l-.05-.15-.05-.15-.03-.08s0-.01,0-.02c0,0-.02-.02-.04-.05-.02-.03-.01-.04.01-.04.01,0,.03,0,.06,0Z" fill="#fff"/>
  <path d="M273.76,492.15c.94-1.38,1.76-2.83,2.52-4.29,1.51-2.94,2.76-5.96,3.86-8.93,1.09-2.97,2.02-5.9,2.82-8.71.4-1.4.77-2.78,1.1-4.11.14-.54.28-1.08.41-1.61.15-.61.3-1.21.45-1.81.27-1.14.53-2.25.78-3.34-.05.03-.1.05-.15.09l-.18.12-.34.23c-.22.15-.44.3-.66.44-.43.29-.86.58-1.28.87-.43.3-.84.58-1.25.89-.41.31-.81.61-1.2.91l-.29.23-.23.19c-.11.09-.22.18-.32.28-.22.18-.42.37-.63.55-.41.36-.8.73-1.17,1.08-1.49,1.43-2.68,2.8-3.58,3.99-.23.29-.43.58-.62.86-.19.28-.37.53-.52.77-.3.5-.56.92-.74,1.27-.35.72-.54,1.1-.54,1.1.86-1.16,1.82-2.2,2.82-3.17,1.01-.97,2.08-1.86,3.15-2.71,1.08-.85,2.19-1.64,3.29-2.41.18-.13.17-.11.22-.13l.11-.04c.06-.03.12-.04.16-.06.04-.01.08-.02.11-.02.01,0,.03,0,.04,0h.01s.01,0,0,.03c-.06.14-.11.23-.15.3-.02.03-.04.06-.05.08l-.02.03h0s0,.01,0,.02l-.03.1c-.35,1.18-.7,2.34-1.04,3.48-.69,2.28-1.35,4.47-1.98,6.56-1.27,4.17-2.46,7.92-3.56,11.02-1.1,3.1-2.15,5.55-3.02,7.18-.44.81-.83,1.42-1.12,1.82-.3.4-.46.6-.46.6,1.3-1.04,2.35-2.37,3.29-3.74Z" fill="#fff"/>
  <path d="M284.63,479.65c0-.94-.03-1.66-.09-2.16-.05-.49-.08-.75-.08-.75-.68,4.05-2.01,7.91-3.52,11.48-1.51,3.57-3.2,6.84-4.74,9.64-1.54,2.8-2.95,5.12-3.95,6.74-1.01,1.62-1.62,2.55-1.62,2.55,1.66-1.43,3.17-3.02,4.54-4.66,1.37-1.65,2.6-3.36,3.67-5.08,2.16-3.45,3.67-6.96,4.57-10.07.91-3.12,1.19-5.82,1.21-7.68Z" fill="#fff"/>
  <path d="M452.75,490.95c1.39.47,2.66.89,3.82,1.19,1.15.32,2.16.59,3.01.77,1.69.38,2.67.56,2.67.56-3.48-1.87-6.94-3.5-10.17-5-3.23-1.48-6.21-2.84-8.79-4.01-2.56-1.18-4.67-2.2-6.14-2.95-.74-.37-1.31-.68-1.7-.89-.39-.21-.6-.34-.6-.34,1.25,1.39,2.71,2.6,4.21,3.71,1.51,1.09,3.07,2.09,4.64,2.95,3.14,1.75,6.29,3.04,9.05,4.01Z" fill="#fff"/>
  <path d="M440.36,564.7c1.31-2.5,2-5.27,2.18-7.87.19-2.61-.16-5.09-.83-7.09-.66-2.01-1.63-3.51-2.41-4.42-.4-.45-.73-.79-.98-.99-.24-.2-.37-.32-.37-.32,1.11,2.38,1.67,4.83,2.01,7.19.34,2.37.45,4.65.5,6.65.04,2,0,3.71-.03,4.92-.04,1.21-.08,1.92-.08,1.92Z" fill="#fff"/>
  <path d="M416.26,707.03c-1.24-12.54-1.95-19.67-1.95-19.67,1.26,36.35,4.16,73.61,7.92,107.27,1.06-.58,2.12-1.17,3.17-1.77-1.38-11.98-2.62-23.31-3.75-33.77-2.32-21.6-4.14-39.54-5.4-52.07Z" fill="#fff"/>
  <path d="M398.42,677.09c2.32.5,4.21.59,5.48.55.32-.01.6,0,.84-.04.24-.03.45-.05.61-.07.33-.04.49-.06.49-.06-1.34-.04-2.64-.24-3.91-.52-1.26-.32-2.5-.68-3.7-1.15-2.41-.91-4.69-2.04-6.87-3.3-2.18-1.26-4.25-2.65-6.23-4.09-1.98-1.45-3.85-3-5.65-4.55-7.16-6.28-12.86-13.12-17.34-19.24-2.24-3.07-4.15-5.99-5.81-8.6-1.04-1.67-1.97-3.22-2.79-4.62,1.11,1.71,2.31,3.36,3.54,4.91.74.9,1.48,1.79,2.24,2.64.77.83,1.52,1.65,2.28,2.42.77.76,1.53,1.5,2.28,2.2.77.68,1.52,1.33,2.24,1.96.18.16.36.31.54.46.18.15.37.29.55.43.36.28.71.56,1.06.83.35.27.68.53,1.01.78.16.13.33.25.49.37.17.12.33.23.49.34.64.44,1.25.86,1.8,1.24.56.38,1.07.73,1.56,1.02,1.93,1.17,3.06,1.81,3.06,1.81-3.78-3.45-7.39-6.87-10.65-10.15-3.27-3.28-6.19-6.41-8.63-9.16-2.44-2.75-4.38-5.11-5.72-6.8-1.34-1.68-2.06-2.69-2.06-2.69.29.71.61,1.4.94,2.1-.31-.58-.58-1.09-.81-1.51-.57-1.05-.88-1.61-.88-1.61,2.99,9.49,7.53,18.78,13.19,26.72,2.82,3.97,5.89,7.62,9.07,10.84,3.18,3.23,6.5,6.01,9.77,8.32,6.52,4.66,12.9,7.25,17.53,8.22Z" fill="#fff"/>
  <path d="M472.68,635.74l-18.01-33.26-19.63-15.24-9.58,1.39-2.31,2.08,14.2,7.97,3.81,4.5-30.14-9.35h-4.85l-5.89,3.81,1.11,7.16,9.97,3.24-9.05.62-3.76,6.66,4.85,7.62,10.74,1.39-11.81,2.16-2.39,6.85,7.18,2.42,6.67,2.09-6.82,1.41-2.56,3.52c-1,1.37-.92,3.25.19,4.53l5.73,6.47,9.35-.69,36.03,15.24s24.02-6.12,16.97-32.56Z" fill="#fff"/>
  <path d="M248.18,652.6c-.39,2.72-.7,5.36-.95,7.91-.13,1.27-.24,2.52-.34,3.74l-.04.46-.02.23v.06s0,.04,0,.03h0s.01.02.02.04c.01.03.02.08.04.16-.02.02-.07.02-.15,0h-.07c-.14-.1-.28-.18-.42-.26-.3-.18-.61-.35-.9-.53-1.19-.69-2.34-1.33-3.42-1.93-2.16-1.19-4.08-2.2-5.68-3.02-3.2-1.63-5.11-2.48-5.11-2.48,2.6,2.25,5.29,4.41,8.01,6.47,1.36,1.03,2.73,2.03,4.09,3.01.34.24.68.49,1.02.73l.51.36.27.19.5.34c1.36.91,2.71,1.82,4.05,2.72.21-2.02.42-4.01.62-5.98.11-1.08.21-2.14.3-3.18.19-2.09.34-4.11.46-6.04.25-3.86.39-7.35.47-10.3.15-5.89.05-9.57.05-9.57-1.47,5.71-2.54,11.42-3.31,16.85Z" fill="#fff"/>
  <path d="M288.4,776.24c-.83-.03-1.66-.06-2.48-.09l-.61-.02s-.02-.01-.02-.02c-.01,0-.01-.02-.02-.03.01-.02.02-.03.02-.03,0,.11.03-.29.05-.52.02-.26.04-.51.07-.77.09-1.02.16-2.03.23-3.03.13-1.91.24-3.75.32-5.52.22-2.73.43-5.44.64-8.14.21-2.72.37-5.42.56-8.11.36-5.37.71-10.68,1.05-15.91.58-10.47,1.19-20.64,1.58-30.47.11-2.46.22-4.89.32-7.31.05-1.21.1-2.41.16-3.6.04-1.2.08-2.39.13-3.57.16-4.74.32-9.39.47-13.94.15-4.55.24-9.01.35-13.36.05-2.18.1-4.33.15-6.45.05-2.12.07-4.22.11-6.29.06-4.14.12-8.18.18-12.1.03-3.92.06-7.73.08-11.41.01-1.84.02-3.66.03-5.44,0-1.78,0-3.53,0-5.26,0-3.44-.02-6.76-.02-9.94-.05-6.37-.09-12.21-.19-17.49-.16-10.55-.4-18.82-.58-24.46-.1-2.82-.18-4.97-.24-6.43-.06-1.45-.1-2.2-.1-2.2-.08,85.99-4.43,175.14-10.89,246.26,1,.45,2,.89,3,1.32.07-.65.13-1.29.2-1.94.58-5.72,1.13-11.39,1.63-17.01.11-1.23.22-2.46.32-3.69.35,0,.64-.02.76-.02.72-.03,1.42-.07,2.1-.1,1.37-.07,2.67-.16,3.89-.25,2.45-.18,4.6-.39,6.37-.59,3.55-.39,5.61-.74,5.61-.74-3.39-.48-6.81-.82-10.2-1.06-1.69-.12-3.38-.21-5.04-.28Z" fill="#fff"/>
  <path d="M85.04,413.05c0-.14,0-.27,0-.4l-.8.02c.22.26.49.38.8.38Z" fill="#fff"/>
  <path d="M107.79,398.88c.11-3.09.17-6.49.17-10.19-.89,0-1.34.21-1.34.62.2,0-1.22.35-4.23,1.05-6.57,1.53-11.19,3.64-13.87,6.32l-.21.1c-.14.06-.27.1-.38.1-1.45,2.33-2.35,4.91-2.68,7.75-.14,1.08-.21,3.76-.21,8.02l8.26-.22-.38-10.29c.39-.19.88-.29,1.47-.29.59.03,1.13.05,1.63.05l.17.24v17.04c-1.43-1.56-2.91-2.34-4.44-2.34-.45,0-.89.06-1.34.19-2.04.61-4.02.91-5.95.91,0,.16-.13.4-.4.72-.27.32-.4.56-.4.72-.42,1.66-.63,3.56-.63,5.69,0,.86.04,1.75.13,2.68.22,3.29.34,6.19.34,8.71,0,4.75.45,7.82,1.34,9.19.03.03.12.22.27.55.05.11.1.19.15.26,0,0,0,0,0,0,.03.22.14.45.34.67,1.59,0,3.49-.65,5.7-1.96,2.21-1.31,4.11-1.96,5.7-1.96,0-.19.2-.48.59-.86v5.22c.48,0,1.03-.3,1.68-.89.64-.59,1.17-.93,1.59-1.03.25-.06,1.52-.26,3.81-.57,1.54-.19,2.77-.54,3.69-1.05,0-5.65.2-11.47.59-17.47.36-6,.17-11.82-.59-17.47-.5-3.73-.68-7.13-.54-10.19ZM96.6,434.34c-.39,0-.85.38-1.38,1.15-.53.77-.91,1.15-1.13,1.15,0-.03-.32.32-.96,1.05-.67-1.56-.99-3.41-.96-5.55v-6.03c1.98,0,3.27.35,3.86,1.05.06.06.15.33.27.79.13.46.23.69.31.69v5.69Z" fill="#fff"/>
  <path d="M112.63,392.28c.54,0,1.24-.05,2.08-.13.11-.03.21-.07.31-.11-.17,0-.96.08-2.39.24Z" fill="#fff"/>
  <path d="M112.89,446.78l12.95-1.24c0-.89.13-2.4.38-4.54.2-1.91.27-3.42.21-4.54-.14-2.1-.35-5.02-.63-8.74-.28-3.12-.28-6.1,0-8.94.06-.64,0-1.77-.17-3.39-.08-.6-.13-1.13-.13-1.58,0-.76.1-1.32.29-1.67h.17c.11-.25.17-.61.17-1.05,0-.22-.02-.55-.06-.98s-.06-.76-.06-.98c0-.48.07-.86.21-1.15h.21v-.67h.13v-.43h.21l.17-.91c1.28-.73,1.93-1.24,1.93-1.53h1.34c.5,1.37.82,2.7.96,3.97.67,6.19.87,12.62.59,19.28-.31,6.7-.46,13.06-.46,19.09l12.99-1.29c0-2.17-.1-4.21-.29-6.13-.22-1.95-.21-4,.04-6.17.67-5.68.95-11.79.84-18.33-.14-6.67-.75-12.73-1.84-18.18-.64-3.22-.96-4.91-.96-5.07l-.21-.19-.17-.24c.14,0-.38-.22-1.55-.67-.67-.16-1.56-.24-2.68-.24-.73,0-1.52.03-2.39.1-2.46.19-4.14.31-5.03.36-.89.05-1.34.28-1.34.69-.87,0-1.48.61-1.84,1.82-.28.99-.57,1.99-.88,3.01h-.17v.67c-.11-.38-.18-2.52-.21-6.41-2.18,0-3.53.3-4.07.91-1.01,0-2.49.14-4.46.43-.88.13-1.66.23-2.34.3-.51.17-1.07.29-1.7.37l-.13,54.27Z" fill="#fff"/>
  <path d="M167.6,448.27c-.11.03-.17.27-.17.72h-.17v.33h-.13c-.31.7-.46,1.4-.46,2.11-.22,0-.34.18-.34.53h-.13c-.22.26-.34.62-.34,1.1-.2,0-.29.11-.29.33l-5.87.33-.13-.14c0-.51-.06-1.28-.17-2.3-.11-1.02-.17-1.79-.17-2.3h-.29v.19c-.36.19-1.03.29-2.01.29-.53,0-1.16-.02-1.89-.05-2.15-.19-3.48-.33-3.98-.43-1.29-.22-2.51-.33-3.69-.33,0,4.12.04,6.7.13,7.75.31,3.7,1.05,5.87,2.22,6.51.07.19.22.38.44.57-.14-.09-.29-.19-.44-.29.11.16.66.54,1.63,1.12.84.55,1.26.96,1.26,1.22,1.31,0,2.64.06,3.98.2,1.34.13,2.64,0,3.9-.38,1.12-.35,2.63-.32,4.53.1,2.1.41,3.6.56,4.53.43,2.07-.13,3.62-.18,4.65-.14,0-.35.2-.57.61-.65.4-.08.61-.28.61-.6.11,0,.29-.06.52-.17.24-.11.43-.17.57-.17,0,.25.15-.05.46-.91.67-3.09,1.09-5.49,1.26-7.18.31-3.16.6-5.58.88-7.27.67-4.21.89-8.74.67-13.59-.22-4.75-.34-9.43-.34-14.02,0-1.5-.06-3.17-.17-5.02-.11-1.75-.01-3.37.29-4.83.22-1.12.22-2.39,0-3.83-.08-.54-.13-1.07-.13-1.58,0-.77.1-1.5.29-2.2h.17c.25-.99.38-2.07.38-3.25,0-1.05-.1-2.19-.29-3.4-.48-2.52-.71-4.71-.71-6.56-1.01,0-2.21-.03-3.6-.1-1.42-.06-2.64.03-3.65.29-.17.06-.46.28-.88.65-.42.37-.69.55-.8.55,0,.83.08,1.61.25,2.34.03.22.04.4.04.53v.05c-.06,0-.15-.14-.29-.43h-.17v-.53l-.21-.29c-.14-.16-.22-.3-.25-.43-1.54-.57-2.3-.99-2.3-1.24h-.63c-1.48-.51-2.88-.73-4.19-.67-1.34.1-2.81.14-4.4.14-.84.48-1.72.72-2.64.72-2.49.83-4.28,1.24-5.36,1.24-.53.67-1.01,1.13-1.43,1.39v.38c-.61,2.04-.92,5.57-.92,10.58.03-.03.06-.05.08-.05.06,0,.08.13.08.38h.17c.2.41.29.96.29,1.63s-.08,1.37-.25,2.2c-.34,1.75-.5,3.06-.5,3.92,0,.16.05.4.15.72.1.32.15.56.15.72.45,2.2.57,5.34.38,9.43-.2,3.96-.01,7.1.54,9.43.06.19.15,1.01.29,2.44.11,1.05.32,1.82.63,2.3h.17c.11.29.21,1.13.29,2.54.08,1.05.39,1.74.92,2.06,4.58,2.65,8.44,3.46,11.57,2.44.36-.13.96-.56,1.8-1.29.75-.64,1.38-.96,1.89-.96,0-.29.28-.75.84-1.39.27-.31.47-.61.61-.9-.05.32-.07.67-.07,1.05,0,.32.03.78.08,1.39.06.61.08,1.07.08,1.39,0,.89-.15,1.53-.46,1.91v1.24ZM166.51,417.93c-.61,4.75-.92,8.42-.92,11.01-.25,0-.71.16-1.38.48-.67.32-1.08.57-1.22.77-.95,0-1.58-.06-1.89-.19v-.86c-.48-.51-.67-1.64-.59-3.4.08-1.75.13-3.03.13-3.83,0-1.91-.07-4.02-.21-6.32-.17-2.3-.1-4.37.21-6.22.06-.32.24-.99.54-2.01.25-.83.38-1.51.38-2.06,1.37,0,3.38.54,6.04,1.63-.06,2.33-.42,6-1.09,11.01Z" fill="#fff"/>
  <path d="M193.23,390.46c-1.48.19-2.35.43-2.6.72-.67,0-1.82.18-3.44.53-1.73.35-2.84.67-3.31.96v.19l.21-.19c.36,3.03.68,6.44.96,10.24.25,3.86.11,7.34-.42,10.43-.25,1.47-.38,3.01-.38,4.64v21.68c0,.67.07,1.71.21,3.11.06.48.08.89.08,1.24,0,.73-.1,1.28-.29,1.63h-.17v1.05c1.09,0,4.23-.57,9.43-1.72.17,0,.52.03,1.05.1.5.03.87,0,1.09-.1v-.14h.38l.17-.24c0-1.91-.06-4.05-.17-6.41-.14-2.33-.01-4.42.38-6.27.59-2.78.78-5.84.59-9.19-.2-3.06,0-6.11.59-9.14.03-.22.04-2.04.04-5.46,0-2.42.43-3.99,1.3-4.69v-.19c.25,0,.64-.04,1.15-.12.52-.08.9-.12,1.15-.12,0,1.31-.16,3.25-.48,5.81-.32,2.57-.48,4.51-.48,5.81l10.14.86c0-2.58.13-5.18.38-7.8.22-2.62.1-5.26-.38-7.94-.39-2.2-.59-4.93-.59-8.18l-.38-.43c-1.01,0-1.58-.06-1.72-.19-.98,0-2.17-.14-3.56-.43-1.4-.29-2.57-.21-3.52.24-1.23.57-1.93.86-2.1.86,0,.29-.2.43-.59.43-.75,1.24-1.34,2.25-1.76,3.01.39-.7.64-1.12.75-1.24v.05l-.08.19c-.25.54-.48,1.02-.67,1.44l-.17.19.17-5.6c-.08.03-1.08.16-2.98.38Z" fill="#fff"/>
  <path d="M231.48,453.44l-.17.24c-.75,0-1.8-.18-3.14-.55-1.34-.37-2.36-.55-3.06-.55-.03-.06-.28-.37-.75-.91,0-.48-.13-1.08-.38-1.79-.25-.72-.38-1.3-.38-1.75-.25,0-.38-.37-.38-1.1l-10.81.43c0,6.63,1.35,11.5,4.07,14.59,3.63,0,7.43.37,11.4,1.1,1.31.25,2.63.38,3.94.38,2.57,0,5.07-.49,7.5-1.48.31-.13.87-.53,1.7-1.22.82-.69,1.28-1.17,1.36-1.46.64-1.53,1.3-3.08,1.97-4.64.75-1.91,1.01-3.53.75-4.83-1.15-5.81-1.72-11.74-1.72-17.8,0-4.05.25-8.15.75-12.3,1.28-10.5,1.93-20.61,1.93-30.34-.36,0-1.37.13-3.02.38-1.84.29-2.77.53-2.77.72h-.8v.24c-.87.29-3.02.43-6.45.43,0,.16-.2.24-.59.24v21.63c-.03,2.42-.21,4.85-.55,7.27-.14,1.05-.27,1.64-.38,1.77,0,.89-.1,2.19-.3,3.88-.2,1.69-.3,2.97-.3,3.83h-1.94c0-.06-.03-.17-.08-.31-.06-.14-.08-.25-.08-.31-.59,0-.99-.37-1.18-1.1-.42-1.56-.58-3.41-.47-5.55.08-2.04.24-3.96.46-5.74.53-4.27.46-8.68-.21-13.21-.81-5.2-.89-9.55-.25-13.06,0-.22.05-.55.15-.98.1-.43.15-.76.15-.98l-.59.19v.24h-.38v.24c-.25.19-1.34.32-3.27.38-1.68.06-2.51.3-2.51.72l-4.28-.19c-1.2-.03-1.83-.03-1.89,0,.25.03.78.08,1.59.14l.21.24-.59,5.07-.63-.53.84,4.26-.67,9.95-.29,12.78-.75,12.15.38,5.93.38.48v.67l13.96,3.73c1.45-1.48,2.32-2.66,2.61-3.55-.05.63-.08,1.75-.1,3.35v8.57Z" fill="#fff"/>
  <path d="M475.8,446.6c1-.59,1.82-.93,2.47-1.03.39-.06,2.36-.26,5.91-.57,2.38-.19,4.29-.54,5.72-1.05,0-5.65.3-11.47.91-17.47.56-6,.26-11.82-.91-17.47-.78-3.73-1.06-7.13-.84-10.19.17-3.09.26-6.49.26-10.19-1.39,0-2.08.21-2.08.62.3,0-1.89.35-6.56,1.05-10.18,1.53-17.35,3.64-21.51,6.32l-.32.1c-.22.06-.41.1-.58.1-2.25,2.33-3.64,4.91-4.16,7.75-.21,1.08-.32,3.76-.32,8.02l12.8-.22-.59-10.29c.61-.19,1.37-.29,2.27-.29.91.03,1.75.05,2.53.05l.26.24v17.04c-2.21-1.56-4.51-2.34-6.89-2.34-.69,0-1.39.06-2.08.19-3.16.61-6.24.91-9.23.91,0,.16-.21.4-.62.72-.41.32-.62.56-.62.72-.65,1.66-.97,3.56-.97,5.69,0,.86.06,1.75.19,2.68.35,3.29.52,6.19.52,8.71,0,4.75.69,7.82,2.08,9.19.04.03.18.22.42.55.08.11.15.19.23.26,0,0,0,0,0,0,.04.22.22.45.52.67,2.47,0,5.42-.65,8.84-1.96,3.42-1.31,6.37-1.96,8.84-1.96,0-.19.3-.48.91-.86v5.22c.74,0,1.6-.3,2.6-.89ZM471.71,434.28c-.61,0-1.32.38-2.14,1.15-.82.77-1.41,1.15-1.75,1.15,0-.03-.5.32-1.49,1.05-1.04-1.56-1.54-3.41-1.49-5.55v-6.03c3.08,0,5.07.35,5.98,1.05.09.06.23.33.42.79.2.46.36.69.49.69v5.69Z" fill="#fff"/>
  <path d="M453.77,412.98c0-.14,0-.27,0-.4l-1.24.02c.35.26.76.38,1.24.38Z" fill="#fff"/>
  <path d="M514.12,444.95c0-.38.05-1.23.16-2.54.11-1.31.16-1.4.16-.29.13.06.38.26.75.6.37.33.62.5.75.5,0,.32.69.97,2.08,1.96,1.52,1.08,4.25,1.44,8.19,1.05,3.94-.41,6.89-.62,8.84-.62l.32-.43.33-.24c.35,0,.71-.23,1.1-.69.39-.46.71-.73.98-.79,0-1.44.67-3.22,2.01-5.36,1.47-2.3,2.3-4.12,2.47-5.46l3.25-23.64c.13-.92.32-2.74.59-5.46.04-.51.06-1,.06-1.48,0-1.82-.41-3.03-1.23-3.64,0-.54-.2-1.29-.58-2.25-.39-.96-.59-1.69-.59-2.2-.26,0-.52-.26-.78-.77-.26-.51-.5-.77-.71-.77,0-.19-.1-.49-.29-.89-.2-.4-.29-.69-.29-.89l-.32-.19c-2.43,0-5.07-.41-7.93-1.24-2.08-.61-4.14-.91-6.17-.91-.78,0-1.56.05-2.34.14-.26,0-.62.11-1.07.33-.46.22-.79.34-1.01.34-.17.22-1.17,1.64-2.99,4.26-1.26,1.75-2.45,3.05-3.57,3.88v-7.7l-.91-14.36-.32-.19-1.17.19h-12.87c-1.13-.03-1.82,0-2.08.07v.17h-.59c0,.29-.14.65-.42,1.1-.28.45-.44.81-.49,1.1-.48,1.15-.65,2.84-.52,5.07.09,2.07.35,3.76.78,5.07.69,2.17.93,5.18.71,9.04-.22,4.28-.15,7.31.2,9.09.22,1.05.02,2.89-.59,5.5-1.21,5.26-1.82,10.51-1.82,15.74v15.79c-.17.03-.26.4-.26,1.1h.26v.48c1.17,0,3.16-.11,5.98-.33.91-.06,1.73-.1,2.47-.1,1.47,0,2.56.14,3.25.43v.19c2.3.13,4.38.19,6.24.19ZM517.24,419.49c.74-3.54,1.1-7.03,1.1-10.48.39-.64.58-.86.58-.67,1.04,0,2.58-.18,4.61-.55,2.04-.37,3.6-.55,4.68-.55v.91h.26v3.06l-2.66,9.62c-1,3.64-1.49,6.84-1.49,9.62l-.32.19-5.98-.19c0-.1-.04-.21-.13-.33-.09-.13-.13-.24-.13-.33-1.17-2.97-1.34-6.4-.52-10.29Z" fill="#fff"/>
  <path d="M556.98,390.25c1.25,0,2.98-.11,5.18-.33.14-.03.28-.06.41-.1-.39,0-2.25.14-5.59.43Z" fill="#fff"/>
  <path d="M597.08,432.22c0-.54.07-1.34.2-2.39,0-1.02-.16-1.77-.47-2.25h-.31v-.91l-10.46.67c-.26.03-1.13-.02-2.6-.14-1.26-.1-2.1-.05-2.53.14v.24c-.04.06-.14.1-.3.1-.2,0-.49-.06-.85-.17-.37-.11-.63-.17-.79-.17,0,2.23.42,4.88,1.25,7.94.12.51.18.99.18,1.44,0,2.14-1.91,3.21-5.72,3.21l-2.4-.86c0-.57-.2-.86-.58-.86,0-2.17-.45-5.3-1.36-9.4-.91-4.1-1.36-7.23-1.36-9.4-.26,0-.37-.03-.32-.1.04-.06-.04-.1-.26-.1v-.43l25.41.62c0-3.06.15-6.36.45-9.91.26-3.6.02-6.84-.71-9.71-.17-.7-.76-1.98-1.75-3.83-.82-1.56-1.23-2.87-1.23-3.92-.3,0-.42-.03-.36-.1.07-.06-.03-.1-.29-.1v-.43c-.3,0-.48-.08-.52-.24l-.07-.24h-.26l-.65-.67c-1.65,0-3.94-.22-6.89-.65-2.95-.43-5.22-.65-6.82-.65-.2-.11-.77-.18-1.68-.21,0,0-.07.01-.2.02-.52.06-1,.19-1.43.38-.13,0-.28.08-.46.24-.17.16-.32.24-.45.24l-.26.19.19-.24c.08-.12.12-.26.13-.42-1.56.05-3.67.23-6.33.54-.71.08-1.37.15-2,.22-1.34.31-3.06.58-5.18.81-1.95,1.02-2.95,1.53-2.99,1.53,0,.16-.04.33-.13.5-.09.18-.13.3-.13.36-.91.35-1.49,1.26-1.75,2.73l-.65,3.25c-.52,1.6-.78,3.3-.78,5.12,0,.93.09,1.88.26,2.87.43,3.09.41,5.81-.07,8.14-.48,2.33-.61,4.64-.39,6.94.17,2.27.5,4.51.97,6.75.09,2.78.2,5.55.32,8.33.3,3.41,1.88,5.63,4.74,6.65,0,.13.05.29.16.48.11.19.16.33.16.43,3.42,1.63,8.21,2.85,14.36,3.68.65.1,1.47,0,2.47-.26,1-.27,1.75-.41,2.27-.41.87-.64,3.14-1,6.82-1.1,3.34-.1,5.35-.69,6.04-1.77.35-.06.82-.25,1.43-.57.61-.32,1.13-.48,1.56-.48l.32-.19v-.43l.84-.24v-.24c1-.73,1.71-1.1,2.14-1.1,0-.29.31-.74.94-1.36.63-.62,1.01-1.04,1.14-1.27.26-.86.32-1.99.2-3.4-.13-1.4-.2-2.55-.2-3.45ZM568.68,405.52h.26v-.91h.32c.61-1.79.91-3.91.91-6.36.39,0,.58-.16.58-.48h2.08v.24l2.08.24v9.47h-1.17v-.24c-.48-.19-1.3-.27-2.47-.24-1.13.03-1.98.05-2.54.05,0-.15-.04-.36-.09-.62-.06-.32-.1-.56-.1-.72,0-.19.04-.33.13-.43Z" fill="#fff"/>
  <path d="M572.98,388.75s-.54-.03-1.63-.03c.63,0,1.18,0,1.63.03Z" fill="#fff"/>
  <path d="M570.96,389.01l-.45.14s0,0,0,.02c.3,0,.59-.02.85-.02,0-.19-.13-.24-.39-.14Z" fill="#fff"/>
  <path d="M413.97,311.98c-.93,1.92-1.71,3.42-2.03,4.15-1.15,2.69-5.77,4.23-5.77,4.23l-2.69-3.46-5.58,13.84c-15.7,14.23-36.72-2.69-36.72-2.69l-3.86,2.14,1.16,18.62-2.31,14.23,5-.38s-1.54-5.77,1.15-6.15c2.69-.38,3.08,10.38,3.08,10.38,0,0-7.69,6.15-9.61,7.69-1.92,1.54-7.31,3.08-7.31,3.08,0,0-.77-4.61-3.46-4.61s-4.61,7.69-4.61,7.69l-6.15-8.07-8.46-.77s-1.54-9.61,4.23-13.07l3.46,6.15,16.92-1.15s3.84-10.77,3.84-13.84-6.92-37.68-6.92-37.68l-6.54,5.38,3.46-9.61.13-7.3.05-2.64v-.83c-.74,0-1.49,0-2.26,0-.52,0-2.77,0-3.37,0-3.22,0-6.37-.03-9.46-.06h0s.01.05.02.08c0,0,0,.01,0,.02,0,0,0,0,0,0,.09.53.19,1.06.31,1.58,0,0,0,0,0,0,0,.02,0,.04.01.07h0c.05.23.11.45.16.68.05.22.1.43.15.64,0,0,0,0,0,0,.02.09.04.18.06.27,0,.02.01.05.02.07h0c1.44,5.52,3.79,10.33,3.79,10.33l-5.77.77,3.46,13.07s-11.53,11.53-27.3,11.53c-3.08,0-5.81-.66-8.21-1.73-.55-.24-.41-1.07.19-1.13,5.46-.56,20.34-2.76,28.1-10.65l-5.01-1.33s-18.46,13.37-30.38.29l-4.56,1.96s-.02-.03-.03-.05l-.65.34-3.05,1.31c-.9-1.17-5.46-7.07-7.53-10.17-.06-.09-.1-.19-.15-.28-3.68,5.65-7.38,12.61-9.04,19.59,2.99,9.2,8.79,17.39,14.19,21.45l-2.69,6.15,8.84-3.84-1.92,11.92,5.77-3.08-1.15,7.31,10.38-2.31-5.38,11.15s11.92-6.54,16.92-11.92c5-5.38,5-8.84,7.69-8.07,2.69.77-2.72,10.41-10.38,18.07-4.79,4.79-9.24,9.19-11.65,13.83l2.21,12.26,7.41-15.3s12.02,1.13,17.02.36c5-.77,12.69-3.84,12.69-3.84l6.73,3.79s6.34-3.79,8.27-3.79,8.84,5.38,18.07,4.23c9.23-1.15,11.54-1.92,11.54-1.92l6.92,5-5.23,16.01c4.03.76,7.01-.38,9.19-2.23,1.54-5.27,2.19-11.23,2.45-15.89-6.53-10.72-20.28-33.83-13.73-27.88,3.62,3.29,16.15,14.61,16.15,14.61,3.16-8.58,1.62-14.42,1.62-14.42l4.48.6-.3-6.87h5.69c.16-.17.33-.34.49-.5l-1.1-5.77,8.73.82h0l-2.69-4.61c5.8-9.86,10.23-18.16,12.04-26.03-1.81-6.58-6.05-10.05-9.24-11.8Z" fill="#fff"/>
  <path d="M322.36,302.13s.14-.77.42-1.94c.03-.02.04-.03.01-.05.05-.21.11-.43.17-.66,0,0,0,0,0,0,.06-.21.12-.44.18-.67,0-.03.02-.07.03-.1.13-.48.29-1,.46-1.53,0,0,0-.02,0-.03-.4,0-.8-.02-1.2-.02-.93-.02-1.87-.04-2.79-.06-.44,0-.88-.02-1.32-.03-.99-.02-1.97-.05-2.95-.07-.23,0-.45-.01-.68-.02-.54-.02-1.07-.03-1.6-.05-7.91-.24-15.36-.59-22.37-1.04-8.99-.58-17.26-1.33-24.82-2.24,7.27,1.87,15.34,3.4,24.64,4.55,8.44,1.05,17.9,1.78,28.68,2.2l3.13,1.77Z" fill="#fff"/>
  <path d="M385.09,315.42c-6.44.49-7.73-2.92-7.73-2.92l-13.31,5.83c33.91,6.32,30.91-10.21,30.91-10.21h-3.86s.43,6.8-6.01,7.29Z" fill="#fff"/>
  <path d="M397.24,319c-1.57,1.07-3.33,2.42-5.1,4.06-3.91,3.63-15.45,3.63-24.8,2.31,19.99,11.92,32.3,1.54,29.9-6.36Z" fill="#fff"/>
  <path d="M308.51,317.13c-3.2,0-5.86-2.17-6.68-5.1-7.87-1.33-11.46-1.01-11.46-1.01,0,0,.14,1.61,1.35,3.42,1.44,2.14,4.39,4.56,10.51,4.87,3.62.19,7.59.44,13.79-2.05.87-.35,1.78-.75,2.75-1.22-1.76-.52-3.4-.96-4.98-1.38-1.28,1.5-3.15,2.47-5.28,2.47Z" fill="#fff"/>
  <path d="M415.98,293.53c-12.56,1.54-27.06,2.63-43.66,3.22-1.24.04-2.49.09-3.75.13-.34.01-.68.02-1.02.03-1.31.04-2.62.07-3.95.11-.39,0-.78.02-1.17.03-1.35.03-2.72.06-4.1.09-.34,0-.67.01-1.01.02-3.51.06-7.09.1-10.76.13h0s6.95,7.51,6.95,7.51c0,0,4.61-1.84,10.7-4.45,21.41-.85,38.59-2.96,52.05-6.23-.09-.2-.18-.39-.26-.58Z" fill="#fff"/>
  <path d="M234.9,298.86c-7.78-1.8-8.23,16.89,1.83,33.04,0,.02.02.03.03.05,2.18,4.39,4.89,8.57,6.38,12.99.81,2.41,1.61,5.43,3.06,7.85.97,3.7,1.26,6.28,1.76,7.9,1.16,3.76,4.88,5.66,6.53,4.48,3.03-2.16,2.63-3.56,1.46-4.43,0-.09.01-.18.01-.27,0-1.11-.09-2.25-.42-3.31-.27-.85-.81-1.62-1.59-2.07-.07-.04-.15-.08-.23-.12.28-.39.48-.84.6-1.3-6.2-4.92-11.44-12.84-9.24-21.46-.79-2.02-1.6-3.77-2.4-5.05-.5-.81-1-1.69-1.49-2.63-.6-1.99-.91-4.04-.69-6.19.07-.69.18-1.47.31-2.33-2.47,1.54-4.59,3.42-4.59,3.42-2.6-9.1,3.05-15.73,4.85-17.56-1.48-1.43-3.86-2.47-6.18-3.01Z" fill="#fff"/>
  <path d="M339.4,405.43c16.55-.63,28.46-6.85,28.46-6.85-23.17-4.43-28.69.95-28.69.95-6.25-6.02-26.99-2.47-26.99-2.47-.42.3-2.7,3.3-3.01,3.76,5.32,1.74,19.07,5.04,30.23,4.61Z" fill="#fff"/>
  <path d="M305.57,413.36c6.55,3.15,12.74.62,14.91-1.5l-14.39-7.6c-.36,2.37-.58,6.63-.51,9.1Z" fill="#fff"/>
  <polygon points="333.51 426.33 337.74 438.63 343.12 425.94 349.66 439.4 350.81 424.4 363.11 430.94 357.67 418.15 351.19 413.64 348.12 419.79 341.2 413.64 337.74 419.41 334.28 414.41 330.43 418.25 325.21 415.38 318.51 427.86 326.97 424.02 325.43 437.86 333.51 426.33" fill="#fff"/>
  <path d="M373.26,413.11l.35-10.05-15.36,8.2c5.48,4.24,10.97,2.77,15.01,1.85Z" fill="#fff"/>
  <path d="M431.94,357.5s-7.31,1.92-1.15,5.77c1.66,1.04,5-1.15,5.77-5s0-12.69,8.07-29.61c8.07-16.92,6.02-35.5-1.15-33.07-4.79,1.62-9.61,5.77-4.61,10.38,0,0,1.92-5.38,4.23-5,2.31.38-.64,15.38-4.49,23.45-3.85,8.07-6.66,33.07-6.66,33.07Z" fill="#fff"/>
  <path d="M377.39,59.69c30.58,3.24,38.38,6.62,38.38,6.62,0,0-15.3-9.68-55.5-10.68-15.97-.4-34.95.79-56.81,3.23,21.95-.53,50.06-1.7,73.92.83Z" fill="#fff"/>
  <path d="M299.4,198.47c1.16,22.03,1.54,40.18,1.14,48.33,3.74.69,6.53,1.07,10.35,1.53.65-16.68.63-32.02-.17-49.88h0c-1.04-23.31-3.41-50.91-7.33-91.34,0,0,8.2,42.2,10.94,91.34h0c.91,16.36,1.22,33.49.42,50.09,0,0,13.19.96,25.19.96,52.05,0,83.3-10.05,83.3-10.05l-.27,16.53s-6.82,4.15-27.77,7.12c-12.3,1.74-29.46,3.08-52.98,2.94-26.44-.16-44.24-2.63-55.8-5.27-13.95-3.19-18.82-6.65-18.82-6.65v-17.78s7.22,2.67,9.69,3.76c.58-13.43.37-27.58-.34-41.59-2.51-49.5-11.18-97.07-12.52-103.54-4.53-.74-11.18-3.1-11.18-3.1l-1.48-6.21s2.25.93,8.64,2.38c.23.05.46.1.7.16,8.36,1.85,23.3,4.47,48.51,7.03,26.98,2.74,57.55,2.48,85.11,1.85,1.15-.03,2.29-.05,3.43-.08,7.96-.19,15.64-.4,22.88-.57-57.13,6.11-101.19,5.49-131.31,2.36,4.79,29.32,8.02,68.42,9.67,99.7" fill="#fff"/>
</svg>