<?xml version="1.0" encoding="UTF-8"?>
<svg id="Layer_1" xmlns="http://www.w3.org/2000/svg" baseProfile="tiny" version="1.2" viewBox="0 0 612 792">
  <!-- Generator: Adobe Illustrator 30.2.1, SVG Export Plug-In . SVG Version: 2.1.1 Build 1)  -->
  <path d="M348.32,223.74c.96.6,2.9-.67,3.34-2.9.45-2.23,0-7.35,4.68-17.15,4.68-9.8,3.49-20.57-.67-19.16-2.77.94-5.57,3.34-2.67,6.01,0,0,1.11-3.12,2.45-2.9,1.34.22-.37,8.91-2.6,13.59-2.23,4.68-3.86,19.16-3.86,19.16,0,0-4.23,1.11-.67,3.34Z" fill="#fff"/>
  <path d="M295.37,248.17c9.59-.37,16.49-3.97,16.49-3.97-13.42-2.57-16.62.55-16.62.55-3.62-3.49-15.64-1.43-15.64-1.43-.24.18-1.56,1.91-1.74,2.18,3.08,1.01,11.05,2.92,17.51,2.67Z" fill="#fff"/>
  <path d="M275.77,252.76c3.8,1.83,7.38.36,8.64-.87l-8.34-4.41c-.21,1.38-.33,3.84-.3,5.27Z" fill="#fff"/>
  <path d="M247.03,222.28c0-.05,0-.1,0-.16,0-.64-.05-1.3-.24-1.92-.15-.49-.47-.94-.92-1.2-.04-.03-.09-.05-.14-.07.17-.23.27-.5.34-.78-3.58-2.85-6.6-7.41-5.34-12.39-.46-1.18-.93-2.2-1.39-2.94-.29-.47-.58-.98-.86-1.52-.35-1.15-.53-2.34-.4-3.59.04-.4.11-.85.18-1.35-1.43.89-2.66,1.98-2.66,1.98-1.51-5.28,1.76-9.12,2.81-10.18-.86-.83-2.23-1.43-3.58-1.74-4.51-1.04-4.77,9.79,1.06,19.14,0,0,.01.02.02.03,1.26,2.54,2.83,4.97,3.7,7.53.47,1.39.93,3.15,1.77,4.55.56,2.14.73,3.64,1.02,4.58.67,2.18,2.83,3.28,3.79,2.59,1.75-1.25,1.53-2.06.85-2.57Z" fill="#fff"/>
  <path d="M314.99,252.62l.2-5.82-8.9,4.75c3.18,2.46,6.36,1.61,8.7,1.07Z" fill="#fff"/>
  <path d="M257.33,298.4c.54-.8,1.01-1.64,1.45-2.49.44-.85.83-1.71,1.2-2.58.37-.87.71-1.73,1.02-2.59.63-1.72,1.17-3.42,1.63-5.05.23-.81.44-1.61.64-2.38.07-.29.15-.57.22-.85.09-.35.18-.7.26-1.05.15-.66.31-1.31.46-1.94h0s0,0,0,0c-.05.03-.13.08-.19.12l-.2.13c-.13.09-.26.17-.38.26-.25.17-.5.33-.74.5-.25.18-.49.34-.73.52-.23.18-.47.36-.7.53-.13.1-.17.14-.24.2-.06.05-.13.11-.19.16-.04.04-.08.07-.13.11-.08.07-.16.14-.24.21-.24.21-.46.42-.68.63-.86.82-1.56,1.61-2.08,2.3-.13.17-.25.34-.36.49-.11.16-.21.3-.3.45-.17.29-.32.53-.43.73-.21.41-.32.63-.32.63.5-.67,1.05-1.28,1.63-1.84.58-.56,1.2-1.08,1.82-1.58.62-.49,1.26-.96,1.9-1.4.07-.05.19-.13.19-.12l.06-.03s.07-.03.1-.04c.03,0,.05-.01.07-.01,0,0,.02,0,.02,0h0s0,0,0,.01c-.03.08-.06.13-.08.17l-.03.05v.02s-.01,0-.01,0c0,0,0-.01,0,.02l-.04.13c-.2.68-.41,1.35-.6,2.01-.4,1.32-.78,2.59-1.15,3.8-.74,2.42-1.43,4.59-2.07,6.38-.64,1.8-1.25,3.21-1.77,4.16-.26.47-.49.82-.65,1.05-.17.23-.27.35-.27.35.75-.6,1.36-1.38,1.9-2.17Z" fill="#fff"/>
  <path d="M265,230.2l6.01-1.34-3.12,6.46s6.91-3.79,9.8-6.91,2.9-5.12,4.46-4.68c1.56.45-1.58,6.03-6.01,10.47-2.77,2.77-5.35,5.33-6.75,8.01l1.28,7.1,4.3-8.86s6.97.65,9.86.21c2.9-.45,7.35-2.23,7.35-2.23l3.9,2.19s3.68-2.19,4.79-2.19,5.12,3.12,10.47,2.45c5.35-.67,6.68-1.11,6.68-1.11l4.01,2.9-3.03,9.27c2.33.44,4.05-.22,5.32-1.3.89-3.06,1.28-6.51,1.43-9.21-3.78-6.21-11.75-19.6-7.95-16.15,2.1,1.91,9.36,8.47,9.36,8.47,1.83-4.97.94-8.36.94-8.36l2.6.35-.17-3.98h3.3c.1-.1.19-.2.28-.29l-.64-3.35,5.06.48h0l-1.56-2.67c3.36-5.71,5.93-10.52,6.98-15.08-1.05-3.82-3.51-5.82-5.36-6.83-.53,1.11-.99,1.98-1.17,2.4-.67,1.56-3.34,2.45-3.34,2.45l-1.56-2.01-3.23,8.02c-9.1,8.24-21.28-1.56-21.28-1.56l-2.23,1.24.67,10.79-1.34,8.24,2.9-.22s-.89-3.34.67-3.56c1.56-.22,1.78,6.02,1.78,6.02,0,0-4.46,3.56-5.57,4.46-1.11.89-4.23,1.78-4.23,1.78,0,0-.45-2.67-2.01-2.67s-2.67,4.46-2.67,4.46l-3.56-4.68-4.9-.45s-.89-5.57,2.45-7.57l2.01,3.56,9.8-.67s2.23-6.24,2.23-8.02-4.01-21.83-4.01-21.83l-3.79,3.12,2-5.57.08-4.23.03-1.53v-.48c-.43,0-.86,0-1.31,0-.3,0-1.61,0-1.95,0-1.86,0-3.69-.02-5.48-.04h0s0,.03,0,.05c.11.63.25,1.27.41,1.89,0,.01,0,.03,0,.04h0c.83,3.2,2.19,5.99,2.19,5.99l-3.34.45,2,7.57s-6.68,6.68-15.82,6.68c-1.79,0-3.37-.38-4.76-1-.32-.14-.24-.62.11-.65,3.16-.32,11.79-1.6,16.28-6.17l-2.9-.77s-10.69,7.75-17.6.17l-2.64,1.13s-.01-.02-.02-.03l-.38.2-1.77.76c-.52-.68-3.16-4.09-4.36-5.9-.04-.06-.04-.12-.08-.18-2.13,3.27-4.28,7.3-5.24,11.35,1.73,5.34,5.08,10.09,8.21,12.45l-1.56,3.56,5.12-2.23-1.11,6.91,3.34-1.78-.67,4.23Z" fill="#fff"/>
  <polygon points="291.95 260.28 294.41 267.41 297.52 260.05 301.31 267.85 301.98 259.16 309.11 262.95 305.96 255.54 302.2 252.93 300.42 256.49 296.41 252.93 294.41 256.27 292.4 253.37 290.17 255.6 287.15 253.94 283.27 261.17 288.17 258.94 287.28 266.96 291.95 260.28" fill="#fff"/>
  <path d="M321.84,196.02c-3.73.28-4.48-1.69-4.48-1.69l-7.71,3.38c19.65,3.66,17.91-5.91,17.91-5.91h-2.24s.25,3.94-3.48,4.22Z" fill="#fff"/>
  <path d="M354.34,339.32c.43-1.13.66-2.32.74-3.45.05-.76.03-1.49-.05-2.18-.08-.69-.23-1.34-.42-1.92-.19-.58-.42-1.09-.66-1.52-.24-.43-.49-.78-.72-1.04-.23-.26-.42-.46-.56-.58-.14-.12-.21-.19-.21-.19.65,1.37.99,2.79,1.19,4.16.2,1.37.26,2.7.29,3.86.02,1.16,0,2.15-.03,2.85,0,.18-.01.33-.02.47-.02.41-.03.64-.03.64,0,0,0,0,0,0h0c.19-.36.35-.74.49-1.11Z" fill="#fff"/>
  <path d="M333.58,280.95c.25.7.5,1.4.76,2.08.13.34.26.67.39,1.01.06.17.13.33.19.5l.09.24.04.14c.47,1.44.8,2.86,1.09,4.16.29,1.31.52,2.52.72,3.6.2,1.08.35,2.02.48,2.79.12.78.22,1.39.28,1.81.07.42.1.64.1.64.07-.88.11-1.76.11-2.65,0-.89-.01-1.77-.06-2.65-.05-.88-.12-1.76-.22-2.63-.1-.87-.23-1.73-.39-2.58-.07-.42-.17-.84-.27-1.26-.05-.21-.09-.41-.15-.62-.03-.1-.06-.2-.09-.31-.03-.1-.06-.2-.09-.31-.06-.2-.11-.4-.17-.59l-.05-.15-.05-.15s0,0-.01-.02c-.03-.03-.03-.04,0-.04h.02s0,0,0,0h0s0,0,0,0h.03c.16.11.31.2.47.28.31.18.61.36.9.53,2.36,1.4,4.3,2.66,5.63,3.61.34.23.63.45.88.64.13.1.25.18.35.26.11.08.2.16.29.23.17.14.31.24.4.31.09.07.14.11.14.11-1.15-1.46-2.51-2.76-3.91-3.94-.7-.58-1.42-1.14-2.14-1.67-.72-.53-1.44-1.03-2.17-1.5l-.07-.05-.07-.05-.13-.08-.13-.08c-.18-.11-.35-.22-.53-.32-.36-.22-.71-.43-1.06-.63-.35-.2-.7-.4-1.04-.6-.17-.1-.35-.2-.52-.3l-.13-.07s-.05-.03-.06-.03l.02.07.09.26Z" fill="#fff"/>
  <path d="M336.58,338.25c-.38-2.53-.8-4.91-1.2-7.04-1.08-5.66-2.06-9.5-2.06-9.5.54,15.54,4.68,29.97,4.68,29.97-.23-4.57-.78-9.21-1.42-13.43Z" fill="#fff"/>
  <path d="M355.8,295.37c1.82,1.01,3.64,1.76,5.24,2.32.8.27,1.54.52,2.21.7.33.09.65.18.94.26.29.08.56.14.8.2.24.06.46.1.65.15.57.12.89.18.89.18-2.02-1.07-4.03-2.01-5.9-2.87-1.87-.86-3.61-1.64-5.09-2.33-1.48-.69-2.7-1.28-3.55-1.72-.43-.22-.76-.4-.98-.52-.23-.12-.35-.2-.35-.2h0c.73.8,1.57,1.5,2.44,2.13.88.63,1.78,1.21,2.69,1.7Z" fill="#fff"/>
  <path d="M227.83,339.83l-.16-.3-.15-.31-.29-.62c-.19-.41-.39-.82-.57-1.24l-.54-1.26c-.18-.42-.34-.85-.51-1.27-.35-.84-.66-1.7-.99-2.54-.64-1.7-1.24-3.41-1.8-5.11-.56-1.7-1.09-3.4-1.57-5.08-.96-3.37-1.78-6.68-2.28-9.86-.06-.4-.12-.79-.18-1.18-.04-.39-.08-.78-.12-1.17-.02-.19-.04-.39-.06-.58v-.07s-.02-.12-.02-.12c-.01-.09-.05-.18-.11-.27-.06-.09-.13-.17-.22-.23-.18-.12-.37-.15-.55-.12-.18.03-.39.14-.51.32-.06.09-.1.19-.12.28-.02.11-.02.14-.02.13v.04s0,.05,0,.05c-.08,0-.1,0,0,0v.24c-.02.4-.04.79-.05,1.18-.04,1.55-.04,3.05-.02,4.5,0,0,0,.01,0,.02h0c.03,1.45.09,2.84.17,4.16.08,1.32.19,2.58.33,3.76.26,2.36.62,4.41.97,6.09.38,1.68.75,2.98,1.04,3.85.3.87.47,1.34.47,1.34-.49-1.88-.81-3.77-1.06-5.66-.06-.47-.11-.95-.17-1.42-.05-.47-.09-.95-.13-1.42-.05-.47-.08-.94-.11-1.41-.03-.47-.07-.94-.09-1.41-.11-2.21-.15-4.4-.14-6.56.74,3.18,1.65,6.12,2.58,8.79,1.89,5.36,3.9,9.64,5.48,12.52.2.36.4.69.58,1.01.19.31.35.61.52.88.35.53.64.99.89,1.35.39.52.65.87.75,1,.03.05.05.07.05.07-.23-.39-.46-.78-.69-1.17-.22-.4-.42-.81-.63-1.21Z" fill="#fff"/>
  <path d="M244.44,381.6h0c-.41,1.65-.77,3.31-1.08,4.94-.31,1.63-.57,3.25-.79,4.82-.22,1.57-.4,3.11-.55,4.58-.07.74-.14,1.46-.19,2.16-.01.17-.03.34-.04.51,0,0,0,.01,0,.02,0,.02.01.05.02.09-.01,0-.04,0-.09,0h-.02s-.01,0-.01,0h0s-.03-.02-.03-.02c-.09-.05-.18-.1-.27-.16-.18-.1-.35-.2-.52-.31-.69-.4-1.35-.78-1.98-1.12-1.25-.7-2.36-1.28-3.28-1.76-.92-.48-1.66-.84-2.17-1.08-.51-.24-.78-.37-.78-.37,0,0,0,0,0,0h0c1.51,1.29,3.08,2.54,4.65,3.73.79.59,1.58,1.17,2.37,1.74.2.14.4.28.59.42l.3.21.15.1.25.17c.79.53,1.57,1.05,2.34,1.57.12-1.15.24-2.28.35-3.4.06-.62.12-1.24.18-1.84.11-1.21.2-2.38.27-3.5.15-2.24.23-4.26.28-5.96.05-1.7.06-3.09.06-4.05,0-.96-.01-1.49-.01-1.49,0,0,0,0,0,0Z" fill="#fff"/>
  <path d="M328.88,198.09c-.91.62-1.93,1.4-2.95,2.35-2.27,2.11-8.95,2.1-14.37,1.34,11.58,6.91,18.71.89,17.32-3.69Z" fill="#fff"/>
  <path d="M339.74,183.34c-7.28.89-15.68,1.52-25.3,1.87-.72.03-1.44.05-2.17.07-.2,0-.39.01-.59.02-.76.02-1.52.04-2.29.06-.23,0-.45.01-.68.02-.78.02-1.58.03-2.38.05-.19,0-.39,0-.58.01-2.03.04-4.11.06-6.24.07h0s4.03,4.35,4.03,4.35c0,0,2.67-1.06,6.2-2.58,12.41-.49,22.36-1.72,30.15-3.61-.05-.11-.1-.22-.15-.34Z" fill="#fff"/>
  <path d="M285.49,188.32s.08-.44.24-1.13c.01,0,.02-.02,0-.03.03-.12.06-.25.1-.38,0,0,0,0,0,0,.03-.12.07-.25.1-.39,0-.02.01-.04.02-.06.08-.28.17-.58.26-.89,0,0,0-.01,0-.02-.23,0-.46,0-.69-.01-.54-.01-1.08-.02-1.62-.03-.26,0-.51-.01-.76-.02-.57-.01-1.14-.03-1.71-.04-.13,0-.26,0-.4-.01-.31,0-.62-.02-.93-.03-4.58-.14-8.9-.34-12.96-.6-5.21-.34-10-.77-14.38-1.3,4.21,1.09,8.89,1.97,14.27,2.64,4.89.61,10.37,1.03,16.62,1.27l1.81,1.03Z" fill="#fff"/>
  <path d="M273.6,194.05c-4.56-.77-6.64-.58-6.64-.58,0,0,.08.93.78,1.98.83,1.24,2.55,2.64,6.09,2.82,2.1.11,4.4.25,7.99-1.19.5-.2,1.03-.43,1.59-.7-1.02-.3-1.97-.56-2.89-.8-.74.87-1.83,1.43-3.06,1.43-1.85,0-3.4-1.25-3.87-2.96Z" fill="#fff"/>
  <path d="M324.74,417.97c-.87-.35-1.74-.7-2.58-1.06-.43-.17-.84-.37-1.25-.55l-.33-.16c-.2-.1-.4-.18-.61-.29-.41-.2-.84-.45-1.27-.69-.21-.05-.43-.1-.63-.15l-.24.07-.12.04s-.02,0-.03.01c0,0-.02,0-.03.01-.01,0-.03.02-.06.04-.06.04-.13.12-.19.19-.03.04-.05.08-.07.11-.02.03-.03.05-.03.07l-.04.13s-.04.07-.02.15c.01.14.03.27.04.41.12.2.26.42.38.62l.1.16c.03.05.06.1.11.16l.26.33c.17.22.35.44.52.66l.14.16.12.14.15.17c.19.22.39.43.59.64.2.21.4.41.6.61.2.2.4.39.6.58.8.75,1.59,1.42,2.35,2.01.76.6,1.5,1.12,2.18,1.58,1.36.93,2.53,1.57,3.34,2.01.82.42,1.28.65,1.28.65-2.56-2.02-4.97-4.1-7.1-6.2-.53-.53-1.05-1.05-1.54-1.58-.12-.13-.25-.26-.37-.39-.12-.13-.24-.26-.36-.4-.12-.13-.24-.26-.35-.39l-.17-.2-.06-.07s0,0,0,0c0,0,0,0-.03-.02-.03-.04-.04-.05-.01-.06,0,0,.02,0,.04,0,0,0,.02,0,.03,0h0s0,0,.03.01l.14.06c.38.15.76.28,1.12.42.37.12.73.24,1.08.35.35.11.69.21,1.03.31,1.33.38,2.51.65,3.48.86.98.2,1.75.34,2.28.43.53.09.82.12.82.12,0,0,0,0,0,0h0c-1.77-.68-3.56-1.38-5.31-2.07Z" fill="#fff"/>
  <path d="M324.89,403.94c1.73.79,3.32,1.3,4.66,1.59,1.01.22,1.87.31,2.55.33.23,0,.43,0,.62,0h0c.18,0,.35,0,.49-.02.14-.02.26-.03.35-.04.09-.01.17-.02.21-.02.05,0,.07,0,.07,0-.77-.02-1.53-.13-2.26-.29-.73-.18-1.45-.39-2.15-.66-.7-.26-1.38-.55-2.04-.87-.66-.32-1.31-.67-1.94-1.03-1.26-.73-2.47-1.53-3.62-2.37-1.15-.84-2.23-1.73-3.28-2.63-2.08-1.82-3.94-3.72-5.61-5.61-1.67-1.89-3.14-3.77-4.44-5.55-1.29-1.78-2.4-3.48-3.36-4.99-.39-.64-.76-1.24-1.1-1.81-.34-.57-.65-1.1-.94-1.6.38.63.79,1.24,1.21,1.83.42.59.85,1.17,1.3,1.72.43.52.86,1.03,1.3,1.53.45.48.88.96,1.32,1.4.45.44.89.87,1.32,1.28.44.39.88.77,1.29,1.13.1.09.21.18.31.27.11.08.21.17.32.25.21.16.41.32.61.48.2.15.39.31.58.45.1.07.19.14.28.22.1.07.19.13.28.2.37.26.72.5,1.04.72.32.22.62.43.9.59,1.12.68,1.77,1.05,1.77,1.05-2.2-1.98-4.29-3.96-6.19-5.86-.95-.95-1.84-1.88-2.68-2.77-.84-.89-1.61-1.74-2.32-2.54-.35-.4-.69-.78-1-1.15-.32-.37-.61-.72-.89-1.05-.55-.67-1.03-1.25-1.41-1.74-.77-.98-1.18-1.56-1.18-1.56,0,0,0,0,0,0h0c.22.52.45,1.03.71,1.53-.01-.02-.03-.05-.04-.07-.24-.44-.43-.82-.6-1.13-.33-.61-.5-.93-.5-.93.44,1.37.93,2.74,1.48,4.09,1.09,2.7,2.39,5.32,3.86,7.79.74,1.24,1.52,2.43,2.33,3.58,1.63,2.3,3.41,4.41,5.25,6.27,1.84,1.87,3.76,3.48,5.65,4.82,1.88,1.35,3.75,2.4,5.48,3.19Z" fill="#fff"/>
  <path d="M328.21,327.67l.03-.23v-.12s.02-.03.02-.09h0s0-.11-.02-.17c-.03-.12-.09-.24-.17-.33-.08-.09-.18-.16-.28-.2-.1-.04-.21-.06-.33-.05h0c-.11,0-.24.04-.35.11-.11.07-.2.16-.26.26-.03.05-.05.09-.07.14v.03s-.02.03-.02.03l-.04.11-.08.22c-.1.29-.21.58-.31.87-.43,1.15-.89,2.27-1.37,3.37-.47,1.1-.96,2.17-1.43,3.22-.48,1.04-.96,2.06-1.42,3.05-.47.98-.92,1.94-1.36,2.85-1.77,3.66-3.29,6.74-4.35,8.9-1.06,2.16-1.68,3.42-1.68,3.42,3.11-4.51,5.88-9.17,8.23-13.66,1.17-2.25,2.22-4.45,3.13-6.58.2-.48.39-.95.58-1.41-.04.74-.08,1.45-.11,2.12-.07,1.34-.11,2.53-.15,3.55-.09,2.54-.1,4-.1,4,0,0,0,0,0,0h0c.44-2.54.83-5.12,1.19-7.68.18-1.28.34-2.55.5-3.82.08-.63.15-1.26.23-1.89Z" fill="#fff"/>
  <path d="M331.12,413.28c.95.09,1.51.09,1.51.09-2.01-.85-3.98-1.6-5.81-2.26-.92-.33-1.8-.64-2.62-.95-.83-.3-1.6-.59-2.31-.88-.71-.28-1.35-.56-1.92-.82-.56-.27-1.05-.52-1.43-.75-.1-.06-.19-.11-.28-.16-.08-.06-.16-.11-.24-.15-.07-.05-.14-.09-.21-.13-.06-.04-.12-.08-.17-.12-.2-.14-.31-.22-.31-.22.53.89,1.29,1.67,2.11,2.31.83.64,1.72,1.18,2.62,1.62,1.8.89,3.61,1.44,5.18,1.8,1.18.27,2.24.44,3.09.54.29.03.55.06.79.08Z" fill="#fff"/>
  <path d="M327.69,345.71c-1.54,1.58-2.97,3.12-4.33,4.53-1.35,1.41-2.61,2.7-3.72,3.78-.55.54-1.07,1.04-1.53,1.47-.46.44-.87.81-1.21,1.12-.34.31-.61.55-.8.71-.19.16-.29.25-.29.25.99-.32,1.93-.79,2.83-1.32.9-.52,1.73-1.14,2.51-1.77,1.54-1.28,2.82-2.7,3.79-4.02.25-.32.46-.66.67-.96.21-.31.41-.6.57-.9.17-.29.32-.56.47-.81.14-.25.27-.48.38-.7.42-.87.64-1.38.64-1.38Z" fill="#fff"/>
  <path d="M320.95,383.39h0s0,0,0,0c0,0,0,0,.02,0,.23-.07.46-.13.69-.19.45-.13.87-.26,1.27-.39.8-.26,1.49-.51,2.07-.73.57-.22,1.02-.41,1.33-.54.31-.13.47-.21.47-.21h0c-1.18.03-2.36.12-3.51.27-.58.07-1.15.16-1.71.25-.28.05-.56.1-.83.15l-.1.02-.2.04c-.13.03-.27.06-.4.08-.27.06-.54.11-.81.17-.31.08-.46.22-.57.34-.09.12-.15.18-.21.41-.06.21-.02.47.02.56.02.06.05.12.09.18l.07.1s.07.07.1.11c.07.07.18.15.31.21.14.06.28.12.41.18.27.12.54.23.81.35l.15.06.1.04c.07.03.14.05.2.08.13.05.27.1.4.16,1.05.41,2.01.74,2.82,1.01.81.27,1.47.46,1.93.6.46.13.72.2.72.2h0c-.69-.52-1.39-.99-2.09-1.44-.7-.45-1.41-.86-2.11-1.24-.35-.19-.7-.37-1.04-.55-.09-.04-.17-.09-.26-.13l-.13-.06h0s0-.02,0-.02c0,0,.01,0,0,0,0,0-.02,0-.02-.02,0,0,0,0,0-.02,0,0,0,0,0,0Z" fill="#fff"/>
  <path d="M327.28,558.3c-.94-2.01-1.85-3.99-2.7-5.91-1.71-3.83-3.19-7.43-4.35-10.54-1.16-3.11-2.01-5.74-2.54-7.6-.07-.23-.13-.45-.19-.66-.06-.21-.11-.4-.16-.58-.1-.36-.17-.67-.24-.93-.12-.5-.18-.78-.18-.78.03.54.08,1.08.15,1.62l.11.81.13.81c.18,1.07.4,2.14.65,3.2.33,1.4.72,2.76,1.14,4.1.21.69.42,1.39.66,2.06.22.63.45,1.23.68,1.83.5,1.32,1.01,2.61,1.54,3.83.78,1.78,1.58,3.45,2.35,4.97.2.38.38.72.58,1.09.58,1.09,1.13,2.12,1.67,3.03.71,1.21,1.32,2.27,1.87,3.12.54.85.98,1.52,1.27,1.98.3.46.46.7.46.7,0,0,0,0,0,0h0c-.99-2.07-1.96-4.12-2.9-6.13Z" fill="#fff"/>
  <path d="M322.68,359.99c-2.25.93-3.92,2.22-4.79,2.98-.43.38-.66.62-.66.62,5.11-.85,9.23-4.62,9.23-4.62-1.38.17-2.65.55-3.77,1.01Z" fill="#fff"/>
  <path d="M334.62,431.5l-.07-.1-.11-.12s-.05-.04-.08-.07c-.03-.02-.05-.04-.1-.07-.04-.02-.08-.04-.13-.06l-.09-.03s-.06-.02-.11-.02c-.04,0-.08,0-.13-.01h-.16s-.31,0-.31,0c-.85,0-1.69,0-2.51-.01-.46,0-.92,0-1.37,0-.41,0-.81,0-1.21,0-.8,0-1.57.02-2.32.05-.75.02-1.47.05-2.16.07-5.54.23-9.19.7-9.19.7,3.57.38,7.21.57,10.66.64,1.73.04,3.41.04,5.01.03.1,0,.2,0,.3,0,.04,0,.03,0,.03,0h0s0,0,0,0c0,0,.01,0,.02,0,.02,0,.05-.01.09-.02.04,0,.1-.02.18-.03.04,0,.09,0,.11.02.02.02.01.01.02.02,0,.02-.05.07-.15.14-.03.02-.06.04-.09.05l-.05.03-.03.02s0,0-.06.03c-.28.12-.56.23-.83.34-1.07.44-2.01.83-2.78,1.16-.39.16-.73.31-1.03.44-.9.39-1.39.62-1.39.62,0,0,0,0,0,0h0c1.86-.4,3.7-.85,5.48-1.33.22-.06.45-.12.67-.18l.17-.05.08-.02.14-.04c.19-.06.38-.12.57-.18.39-.12.79-.25,1.18-.37.2-.06.4-.13.61-.19.2-.06.43-.13.56-.2.13-.07.22-.14.3-.2.07-.06.12-.12.17-.17.1-.11.14-.18.2-.26.02-.04.04-.04.05-.17,0-.12-.04-.28-.07-.34-.03-.05-.03-.06-.06-.1Z" fill="#fff"/>
  <path d="M382.12,386.24c-.39-.75-.82-1.43-1.24-2.04-.84-1.21-1.67-2.14-2.28-2.76-.61-.62-1-.95-1-.95,0,.01.01.03.02.04-.02-.02-.04-.04-.05-.05-.09-.09-.14-.14-.14-.14.13.17.25.36.36.54.15.32.3.63.45.95.16.41.3.84.41,1.27.25.96.4,1.94.49,2.91.09.97.13,1.94.12,2.89-.01.95-.07,1.89-.17,2.8-.08.77-.21,1.51-.35,2.24-.2,1-.43,1.98-.74,2.88-.27.78-.58,1.52-.94,2.2-.36.68-.76,1.31-1.2,1.86-.87,1.12-1.91,1.94-2.94,2.46-.52.26-1.03.45-1.51.6-.25.06-.48.13-.71.17-.11.02-.23.05-.34.07-.11.02-.22.03-.32.05-.84.12-1.52.12-1.99.12-.46-.02-.71-.03-.71-.03.94.23,1.92.35,2.91.32.25,0,.5-.03.75-.05.25-.04.5-.06.74-.12.49-.09.98-.24,1.45-.42.47-.18.92-.41,1.36-.67.43-.27.84-.57,1.22-.89.38-.33.73-.69,1.05-1.07.32-.38.61-.77.88-1.18.8-1.23,1.35-2.55,1.75-3.86.13-.44.24-.87.34-1.3.39-1.73.53-3.41.53-4.96,0-2.14-.29-4.03-.7-5.55.17.33.33.65.49.97.79,1.56,1.49,3,1.97,4.26.24.63.41,1.22.51,1.76.06.27.08.52.12.76,0,.23.03.45.02.64,0,0,0,.01,0,.02,0,.1,0,.2-.01.29,0,.09-.02.17-.04.25-.01.08-.02.15-.03.22,0,.07-.03.13-.04.18-.06.22-.09.34-.09.34.31-.36.57-.79.73-1.26.16-.47.26-.97.27-1.46.05-.99-.12-1.96-.39-2.85-.27-.89-.62-1.71-1.01-2.46Z" fill="#fff"/>
  <path d="M261.53,296.14c-.87,2.07-1.85,3.97-2.75,5.59-.9,1.62-1.71,2.96-2.3,3.9-.29.47-.53.84-.69,1.09-.16.25-.25.38-.25.38.48-.42.93-.86,1.37-1.31.44-.45.85-.92,1.25-1.4.79-.96,1.5-1.95,2.12-2.95,1.25-2,2.13-4.03,2.65-5.83.13-.45.24-.89.33-1.3.18-.83.29-1.59.34-2.24.03-.33.04-.63.04-.9,0-.54-.01-.96-.05-1.25-.03-.28-.04-.44-.04-.44-.38,2.35-1.15,4.59-2.02,6.66Z" fill="#fff"/>
  <path d="M302.78,350.3c.35-1.15.71-2.31,1.08-3.46,1.41-4.45,2.93-8.94,4.57-13.34,0,0-.44,2.84-1.38,7.66-.16.82-.33,1.69-.52,2.62-.19.93-.39,1.91-.61,2.94h0c.5-.62,1.02-1.3,1.58-2.05.56-.75,1.14-1.56,1.76-2.45.62-.89,1.26-1.84,1.93-2.88.34-.52.68-1.05,1.03-1.61.7-1.11,1.42-2.3,2.16-3.57,2.61-4.45,5.51-9.91,8.64-16.59,7.7-16.48,6.73-30.01,4.64-38.33,0,.02,0,.04-.01.06-.02.19-.06.36-.1.53-.04.17-.07.34-.12.5-.05.17-.1.34-.16.5-.05.13-.1.25-.16.37-.28.62-.59,1.1-.86,1.44,0,.01-.02.02-.03.04-.3.37-.53.58-.53.58,0,0,0,0,0,0,0,0,0,0,0,0,.19-2.22-1.99-3.35-2.43-3.49l.17,3.49-2.3-.4-.09,2.48s-.27-.05-.68-.09c0,0,0,0,0,0-.04,0-.1,0-.15-.01,0,0,0,0,0,0-.16-.01-.34-.02-.53-.03,0,0,0,0,0,0-.08,0-.17,0-.26,0h0c-.18,0-.36.01-.55.03h0c-.11,0-.21.02-.32.04,0,0,0,0,0,0-.18.02-.35.06-.53.1,0,0,0,0,0,0-.11.03-.22.06-.33.09,0,0,0,0,0,0-.17.06-.32.13-.48.21,0,0,0,0,0,0-.1.05-.19.1-.28.16,0,0,0,0,0,0-.15.1-.27.24-.39.37-.06.07-.14.14-.19.22,0,.01-.01.04-.02.05.87-.44,3.84-.82,5.57.68,4.62,4.01,5.12,3.61-.7,13.85-2.59,4.55-3.11,5.9-4.81,5.63-.24-.04-.51-.11-.81-.21-.45-.15-1-.5-1.59-.96-.39-.31-.81-.67-1.22-1.07-.42-.39-.84-.81-1.25-1.24-1.85-1.92-3.46-3.95-3.46-3.95-1.32,1.27-2.56,2.33-4.17,3.06-1.61.74-3.58,1.15-6.36,1.15-.81,0-1.56-.06-2.24-.17-4.75-.75-6.3-3.76-6.3-3.76,0,0-.97,1.53-2.49,3.1-.38.39-.79.79-1.23,1.16-1.32,1.13-2.89,2.07-4.53,2.21-.41.03-.84-.02-1.3-.19-1.39-.51-3.07-2.01-5.23-5.04-3.32-4.65-4.25-6.8-3.12-9.31.37-.84.98-1.71,1.8-2.73,1.78-2.22,4.31-1.29,5.18-.87-.02-.09-.02-.16-.04-.24-.05-.26-.09-.5-.12-.74,0-.05-.02-.1-.02-.15,0-.06,0-.1-.01-.15h0c-.02-.24-.04-.44-.04-.63,0,0,0,0,0,0,0-.03,0-.08,0-.12,0-.03,0-.04,0-.07,0-.21,0-.38,0-.5,0,0,0-.02,0-.03,0,0,0,0,0,0,0-.13.01-.21.01-.21,0,0-1.24-.18-3.28,2.04,0,0-1.24-1.8-1.59-5.67-.18.09-.34.21-.47.36-.93,1.06-.77,3.44-.77,3.44,0,0,0,0,0,0h0c-.06-.03-.12-.08-.18-.12,0,0,0,0,0,0-.28-.16-.55-.34-.81-.54,0,0,0,0,0,0-.14-.11-.27-.23-.41-.34,0,0,0,0,0,0-.12-.11-.25-.2-.37-.31-7.36,25.65,16.58,53.85,26.59,64.22-.37-1.47-.74-2.96-1.1-4.47-1.46-6.11-2.81-12.56-3.9-19.14,0,0,.09.24.26.71.51,1.39,1.71,4.78,3.3,9.56.79,2.39,1.68,5.14,2.62,8.15.31,1.01.63,2.04.96,3.11.58,1.89,1.17,3.88,1.77,5.93.19.17.28.26.28.26,0,0,.05-.03.13-.1.27-.21.92-.76,1.91-1.79Z" fill="#fff"/>
  <path d="M370.27,395.62c.69-.82,1.33-1.78,1.83-2.87,1.27-2.74,1.75-6.38.47-11.16l-10.43-19.26-11.37-8.83-5.55.8-1.34,1.2,8.23,4.62,2.21,2.61-17.46-5.42h-2.81l-3.41,2.21.64,4.15,5.78,1.87-5.25.36-2.18,3.86,2.81,4.41,6.22.8-6.84,1.25-1.39,3.97h0s4.16,1.4,4.16,1.4l3.87,1.21-3.95.82-1.48,2.04c-.29.4-.42.87-.4,1.33.02.46.19.92.51,1.29l3.32,3.75,5.42-.4,20.87,8.83h0s2.66-.68,5.32-2.72c.76-.58,1.52-1.28,2.21-2.1Z" fill="#fff"/>
  <path d="M348.14,508.3c.22,1.29.43,2.57.64,3.81.26,1.45.51,2.86.76,4.23.24,1.37.52,2.7.76,4,.13.65.25,1.28.37,1.91.13.62.26,1.24.38,1.84.25,1.21.5,2.37.73,3.49.25,1.12.49,2.19.72,3.21.12.51.23,1.01.34,1.5.12.49.23.96.35,1.42.23.92.44,1.8.64,2.62.2.82.42,1.59.61,2.31.38,1.43.7,2.65,1,3.63.58,1.97.89,3.02.89,3.02-1.01-4.18-1.9-8.38-2.69-12.56-.8-4.18-1.51-8.36-2.17-12.5-1.32-8.28-2.46-16.42-3.48-24.29-2.04-15.74-3.66-30.38-5.01-42.89-1.34-12.51-2.38-22.9-3.1-30.17-.71-7.26-1.11-11.39-1.11-11.39,1.17,32.43,4.54,66.11,8.51,91.51.28,1.82.57,3.58.86,5.31Z" fill="#fff"/>
  <path d="M365.64,727.22c1.09.46,2.17.94,3.22,1.45.52.26,1.03.52,1.53.79.5.28.98.56,1.43.86.45.3.88.62,1.27.96.37.33.7.69.94,1.06,0,0,.01.02.02.03h0s0,0,0,0l1.07-.65s0,0,0,0h0s-.02-.03-.03-.04c-1.07-1.69-2.21-3.13-3.31-4.4-1.11-1.27-2.19-2.33-3.14-3.15-.23-.21-.47-.4-.69-.57-.22-.18-.42-.34-.62-.49-.4-.29-.74-.54-1.03-.73-.59-.37-.91-.57-.91-.57.92.81,1.77,1.67,2.58,2.55.8.89,1.55,1.79,2.27,2.69.48.62.95,1.23,1.4,1.85-.41-.22-.82-.42-1.22-.6-1.57-.7-3.01-1.16-4.21-1.5-1.2-.34-2.17-.55-2.84-.68-.17-.03-.32-.06-.44-.08-.38-.07-.59-.1-.59-.1,0,0,0,0,0,0h0c1.11.42,2.22.86,3.32,1.32Z" fill="#fff"/>
  <path d="M356.31,737.04c4.69,1.2,9.6,2.02,13.32,2.73.47.08.91.18,1.34.26.21.04.42.08.62.12.2.04.4.08.59.12.38.08.74.15,1.07.22.19.05.37.09.54.13-1.99-.02-3.95-.11-5.83-.2-3.91-.19-7.54-.42-10.63-.68-1.55-.13-2.96-.27-4.21-.41-1.25-.14-2.34-.28-3.23-.42-.45-.07-.84-.13-1.19-.19-.35-.06-.64-.11-.88-.15-.48-.09-.73-.14-.73-.14.95.35,1.91.66,2.89.94.98.27,1.97.51,2.96.71.99.21,1.99.39,2.97.54.99.16,1.97.29,2.94.4,1.94.22,3.84.37,5.65.46,1.81.09,3.53.12,5.13.1h0c.8,0,1.57-.03,2.3-.06.73-.03,1.43-.07,2.08-.13.33-.03.65-.06.96-.1.15-.02.31-.05.46-.07.07,0,.15-.03.23-.04l.11-.02s.06-.01.1-.02c0,0,0,0,0,0,0,0,0,0,0,0,.02,0,.03,0,.05-.01l.15-.04.07-.02h.04s.01-.03.02-.04c.05-.09.11-.17.16-.26.07-.12.14-.24.21-.35.13-.22.26-.44.38-.64.96-1.62,1.5-2.57,1.5-2.57-.67.83-1.33,1.67-1.98,2.51-.16.21-.32.42-.48.63l-.06.08s-.03.03-.04.05l-.04.04s-.02.04-.04.03h-.11s-.16.03-.16.03c-.21.02-.42.03-.64.03-.24-.13-.48-.25-.73-.36-.29-.13-.58-.27-.88-.39-.3-.11-.59-.23-.88-.34-.59-.22-1.18-.42-1.77-.6-.59-.18-1.17-.34-1.75-.49-1.15-.29-2.27-.52-3.34-.7-1.07-.18-2.08-.31-3.01-.42-.47-.05-.91-.09-1.34-.13-1.28-.11-2.36-.15-3.17-.17-1.09-.02-1.71,0-1.71,0Z" fill="#fff"/>
  <path d="M289.41,365.01l-.11-.14-.13-.13c-.09-.09-.17-.17-.25-.26-.34-.36-.71-.65-1.09-.95-.38-.29-.77-.55-1.16-.81-.39-.24-.79-.47-1.18-.68-1.58-.83-3.13-1.39-4.47-1.78-1.35-.39-2.5-.6-3.31-.72-.81-.12-1.28-.15-1.28-.15,3.16,1.82,6.58,3.15,9.16,4.21,1.29.53,2.37.98,3.1,1.37.09.05.18.09.26.13.04.02.08.04.12.06.04.02.07.04.11.06.14.08.26.15.36.21.2.11.3.17.3.17-.14-.19-.29-.39-.44-.58Z" fill="#fff"/>
  <path d="M288.6,392.31c-1.15-.37-2.39-.49-3.57-.37-1.58.16-3,.74-4.08,1.43-1.08.69-1.84,1.47-2.3,2.05-.23.29-.4.54-.5.71-.05.09-.09.15-.12.2-.03.05-.04.07-.04.07.26-.17.53-.33.79-.48,0,.06,0,.13.02.19.01.05.04.1.06.14.02.05.03.1.05.14.1.18.24.33.42.45.09.06.19.11.29.16l.16.06.08.03.07.02c.19.06.31.09.44.12.13.03.25.05.37.07.24.03.48.06.71.07.45.02.87.03,1.29.04.42,0,.82,0,1.21-.01,1.55-.05,2.86-.21,3.77-.42.23-.05.43-.1.61-.16.18-.05.32-.1.44-.15.12-.04.21-.09.27-.12.03-.01.05-.03.07-.04.02-.01.03-.02.03-.02-.15.03-.27.03-.4.03-.13,0-.26,0-.39,0-.26-.01-.51-.03-.77-.06-.51-.04-1.01-.1-1.5-.16-.99-.11-1.96-.21-2.89-.3-.47-.04-.93-.08-1.38-.11-.44-.03-.85-.07-1.2-.14l-.11-.02h-.03s-.02-.01-.02-.01c0,0,0,0-.02,0-.01,0-.03,0-.04-.02-.01-.01-.01-.03,0-.06-.01,0,.14-.17.26-.27.43-.38.9-.72,1.33-1.02.06-.03.13-.05.19-.08.66-.26,1.3-.48,1.92-.66.62-.18,1.21-.32,1.76-.43.56-.11,1.08-.19,1.55-.25.47-.06.89-.09,1.23-.12.35-.03.62-.04.81-.05.19-.01.29-.02.29-.02-.36-.17-.73-.32-1.11-.44Z" fill="#fff"/>
  <path d="M268.74,463.17c-.98-.07-1.96-.12-2.92-.16-.48-.02-.96-.03-1.44-.05h-.36s-.04-.01-.04-.01h0s0,0,0,0h0s0-.01,0-.02c0-.01.01-.02.01-.02.02-.27.05-.53.07-.79.05-.59.09-1.18.13-1.75.08-1.14.14-2.25.19-3.3.12-1.54.24-3.08.36-4.61.12-1.57.22-3.14.32-4.7.21-3.11.41-6.19.61-9.22.33-6.06.69-11.95.92-17.65.06-1.42.13-2.84.19-4.23.03-.7.06-1.4.09-2.09.02-.69.05-1.38.07-2.07.09-2.75.19-5.44.28-8.08.05-1.32.08-2.62.11-3.91.03-1.29.06-2.57.1-3.83.03-1.26.06-2.51.09-3.74.03-1.23.04-2.45.06-3.65.04-2.4.07-4.74.11-7.01.02-2.27.03-4.48.05-6.61,0-1.07.01-2.12.02-3.15h0c0-1.03,0-2.05,0-3.04,0-1.99,0-3.91,0-5.76-.01-1.84-.03-3.61-.04-5.3-.02-1.69-.03-3.3-.06-4.83-.03-2.28-.07-4.37-.11-6.27-.01-.65-.03-1.28-.04-1.88-.06-2.37-.12-4.38-.17-6.02-.01-.41-.03-.79-.04-1.15-.02-.72-.05-1.34-.07-1.86-.01-.26-.02-.5-.03-.71,0-.21-.02-.4-.02-.55-.02-.48-.03-.72-.03-.72h0s0,0,0,0c0,6.79-.05,13.62-.14,20.45-.64,47.8-3.4,95.74-7.18,133.16-.26,2.67-.52,5.3-.76,7.86-.5,5.13-.98,10.03-1.43,14.68-.45,4.65-.88,9.04-1.28,13.14-.6,6.15-1.13,11.66-1.6,16.41-.61,6.34-1.07,11.34-1.38,14.75-.15,1.71-.26,3.02-.33,3.91-.02.22-.03.42-.04.58-.01.17-.02.31-.03.42,0,.11,0,.2,0,.26,0,.03,0,.07,0,.09,0,.02,0,.03,0,.03h0s0-.08,0-.12v-.09c0-.06.01-.11.02-.17l.03-.34.07-.67.15-1.34c.11-.89.22-1.79.32-2.68.22-1.78.44-3.57.66-5.35.44-3.56.88-7.12,1.32-10.66.87-7.09,1.73-14.14,2.55-21.12,1.65-13.97,3.2-27.67,4.54-40.92.33-3.31.65-6.6.94-9.85.07-.72.13-1.45.19-2.17.04,0,.07,0,.11,0h.21s.16-.01.16-.01c.41-.02.82-.04,1.22-.06.79-.04,1.55-.09,2.25-.14,1.42-.1,2.66-.22,3.69-.33s1.84-.21,2.4-.29c.56-.08.85-.12.85-.12h0,0c-1.96-.26-3.95-.45-5.91-.59Z" fill="#fff"/>
  <path d="M278.85,429.07c-.15.14-.22.21-.22.21,1.65-.47,3.16-1.13,4.51-1.86,2.02-1.09,3.65-2.33,4.78-3.3,1.13-.97,1.75-1.66,1.75-1.66,0,0,0,0,0,0h0c-5.34,1.73-9.78,5.66-10.81,6.61Z" fill="#fff"/>
  <path d="M286.48,407.9c-.52.03-1.04-.02-1.56-.09-.52-.07-1.03-.17-1.52-.26-.49-.1-.97-.2-1.41-.29-.89-.19-1.66-.35-2.21-.47-.54-.11-.87-.17-.87-.17,1.84,1.93,4.43,2.79,6.46,2.56,1.01-.11,1.83-.54,2.22-.98.05-.05.1-.1.14-.15.04-.05.07-.1.1-.15.03-.05.06-.09.08-.13.02-.04.04-.08.05-.12.06-.14.09-.21.09-.21-.39.25-.78.35-1.17.41-.13.02-.26.06-.39.06Z" fill="#fff"/>
  <path d="M294.45,443.73c-.62.34-1.25.66-1.86.96-1.25.61-2.42,1.17-3.44,1.67-1.03.5-1.9.94-2.51,1.26-.61.32-.97.51-.97.51,3.24.05,6.23-1.17,8.12-2.59.95-.7,1.62-1.46,1.99-2.04.05-.07.09-.14.13-.21.04-.07.07-.13.1-.19.06-.12.11-.22.15-.3.07-.17.1-.26.1-.26-.29.24-.59.45-.89.64-.3.19-.61.37-.92.55Z" fill="#fff"/>
  <path d="M280.88,372.62c1.36.49,2.71.94,4.04,1.36.17.05.33.1.5.15l.06.02h.03s0,0,0,0h0s0,0,0,0c0,0,0,0,0,0-.01,0,0,0,.02,0,.02,0,.04.01.02.03,0,0-.01.01-.02.02h-.02c-.07.03-.14.04-.22.06-.29.07-.57.13-.85.2-1.11.26-2.12.52-3.02.76-2.7.71-4.38,1.25-4.38,1.25,1.54-.06,3.06-.18,4.54-.33.74-.08,1.47-.17,2.19-.26.36-.05.72-.1,1.07-.15.18-.03.35-.05.53-.08l.26-.04.13-.02.25-.04c.69-.12,1.37-.25,2.04-.37.33-.06.75-.11.86-.22l.1-.07.07-.07c.05-.05.07-.09.1-.13.02-.04.04-.08.05-.11.01-.03.02-.06.03-.1,0-.02,0-.03.01-.05,0-.02,0-.02,0-.05,0,0,0,0,0,0,0-.04,0-.11,0-.12h0s0-.04,0-.04c-.02-.12-.05-.26-.23-.47l-.09-.08s-.08-.05-.12-.08c-.02-.01-.06-.02-.08-.04-.03-.01-.06-.02-.1-.03l-.23-.06c-.31-.08-.61-.16-.91-.25-.57-.15-1.13-.3-1.69-.45-.58-.14-1.15-.28-1.69-.4-1.09-.25-2.09-.45-2.98-.63-.89-.17-1.67-.31-2.31-.41-1.28-.21-2.02-.3-2.02-.3,0,0,0,0,0,0h0c1.33.57,2.68,1.11,4.04,1.6Z" fill="#fff"/>
  <path d="M248.33,747.46c-1.12,0-2.14-.02-3.05-.06-.91-.04-1.69-.1-2.34-.17-.32-.05-.61-.08-.86-.12-.25-.05-.46-.08-.63-.12-.17-.04-.3-.07-.39-.09-.09-.02-.13-.03-.13-.03.65.35,1.36.6,2.07.81.72.21,1.44.36,2.17.49,1.46.25,2.91.38,4.33.46,2.13.1,4.17.07,6.03-.03.62-.03,1.22-.07,1.79-.12,2.3-.18,4.23-.43,5.59-.64,1.35-.2,2.13-.36,2.13-.36-6.21-.21-12.21,0-16.7,0Z" fill="#fff"/>
  <path d="M245.52,744.41c-.52.08-.99.17-1.4.26-.41.09-.77.19-1.06.28-.29.09-.52.17-.67.22-.15.06-.24.09-.24.09,2.03.25,4.06.26,5.82.2.59-.02,1.15-.04,1.67-.06,1.03-.04,1.91-.08,2.54-.11.31,0,.56-.02.73-.02.17,0,.26-.01.26-.01-1.32-.62-2.75-.9-4.07-1-1.32-.1-2.54,0-3.58.14Z" fill="#fff"/>
  <path d="M241.93,733.32c.46-.16.91-.31,1.35-.45,1.75-.56,3.33-.96,4.65-1.23,1.32-.27,2.38-.41,3.11-.49.73-.07,1.13-.1,1.13-.1-2.63-.23-5.3.03-7.85.53-1.28.25-2.53.57-3.75.94-.05.02-.04.01-.05.01h-.02s-.04,0-.04,0h-.06s-.06,0-.07,0c0,0-.02,0-.02-.02,0-.02,0-.04.03-.05.03-.03.06-.05.08-.06.02-.01.03-.02.04-.02h.01s.04-.05.08-.08l.12-.12c.31-.31.63-.61.94-.91.32-.29.64-.58.95-.87.32-.28.64-.56.96-.83,1.28-1.08,2.56-2.06,3.8-2.96.31-.23.63-.43.93-.65.15-.1.3-.21.46-.31.15-.11.3-.21.46-.31.31-.2.61-.39.9-.58.3-.19.58-.39.88-.56.59-.35,1.14-.7,1.69-1.01.55-.31,1.08-.61,1.59-.89,2.04-1.09,3.73-1.9,4.91-2.43,1.19-.52,1.84-.82,1.84-.82-.55.15-1.1.3-1.64.45l-.82.23-.81.27c-.54.18-1.09.36-1.62.56-.53.21-1.07.42-1.6.63-2.11.88-4.16,1.9-6.07,3.05-1.91,1.16-3.7,2.42-5.33,3.76-.41.33-.8.68-1.19,1.02-.39.33-.76.69-1.13,1.04-.37.35-.72.7-1.06,1.05-.09.09-.17.18-.26.27-.16.17-.33.34-.47.5-.31.33-.59.66-.87.99l-.14.25-.03.06s-.03.05-.02.06v.08c-.01.1-.02.21-.03.31,0,.05-.02.11,0,.15.01.05.04.13.08.2.04.08.1.15.16.2.06.05.11.09.15.1.08.03.17.05.25.07.03,0,.03.02.07.01h.12s.24-.03.24-.03l.24-.02s.04,0,.06,0l.09-.03.18-.07c.23-.09.46-.18.69-.27.23-.09.45-.17.66-.25.13-.05.26-.1.38-.14.24-.08.47-.17.7-.25Z" fill="#fff"/>
  <path d="M287.66,368.54c.08.03.15.06.22.1.07.03.13.06.19.09.12.06.22.11.31.15.17.08.26.12.26.12-.46-.65-1.02-1.26-1.63-1.74-.3-.26-.62-.48-.93-.69-.31-.22-.64-.4-.96-.58-1.29-.71-2.57-1.15-3.68-1.44-1.12-.29-2.07-.43-2.74-.49-.34-.03-.6-.05-.78-.05-.18,0-.28,0-.28,0,2.57,1.57,5.34,2.64,7.46,3.48,1.05.42,1.95.78,2.57,1.06Z" fill="#fff"/>
  <path d="M283.3,419.74c1.02-.51,1.93-1.03,2.7-1.51,1.8-1.11,2.86-2,2.86-2h0,0c-.85.19-1.69.42-2.51.69-3.27,1.07-6.18,2.66-8.07,3.82-.24.15-.46.28-.66.41-.61.39-1.07.71-1.33.9-.18.13-.27.2-.27.2,1.83-.34,3.55-.89,5.1-1.52.77-.31,1.5-.65,2.19-.99Z" fill="#fff"/>
  <path d="M287.45,436.03c.42-.02.8-.04,1.12-.05.33-.03.6-.05.83-.07.45-.04.69-.07.69-.07-1.9-.2-3.76-.43-5.55-.8-.89-.17-1.76-.4-2.59-.65-.42-.13-.82-.27-1.21-.43l-.29-.12-.07-.03h-.02s-.03-.03-.03-.03c-.02-.01-.04-.03-.05-.03,0,0,0,0,0-.01,0-.02,0-.02.01-.03.01,0,.04,0,.04,0,0,0,0,0,0,0,.37,0,.74,0,1.1,0,.82,0,1.62-.03,2.39-.05.72-.02,1.42-.04,2.09-.07,2.08-.09,3.89-.21,5.34-.32,2.42-.19,3.85-.37,3.85-.37-3.57-.38-7.2-.57-10.66-.64-.86-.02-1.72-.03-2.55-.03-1.14,0-2.26,0-3.35,0-.19,0-.41,0-.53.04-.07.02-.11.04-.17.07-.04.03-.09.05-.12.08-.14.11-.19.2-.25.28-.03.04-.09.18-.11.3-.02.13,0,.17,0,.25,0,.07.05.15.07.23,0,.04.03.08.07.12.04.04.08.09.11.13l.11.13s.11.09.17.13c.12.09.24.17.35.26.14.08.29.17.43.25l.21.12.11.06.11.05c.15.07.29.13.44.19l.22.1.11.05.07.02c.18.06.36.12.53.18.71.22,1.39.37,2.05.48.66.11,1.28.18,1.87.23.15.01.29.02.43.03.14,0,.28.01.42.02.27,0,.54.02.79.03.51,0,.98,0,1.4-.01Z" fill="#fff"/>
  <path d="M285.5,355.57l-.05-.02-.16-.06c-.11-.04-.23-.09-.34-.13-.45-.18-.89-.35-1.31-.53-1.7-.71-3.16-1.41-4.34-2.06-1.18-.65-2.09-1.22-2.68-1.66-.15-.1-.28-.2-.39-.29-.11-.09-.21-.16-.28-.22-.15-.12-.23-.18-.23-.18.87.99,1.89,1.87,2.96,2.65,1.07.78,2.19,1.48,3.32,2.12.57.32,1.14.62,1.72.9.29.14.58.28.86.42l.22.1.11.05s.06.03.13.06c.25.11.5.21.75.32l.38.16.4.16.4.16.2.08.1.04s.03,0,.04,0h.03s0,0,0,0c.16,0,.31,0,.47,0,.1,0,.11-.02.16-.03l.12-.05s.07-.03.13-.09c.06-.05.13-.14.17-.22.02-.04.04-.08.05-.1.01-.03.01-.04.02-.06l.02-.11s0-.03,0-.06v-.08s-.01-.17-.01-.17v-.04s0-.01,0-.02l-.02-.03-.07-.13-.14-.27c-.27-.3-.54-.6-.81-.9-.25-.28-.49-.55-.73-.82-.27-.31-.54-.62-.81-.93-.52-.6-1.02-1.19-1.52-1.76-.99-1.16-1.93-2.27-2.82-3.34-.88-1.07-1.7-2.09-2.45-3.06-.75-.97-1.43-1.88-2.03-2.72-.6-.84-1.11-1.62-1.54-2.32-.22-.35-.4-.68-.58-.98-.16-.31-.33-.59-.45-.85-.13-.26-.24-.49-.33-.69-.09-.2-.17-.37-.22-.52-.11-.28-.17-.43-.17-.43.17,1,.5,1.98.88,2.93.39.95.84,1.87,1.33,2.77.49.9,1.01,1.77,1.56,2.62s1.11,1.68,1.69,2.49c1.16,1.61,2.36,3.15,3.57,4.59.6.72,1.21,1.42,1.81,2.1.3.34.6.67.9,1l.03.03h0s.01.02.01.02l.03.03.05.05.04.02.07.05s.03.02.04.04c.01.02.01.04,0,.04-.02,0-.06,0-.12,0-.02,0-.1-.03-.17-.04Z" fill="#fff"/>
  <path d="M288.04,351.12c-.62-.9-1.22-1.8-1.79-2.71-1.14-1.81-2.21-3.62-3.22-5.38-1.01-1.76-1.97-3.46-2.88-5.08-.91-1.62-1.75-3.15-2.54-4.56-.79-1.41-1.51-2.7-2.14-3.84-.64-1.14-1.19-2.14-1.65-2.96-.23-.41-.44-.77-.62-1.09-.54-.95-.84-1.48-.84-1.48,2.7,7.93,6.74,15.7,10.44,21.22.92,1.38,1.83,2.62,2.67,3.69.42.54.83,1.03,1.21,1.48.2.22.39.43.57.64.18.2.35.4.53.57.34.36.64.68.93.94.28.26.51.49.72.66.4.34.62.53.62.53-.72-.85-1.37-1.74-2-2.63Z" fill="#fff"/>
  <path d="M281.34,384.17c1.34-.32,2.57-.59,3.65-.81,1.08-.2,2-.36,2.66-.47.49-.07.84-.14.98-.16.05,0,.07-.01.07-.01,0,0,0,0,0,0h0c-.71-.27-1.45-.45-2.21-.55-.75-.1-1.51-.12-2.24-.07-1.47.1-2.83.5-3.93.98-1.1.48-1.94,1.05-2.49,1.5-.28.22-.48.41-.62.55-.14.14-.2.21-.2.21.77-.26,1.52-.44,2.24-.64.72-.2,1.42-.36,2.09-.53Z" fill="#fff"/>
  <path d="M420.99,415.06l-1.61-9.23v-.06s-.02-.06-.02-.06c-.44-2.11-1.13-6.06-1.13-7.67,0-1.93-1.01-4.18-6.16-9.97-2.01-2.26-3.99-4.31-4.88-5.21-2.07-4.6-15.35-34.39-17.3-46.61-2.05-12.89-2.35-15.58-2.38-15.81l-.05-.61-.25-.53-.71-1.62,1.03-2.05.38-.75.02-.84c0-.12.05-2.89-.24-6.42-.02-.23-.04-.46-.06-.69l-.09-.88c-.44-4.18-1.23-7.56-2.35-10.06l-.52-1.16-1.12-.6-43.88-23.45-.41-.99-.39-.95c.15.07.3.15.46.24l3.07,1.74,1.89-2.98c.42-.66,2.46-4.13,1.47-7.71-.07-.25-.15-.5-.25-.74.29-.4.54-.82.75-1.26.6-1.29.72-2.5.75-3.42l3.78-2.09-2.7-4.44.52.26.89-4.88c.64-3.54.44-6.5.29-8.67,0-.14-.02-.29-.03-.45,2.23-.42,4.45-1.67,6.29-3.57,2.28-2.36,3.69-5.41,3.96-8.59.15-1.68.84-3.8,1.79-6.72,1.51-4.63,3.58-10.96,5.37-21.09.7-3.97.77-9.34-.89-13.3,4.42-1.73,7.9-3.76,10.57-6.13,4.05-3.61,6.1-7.97,6.1-12.96,0-3.39-2.85-6.38-8.47-8.87-4.92-2.19-11.9-4.02-20.78-5.46.02-6.95.33-17.19,1.46-30.37,1.56-18.18,4.3-37.49,8.14-57.37.6-3.13.35-6.19-.73-8.85-1.23-3.05-3.53-5.37-6.46-6.55-5.79-2.32-13.19-4.28-21.41-5.68-10.64-1.81-22.79-2.75-36.1-2.76h-.43c-14.43.02-27.46,1.11-38.71,3.23-10.68,2.02-17.52,4.55-21.37,6.32-4.32,1.98-6.46,6.9-5.34,12.23,4.28,20.33,7.19,39.96,8.66,58.35,1.07,13.41,1.17,23.77,1,30.78-9.99,1.42-17.92,3.32-23.59,5.64-2.84,1.16-5.07,2.42-6.64,3.76-2.51,2.13-3.03,4.23-3.03,5.61,0,4.87,1.95,9.14,5.81,12.69,2.83,2.61,6.64,4.81,11.57,6.67-1.05.8-2.03,1.83-2.79,3.15-2.01,3.48-1.94,7.91.2,13.17.75,1.84,1.45,3.56,2.1,5.16,4.88,11.96,7.1,17.42,7.87,21.53.56,3.03,2.23,5.87,4.68,8,1.93,1.67,4.21,2.76,6.45,3.11.59.66,1.27,1.24,2.03,1.73.32.21.66.4,1.01.57-.68,1.88-1.13,4.14-.74,6.49.35,2.11,1.53,5.12,5.17,7.47l.74.48c-.23,1.11-.65,2.07-1.22,2.81l-2.19,2.83,2.75,2.29c.35.3,1.52,1.14,3.44,1.43-.17.61-.56,1.25-1.15,1.92l-5.27,5.86,5.54.24-5.99,7.25s-1.21,2.09-1.32,2.2l-1.43,1.32.28,1.93.28,1.93c-1.19.61-3.34,1.6-7.11,2.99-6.44,2.38-16.35,7.34-22.14,10.33l-3.03,1.58c-.9.47-1.47.78-1.58.84l-1.56.84-.34,1.74c-.22,1.15-5.46,28.32-7.25,40.71-1.37,9.43-6.93,34.49-9.91,47.96-.93,4.2-1.61,7.24-1.89,8.61-1.12,5.42-1.53,10.75-1.28,16.76l.05,1.18.73.94c.11.15,2.85,3.67,6.13,7.53,6.24,7.35,8.74,9.17,10.07,9.91l1.15.63.34-.06v.02l1.98,1.05c1.81.96,17.76,9.37,21.46,10.81,1.62.63,4.49,1.51,5.18,1.72-4.22,29.86-14.05,98.79-15.89,106.76-2.5,10.81-3.75,16.24-3.29,21.05l.19,2,1.77.94c3.01,1.59,18.14,9.57,20.22,10.4l1.26.51,1.29-.43,1.4-.47c.41,7.86.85,17.4.74,19.18-.16,2.5-1.62,12.34-2.17,15.92l-.06.39.02.39c0,.09-.12,10.84-.12,10.84-.16,2.09-.25,3.7-.32,5.21v.03s0,.03,0,.03c-.02.85-.04,1.72-.05,2.6h0s0,.6,0,.6v.67c-.01.36,0,.7,0,1.01,0,.13,0,.25,0,.38v.02s0,.02,0,.02l.08,2.53v.03s0,.03,0,.03c.03.67.08,1.31.13,1.93.02.22.03.44.05.66h0s0,.03,0,.03c0,.12.02.23.03.35.02.3.05.62.08.94v.04s0,.04,0,.04l.05.46.09.77h0s0,.03,0,.03c.02.18.04.36.06.54.08.65.16,1.32.28,2.03.09.59.2,1.18.31,1.78-.52,5.6-1.26,11.64-1.27,11.71v.02s0,.02,0,.02c-.03.3-.83,7.37-.62,13,.04,1.07.06,1.94.08,2.71.08,3.12.12,4.54.97,9.6.69,4.17-1.54,12.13-2.46,14.85l-.39,1.14-.71.91c-.79.81-1.29,1.45-1.61,2.05l-3.91,9.43c-2.24,4.01-3.22,7.54-3.28,7.75l-.13.48v.5c0,.4.07,1.96.95,5.03.11.39.23.77.36,1.14l-.93,4.92-.28,1.75-.73,1.07,2.55,2.17,4.01,3.41.86.73,1.12.13c.37.04,9.04,1.05,16.87,1.05,2.2,0,4.15-.08,5.8-.24,8.3-.81,27.99-4.5,28.82-4.66l3.03-.57v-3.08c0-.18,0-.97-.06-2.03l-.06-.86c-.1-1.27-.27-2.75-.59-4.03-.58-2.31-2.03-4.5-2.92-5.69l-.77-4.23,5.19-7.78.75-1.12-.14-1.34-.51-4.75,1.7-4.6.41-1.09-.29-1.13s-1.31-5.11-1.49-9.07c-.11-2.41,2.38-9.15,4.09-12.95l.33-.73v-.8c0-.23,0-23.51.2-30.6.2-7.37-.78-17.5-.82-17.92l-.06-.58-.23-.54s-.77-3.54-.77-3.54c-1.17-3.6-2.04-6.55-2.73-9.24.29-5.08,1.74-13.94,1.76-14.03l1.63-19.51c.53-4.97,1.09-10.02,1.45-13.18l4.19-.11,2.57-.07.31-.9,2.61.16,2.17.13.31.11,1.03-.04,2.25,20.97.19,1.73,1.12.74c.23.28.8,1.03,1.85,2.71.77,1.23.65,3.49.43,4.75l-2.74,4.92-.56,1.01.11,1.15c.03.35.84,8.54,2.48,15.9,1.23,5.52.93,18.99.72,23.71v.09s0,.09,0,.09v17.36c-.33,1.2-1.16,4.29-1.49,5.62-.2.82-.35,2.17-.05,6.48.1,1.36.21,2.64.28,3.43-.7,2.07-1.7,4.97-2.05,5.79-.72,1.67-1.29,4.73-1.45,5.63l-.12.7.14.7c.05.25,1.27,6.11,2.74,10.31.98,2.79,1.19,7.74,1.2,9.41v1.15s.65.95.65.95c.02.03,2.25,3.27,4.64,6.66.66.93.28,3.76-.49,5.8l-1.83,2.93-.56.9v1.07c0,.56.11,3.46,2.29,5.64,1.64,1.64,4.33,2.1,10.82,3.1,1.89.29,3.84.59,5.79.94,3.67.67,7.31,1.58,10.83,2.47,2.64.66,5.14,1.29,7.37,1.74.93.19,2.1.28,3.58.28,7.14,0,20.1-2.17,20.65-2.26l3.56-.6-.3-2.2.04-7.94.65-1.36.89-1.88-1.13-1.74-7.02-10.84-.1-.15-.11-.14-6.21-7.81-.47-2.58-.4-2.21-.3-1.67-1.14-.68-.47-11.34,2.27-5.24.69-1.59-.78-1.55-1.93-3.86c.57-1.89,1.51-5.33,2.08-9.18.53-3.58-.62-7.28-1.84-11.19-.99-3.18-2.01-6.46-1.93-9.32.02-.57.09-1.3.23-2.17.26-1.16.54-2.29.82-3.27v-.02s.01-.02.01-.02c.08-.28.16-.55.24-.81.04-.12.07-.24.11-.36l.28-.88.27-.76-.34-.15c.63-2.43,1.36-5.02,2.07-7.53,1.94-6.86,3.14-11.21,3.14-13.83,0-5-2.34-22.99-2.44-23.76v-.02s0-.02,0-.02l-2.68-18.77.8-2.3c.1,0,.21,0,.32,0,3.59,0,9.26-.53,15.85-3.03l1.57-.6.59-1.57c.15-.39,1.44-3.93,1.44-7.12,0-.84-.15-2.42-1.2-7.1,0,0-5.42-30.3-6.17-32.37-.78-2.14-1.54-4.3-2.28-6.42-.31-1.82-.58-3.57-.82-5.21-2.39-16.31-6.39-39.98-6.43-40.22v-.06s-.02-.06-.02-.06c-1.93-9.56-5.65-29.05-5.95-34.39-.25-4.33-.73-13.03-1.06-19,2.1,1.18,3.99,2.48,4.79,3.56,2.9,3.93,8.93,4.76,13.48,4.76.55,0,.99-.01,1.27-.03.57.21,1.65.64,3.62,1.49,1.69.73,3.65,1.11,5.82,1.11,6.29,0,13.58-3.24,16.94-5.41,1.84-1.19,3.88-3.4,6.22-6.73,1.6-2.29,2.76-4.28,2.81-4.36l.68-1.17-.23-1.33ZM409.5,425.53c-3.41,2.21-13.24,6.62-19.26,4.01-6.02-2.61-5.02-1.81-5.02-1.81,0,0-9.03.6-11.84-3.21-2.81-3.81-11.84-7.42-11.84-7.42,0,0,1,18.26,1.4,25.28.4,7.02,6.02,34.92,6.02,34.92,0,0,4.01,23.68,6.42,40.13.27,1.84.57,3.72.89,5.6-2.43-7.02-4.51-13.62-6.16-19.51-2.18-7.75-3.6-14.28-4.36-18.9-.09-.58-.18-1.12-.26-1.64-.09-.51-.14-1-.21-1.45-.12-.9-.24-1.66-.29-2.28-.14-1.24-.21-1.91-.21-1.91.06,2.6.24,5.22.53,7.83.07.65.16,1.3.24,1.95l.13.98c.04.33.1.65.15.97.1.65.2,1.3.3,1.94.11.65.23,1.29.34,1.93.92,5.15,2.15,10.19,3.5,15.06,1.35,4.87,2.84,9.55,4.37,13.97,1.15,3.33,2.33,6.52,3.5,9.52,2.29,11.7,4.78,21.64,4.78,21.64,0,0,3.21,12.24,3.21,14.85s-1.2,5.82-1.2,5.82c-10.03,3.81-17.66,2.61-17.66,2.61l-.4,1.81-1.4,4.01,2.81,19.67s2.41,18.46,2.41,23.28c0,3.49-3.47,13.81-5.46,21.91-.71,1.55-1.3,3.16-1.8,4.76-.33,1.09-.63,2.17-.88,3.26-.25,1.08-.48,2.16-.65,3.22-.73,4.25-.91,8.27-.72,11.68.09,1.71.28,3.26.51,4.63.23,1.36.52,2.53.79,3.48.28.95.54,1.68.73,2.16.2.49.3.74.3.74-.27-1.06-.48-2.13-.66-3.2-.16-1.08-.29-2.16-.38-3.23-.17-2.16-.23-4.3-.18-6.39.08-4.18.51-8.12,1.04-11.51.11-.69.22-1.34.34-1.98.17-.91.34-1.78.51-2.58-.17,1.03-.27,1.96-.29,2.75-.2,7.02,4.62,14.65,3.81,20.07-.8,5.42-2.41,10.03-2.41,10.03l2.61,5.22-2.61,6.02.5,12.23-3.61-2.01-1.51-5.21.2,6.22,6.42,3.81.4,2.21-5.42-2.41,6.62,6.62,6.22,7.83,7.02,10.84-2.01,4.21.8,5.82s-17.86,3.01-22.88,2.01c-5.02-1-11.64-3.01-18.26-4.21-6.62-1.2-13.45-1.81-14.65-3.01-1.2-1.2-1.2-3.01-1.2-3.01l2.01-3.21s2.61-6.22.2-9.63-4.62-6.62-4.62-6.62c0,0,0-6.62-1.4-10.64-1.4-4.01-2.61-9.83-2.61-9.83,0,0,.6-3.41,1.2-4.82.6-1.4,2.41-6.82,2.41-6.82,0,0-.8-7.83-.4-9.43.4-1.61,1.61-6.02,1.61-6.02v-17.86s.8-17.46-.8-24.68c-1.61-7.22-2.41-15.45-2.41-15.45l3.01-5.42s1.2-4.82-.8-8.03c-2.01-3.21-2.61-3.61-2.61-3.61l-2.18-20.16c.67.96,1.33,1.91,1.98,2.83,1.29,1.85,2.52,3.62,3.67,5.27.57.83,1.13,1.63,1.66,2.4,2.23,3.24,4.03,5.95,5.26,7.88.31.48.58.91.82,1.29.23.38.43.7.58.96.16.26.28.46.37.59.08.13.13.2.13.2-.79-1.96-1.73-3.88-2.72-5.76-.2-.39-.39-.78-.6-1.16-1.22-2.24-2.53-4.42-3.86-6.49-1.9-2.96-3.83-5.73-5.67-8.24.24.17.48.34.71.51,1.34.95,2.52,1.78,3.5,2.46.49.34.93.64,1.31.9,1.15.79,1.79,1.21,1.79,1.21,0,0,0,0,0,0h0c-1.99-1.82-4.01-3.59-6.01-5.3-1-.85-2-1.69-2.99-2.5-.09-.07-.18-.15-.27-.22l-.08-.78-6.62-.4-2.41-9.03-3.41,9.83-7.42.2s-2.81,24.88-3.21,30.5c-.4,5.62-.2,5.22-.2,5.22,0,0-1.6,9.75-1.83,15-.18-.74-.36-1.48-.52-2.2-.11-.49-.22-.97-.32-1.45-.09-.48-.19-.96-.28-1.43-.05-.24-.09-.47-.14-.7-.04-.23-.08-.47-.12-.7-.08-.46-.16-.92-.23-1.37-.14-.9-.25-1.78-.37-2.63-.09-.85-.18-1.67-.26-2.46-.28-3.16-.25-5.81-.22-7.66.04-.92.09-1.65.11-2.15.02-.5.03-.76.03-.76-.95,4.04-1.19,8.33-.9,12.36.02.25.03.5.05.75.02.25.05.5.08.74.06.49.12.98.17,1.47.03.24.06.48.1.72.04.24.08.48.12.71.08.47.15.94.24,1.4.37,1.83.79,3.56,1.27,5.14.27.9.54,1.74.82,2.54.28.8.55,1.54.82,2.23,1.03,4.01,3.37,9.36,3.37,9.36,0,0,1,10.23.8,17.46-.2,7.22-.2,30.7-.2,30.7,0,0-4.62,10.23-4.41,14.65.2,4.41,1.61,9.83,1.61,9.83l-2.01,5.42.6,5.62-6.02,9.03,1.2,6.62s2.21,2.61,2.81,5.02c.6,2.41.6,6.02.6,6.02,0,0-20.27,3.81-28.5,4.62-8.23.8-21.87-.8-21.87-.8l-4.01-3.41,2.61-3.81s-1.61-2.61-2.41-5.42c-.8-2.81-.8-4.01-.8-4.01,0,0,1.81-6.62,6.22-11.64,4.41-5.02,12.84-9.03,12.84-9.03,0,0-5.22.8-6.82,1.61-1.61.8-5.62,3.81-5.62,3.81l.2-1c.2-1,6.02-5.82,6.02-5.82v-.53s.03-.03.04-.04c.46-.51.93-1.01,1.35-1.55.21-.26.43-.53.63-.79.2-.27.4-.54.59-.81.2-.27.38-.54.56-.81.18-.27.36-.54.53-.81.34-.55.67-1.08.97-1.61.3-.53.6-1.05.86-1.57.13-.26.26-.51.39-.76.12-.25.24-.5.36-.74.23-.49.45-.96.65-1.41.6-1.35,1.05-2.53,1.38-3.43.11-.3.2-.57.28-.8.08-.24.15-.44.2-.6.1-.33.16-.5.16-.5-1.59,2.43-3.05,4.85-4.4,7.11-1.35,2.26-2.57,4.35-3.67,6.11-.42.68-.83,1.31-1.21,1.88l-2.69,2.69s3.61-10.64,2.61-16.66c-1-6.02-.8-6.42-1-11.84-.2-5.42.6-12.44.6-12.44,0,0,.8-6.46,1.33-12.33.16.81.33,1.6.53,2.38.19.74.37,1.46.59,2.16.11.35.21.7.32,1.04.12.34.23.68.34,1.01.11.33.23.64.35.96.12.32.23.65.35.96.11.31.22.61.33.91.1.3.2.59.3.88.05.14.1.29.14.43.04.14.08.28.12.42.03.11.06.22.09.32.03.13.06.26.08.39.04.28.08.56.12.83.04.27.08.53.11.8.02.13.04.26.06.39.02.13.03.25.04.37.03.25.06.49.08.73.02.22.05.44.07.65h0c.09-.07.23-.39.36-.62.13-.24.25-.48.37-.72.23-.45.46-.89.69-1.32.21-.41.41-.8.61-1.18.05-.09.09-.18.14-.27.03-.06.06-.12.09-.18.06-.12.12-.24.17-.36.45-.94.84-1.75,1.16-2.42.63-1.33.97-2.08.97-2.08-.82,1.18-1.63,2.36-2.41,3.55-.2.3-.39.59-.59.89l-.14.21-.09.12-.16.22c-.1.13-.19.24-.26.33l-.1.12-.05.05h-.01s0,.02,0,.02v-.09c0-.15,0-.3,0-.45,0-.13-.01-.25-.01-.35,0-.05,0-.1,0-.14,0-.02,0-.04,0-.05l-.05-.22c-.06-.31-.12-.61-.21-.91-.08-.3-.16-.59-.24-.88-.09-.29-.17-.57-.25-.86-.17-.56-.34-1.12-.51-1.68-.33-1.1-.63-2.19-.9-3.26s-.51-2.13-.71-3.18c-.7-3.41-1.12-6.63-1.45-9.49-.2-7.22-1.17-24.03-1.17-24.03,0,0,2.01-13.04,2.21-16.25.2-3.21-1-24.48-1-24.48l-6.02,2.01c-2.01-.8-19.87-10.23-19.87-10.23-.4-4.21.8-9.43,3.21-19.87,2.41-10.43,17.87-120.76,17.87-120.76l-4.39,9.65s-3.36-1.01-5.06-1.67c-3.61-1.4-21.07-10.64-21.07-10.64v-2.21l-3.41.6c-4.01-2.21-15.05-16.46-15.05-16.46-.2-4.82,0-10.03,1.2-15.85,1.2-5.82,10.03-44.35,11.84-56.79,1.81-12.44,7.22-40.54,7.22-40.54,0,0,17.06-9.13,26.29-12.54,9.23-3.41,9.83-4.72,9.83-4.72l-.6-4.21s5.38-4.98,10.95-8.54c1.17-.37,2.35-.7,3.52-1.03-.21-1.2-.29-1.98-.29-1.98l-6.02,1.11,4.23-5.12-5.12-.22c4.01-4.46,1.34-8.24,1.34-8.24-2.67.67-4.01-.45-4.01-.45,3.79-4.9,2.01-13.37-.22-13.14-2.23.22-.22,4.46-.22,4.46-7.57-4.9-.89-13.37-.89-13.37-4.08,0-5.87-2-6.63-3.39-3.7.31-8.53-3.24-9.44-8.17-.94-5.07-3.71-11.5-10.18-27.41-4.29-10.56,2.46-13.33,6.4-13.87-1.22-1.47-2.08-2.59-2.08-2.59.23-.16.43-.31.63-.45-13.63-4.03-19.44-9.95-19.44-17.38,0-3.29,8.58-8.61,33.17-11.74.2-5.11.28-12.56-.15-22.19-.05-1.01-.1-2.04-.15-3.09,0-.03,0-.07,0-.1-.12-2.17-.26-4.44-.44-6.81,0-.09-.01-.17-.02-.26-.08-1.12-.17-2.27-.27-3.43-.01-.14-.02-.28-.03-.42-.1-1.14-.2-2.3-.31-3.49-.02-.17-.03-.34-.05-.51-.11-1.18-.23-2.38-.36-3.59-.02-.18-.04-.35-.06-.53-.13-1.24-.27-2.49-.41-3.76-.02-.16-.04-.31-.05-.47-.15-1.31-.31-2.64-.48-4-.01-.1-.03-.2-.04-.3-.18-1.41-.36-2.85-.56-4.31,0,0,0-.01,0-.02-.2-1.45-.4-2.92-.62-4.41-.02-.13-.04-.27-.06-.4-.21-1.43-.43-2.87-.66-4.34-.03-.2-.06-.4-.09-.61-.23-1.43-.46-2.89-.71-4.36-.04-.24-.08-.48-.12-.72-.25-1.47-.5-2.95-.77-4.46-.04-.24-.09-.49-.13-.73-.27-1.52-.55-3.07-.85-4.63-.04-.22-.08-.44-.12-.66-.3-1.61-.62-3.23-.95-4.88-.03-.15-.06-.3-.09-.45-.35-1.73-.7-3.48-1.08-5.25-.13-.62-.2-1.25-.21-1.86,0-.62.04-1.22.16-1.8.23-1.16.71-2.22,1.46-3.06.5-.56,1.11-1.03,1.85-1.37,2.64-1.21,6.24-2.56,10.91-3.85.93-.26,1.91-.51,2.93-.76,2.55-.62,5.38-1.22,8.5-1.77.62-.11,1.26-.22,1.9-.32,2.58-.42,5.36-.8,8.32-1.14,1.48-.17,3.01-.32,4.59-.46,3.16-.28,6.52-.51,10.07-.66,3.56-.16,7.32-.24,11.3-.25h.43c2.73,0,5.35.05,7.88.12.84.03,1.68.05,2.5.09,9.04.36,16.78,1.17,23.35,2.21,5.37.85,9.95,1.86,13.81,2.92,2.14.59,4.06,1.19,5.76,1.78.34.12.67.24,1,.36.65.24,1.26.47,1.84.7,1.06.43,1.96,1.05,2.69,1.81,1.65,1.72,2.46,4.17,2.48,6.79,0,.87-.08,1.76-.25,2.65-.33,1.71-.65,3.39-.95,5.06-.03.16-.06.31-.09.47-.29,1.58-.57,3.14-.84,4.69-.04.23-.08.45-.12.68-.26,1.51-.52,2.99-.76,4.46-.04.24-.08.49-.12.73-.24,1.46-.48,2.9-.7,4.33-.04.23-.07.46-.11.68-.23,1.44-.44,2.86-.65,4.26-.03.19-.05.37-.08.55-.21,1.44-.42,2.87-.62,4.27-.01.1-.03.2-.04.29-.2,1.43-.39,2.85-.58,4.25,0,.05-.01.1-.02.14-.18,1.39-.36,2.75-.52,4.1-.02.15-.04.29-.05.44-.16,1.29-.31,2.56-.46,3.81-.02.18-.04.37-.06.55-.14,1.23-.28,2.43-.4,3.62-.02.19-.04.37-.06.56-.13,1.18-.25,2.35-.36,3.5-.02.17-.03.33-.05.5-.11,1.17-.22,2.32-.33,3.44,0,.11-.02.21-.03.32-.11,1.18-.21,2.33-.3,3.47,0,.01,0,.03,0,.04-.1,1.16-.19,2.29-.27,3.41,0,.03,0,.07,0,.1,0,.02,0,.03,0,.05-.08,1.07-.15,2.12-.22,3.14,0,.11-.01.21-.02.32-.07,1-.13,1.97-.18,2.93-.59,9.8-.69,17.37-.64,22.5,22.29,3.22,29.25,8.16,29.25,11.14,0,7.62-6.12,13.65-20.52,17.69l.04.25c4.01-1.56,6.12,6.09,4.75,13.81-2.97,16.78-6.76,23.02-7.2,28.14-.45,5.12-4.9,9.13-8.47,8.91-3.56-.22-.67,4.68-2.01,12.03,0,0-2.23-1.11-3.56,1.78-1.34,2.9,3.56,6.46,3.56,6.46-5.12.89.22,4.9-5.57,7.8,4.01,2.01.89,6.91.89,6.91-5.12-2.9-7.35.45-7.35.45l2.01,4.9s-4.79-2.76-6.33-1.92c-.11.12-.23.24-.35.36-.12.25-.19.53-.28.8,1.04.15,2.08.3,3.12.45l49.81,26.62c2.61,5.82,2.41,16.45,2.41,16.45l-1.81,3.61,1.4,3.21s.2,2.21,2.41,16.05c2.21,13.85,17.86,48.16,17.86,48.16,0,0,10.43,10.43,10.43,13.04s1.2,8.43,1.2,8.43l1.61,9.23s-4.41,7.63-7.83,9.83Z" fill="#fff"/>
  <path d="M317.43,46.98c17.82,1.89,22.36,3.86,22.36,3.86,0,0-8.92-5.64-32.34-6.23-9.31-.23-20.37.46-33.1,1.88,12.79-.31,29.17-.99,43.07.49Z" fill="#fff"/>
  <path d="M271.98,127.84c.68,12.83.9,23.41.67,28.16,2.18.4,3.81.62,6.03.89.38-9.72.37-18.66-.1-29.06h0c-.61-13.58-1.98-29.66-4.27-53.22,0,0,4.78,24.59,6.38,53.22h0c.53,9.53.71,19.51.24,29.18,0,0,7.69.56,14.68.56,30.33,0,48.54-5.86,48.54-5.86l-.16,9.63s-3.97,2.42-16.18,4.15c-7.17,1.02-17.16,1.8-30.87,1.71-15.4-.1-25.77-1.53-32.51-3.07-8.13-1.86-10.97-3.87-10.97-3.87v-10.36s4.21,1.55,5.65,2.19c.34-7.82.21-16.07-.2-24.23-1.46-28.84-6.52-56.56-7.3-60.33-2.64-.43-6.51-1.81-6.51-1.81l-.86-3.62s1.31.54,5.04,1.38c.13.03.27.06.41.09,4.87,1.08,13.58,2.6,28.26,4.1,15.72,1.6,33.53,1.44,49.59,1.08.67-.02,1.34-.03,2-.05,4.64-.11,9.11-.23,13.33-.33-33.29,3.56-58.96,3.2-76.51,1.37,2.79,17.08,4.67,39.86,5.63,58.09" fill="#fff"/>
</svg>