<?xml version="1.0" encoding="UTF-8"?>
<svg id="Layer_1" xmlns="http://www.w3.org/2000/svg" baseProfile="tiny" version="1.2" viewBox="0 0 315.59 408.41">
  <!-- Generator: Adobe Illustrator 30.2.1, SVG Export Plug-In . SVG Version: 2.1.1 Build 1)  -->
  <path d="M112.02,167.21c-.62-.17-1.24-.27-1.85-.31-1.15-.05-2.27-.19-3.38-.37-1.55-.25-3.06-.61-4.53-1.09,0,.16-.15.35-.48.55-.33.21-.49.39-.48.55-.46,1.47-.64,3.25-.55,5.38.03.73.11,1.52.22,2.33.02.14.03.26.05.4.42,3.4.68,6.38.79,8.92.07,1.67.2,3.16.38,4.5.14,1.03.32,1.98.54,2.81.3,1.17.67,2.14,1.12,2.92.03.05.16.31.36.77.07.14.13.27.2.38,0,0,0,0,0,0,.04.25.19.56.45.94,2.03,1.21,4.49,1.95,7.41,2.05,2.99.11,5.65.58,7.94,1.57,0-.22.27-.43.83-.63.04,1.99.09,3.99.13,6,.69.32,1.5.34,2.44.07.94-.28,1.73-.35,2.36-.21.38.07,2.31.66,5.86,1.59,2.43.65,4.4.89,5.89.74-.04-2.49-.03-5,.01-7.53.06-4.19.24-8.45.52-12.78.03-.47.05-.93.08-1.4.48-7.5.04-15.03-1.31-22.43-.34-1.85-.58-3.6-.77-5.3-.31-2.8-.43-5.42-.33-7.85,0-.28.01-.57.02-.85h0c.01-.49.03-.99.04-1.49.07-3.33.08-6.92.02-10.78-.21,0-.4,0-.59,0-1.07.05-1.6.3-1.6.75.14,0-.25.09-1.1.24-1.09.2-2.96.51-5.64.92-1.15.18-2.25.37-3.31.56-7.85,1.41-13.31,3.13-16.58,5.22-.12.08-.25.16-.37.24-.1.02-.19.05-.29.07-.19.05-.36.06-.52.05-.89,1.04-1.59,2.14-2.12,3.29-.61,1.31-1,2.7-1.17,4.2-.13,1.07-.1,3.75.08,8.08,1.39.35,2.8.69,4.22,1.02,2.31.54,4.66,1.06,7.05,1.55-.29-3.92-.58-7.78-.87-11.59.55-.14,1.25-.15,2.1-.04.85.15,1.65.27,2.39.37.08.1.17.21.25.31.16,6.42.32,12.96.48,19.62-2.1-2.33-4.24-3.75-6.4-4.34ZM118.4,180.63c.08.1.22.44.42,1.03.2.59.35.91.47.95.05,2.17.1,4.35.15,6.54-.57-.21-1.22-.03-1.96.54-.74.57-1.26.77-1.57.64,0-.04-.44.17-1.32.6-.98-2.13-1.48-4.36-1.5-6.69-.06-2.32-.13-4.53-.18-6.64,2.78.96,4.63,1.94,5.5,3.02Z" fill="#fff"/>
  <path d="M179.56,187.85c0,.05-.03.35-.11.89-.11.72-.09,1.79.07,3.17.15,1.41.18,2.42.1,3.09-.2,1.81-.06,3.8.42,5.79.47,1.97.78,3.7.92,5.3,2.4-.16,4.21-.29,5.42-.47,2.19-.32,3.8-.85,4.83-1.62.02-.02.07-.08.14-.2.07-.11.13-.17.18-.17-.19-1.93-.39-3.88-.58-5.83-.08,0-.2.03-.37.11-.17.08-.33.11-.48.1-1.82.42-3.02.6-3.62.55.04.52.1,1.06.17,1.63.1.7.12,1.22.06,1.57.01.35-.06.52-.21.52,0,.06-.24.17-.72.35-.48.18-.77.27-.88.27-.13-1.56-.39-3.23-.8-5.06-.15-.71-.26-1.42-.31-2.12-.09-1.12-.05-2.23.13-3.29,0-.12.03-.27.13-.44.13-.22.2-.37.22-.45.07-.01.27-.03.58-.05.08,0,.16-.02.26-.03.23-.02.45-.03.68-.05.23.05.46.09.7.13.01.2,0,.48-.03.85-.04.37-.05.65-.03.85.49.08,1.17.05,2.05-.09,1.09-.17,1.79-.28,2.09-.3-.14.08-.28.16-.43.24.44.04.64-.2.61-.73-.02-.29,0-.72.06-1.29.05-.55.06-1,.04-1.35-.06-.7-.21-1.17-.45-1.41-.03,0-.07,0-.1-.01-.14-.14-.44-.24-.91-.32-.2-.03-.42-.06-.66-.08-.89-.08-1.47-.16-1.74-.19-2.4-.28-4.63-.76-6.7-1.4,0,.13-.04.16-.15.12-.03.01-.06.02-.08.04,0,.05-.03.13-.11.24-.08.11-.14.16-.17.14,0,.06,0,.11.01.17-.03-.01-.06-.03-.09-.04-.11.37-.17.66-.16.87Z" fill="#fff"/>
  <path d="M133.5,239.44c-2.42,0-4.44-1.64-5.06-3.86-5.96-1.01-8.67-.76-8.67-.76,0,0,.1,1.22,1.02,2.59,1.09,1.62,3.33,3.45,7.95,3.69,2.74.14,5.75.33,10.44-1.55.66-.26,1.35-.57,2.08-.92-1.33-.39-2.57-.73-3.77-1.05-.97,1.13-2.39,1.87-3.99,1.87Z" fill="#fff"/>
  <path d="M177.7,203.06c.13-.62.21-.96.24-1.17-.14-.17-.34-.42-.62-.7-.3-.28-.48-.22-.53.13-.43-.25-.89-.42-1.35-.48-.74-.06-1.12.24-1.22.39,0,.07-.02.15-.02.22-.17.07-.33.17-.48.3,0,.07-.02.14-.02.21-.03-.1-.07-.19-.1-.27.07.89.14,1.9.22,3-.06.44-.12.85-.17,1.2.04-.25.07-.41.09-.45,0,0,.02.04.02.09,0,.16.06.4.2.74.02-.16.43.25,1.4.44.77.13,1.38-.04,1.8-.22.12-.12.24-.25.35-.38.02-.02.02-.03.04-.04,0,0,0,0,0,0,0-.01.03-.05.08-.12.15-.22.27-.46.36-.69-.16.06-.25-.05-.25-.26,0-.22,0-.43-.02-.64-.05,0-.09,0-.14.01-.04-.12-.04-.37.01-.72.02-.18.06-.38.11-.59Z" fill="#fff"/>
  <path d="M178.19,205.96s0,0,0,0c.06-.06.18-.2.32-.44-.06.06-.16.22-.33.45Z" fill="#fff"/>
  <path d="M146.44,206.45c.58,0,1.11.02,1.59.06.95.08,1.65.27,2.1.56,0,.06,0,.12,0,.17,1.48.23,2.83.36,4.03.42,0-.35.04-1.12.11-2.32.07-1.2.11-1.29.11-.26.08.06.25.25.48.57.24.32.4.48.48.48,0,.29.45.91,1.34,1.84.98,1.02,2.74,1.38,5.3,1,2.56-.41,4.48-.69,5.75-.75.07-.13.14-.27.22-.4.07-.08.14-.15.21-.23.23-.01.47-.24.73-.67.26-.44.48-.69.65-.76.02-1.31.49-2.98,1.39-5.01.09-.21.17-.39.25-.59.83-1.91,1.33-3.45,1.46-4.59.32-2.79.63-5.56.95-8.34.55-4.83,1.1-9.67,1.65-14.49.11-.92.28-2.73.51-5.44.04-.51.07-1.01.08-1.49.04-1.83-.16-5.41-.71-6,.01-.55-.94-3.58-.94-3.78-.07-.06-.12-1.32-.19-1.38-4.09-1.38-9.49-.74-10.88-.74-.53,0-1.07.04-1.6.14-.18,0-.42.11-.74.35-.31.23-.54.35-.69.35-.12.24-4.48,2.56-4.48,2.55-.08-2.92-.17-5.53-.26-8.09-.03-.94-.07-1.88-.1-2.82,2.19.07,3.85.1,3.97.07.81-.26,1.9-.22,3.27.1,1.51.33,2.6.44,3.27.35,1.5-.08,2.62-.11,3.37-.08,0-.26,1.11-.97,1.28-1.05.17-.08.31-.12.41-.12,0,.19.11-.03.35-.68.53-2.35.87-4.18,1.02-5.48.27-2.44.53-4.33.76-5.65.57-3.32.81-6.93.73-10.83-.09-3.87-.09-7.71-.01-11.54.03-1.26.01-2.67-.04-4.23-.06-1.49.05-2.86.31-4.12.19-.96.22-2.06.07-3.3-.06-.47-.08-.92-.07-1.37.01-.67.1-1.31.27-1.92.04,0,.09,0,.13,0,.22-.87.34-1.82.36-2.86.02-.93-.04-1.93-.17-3-.33-2.23-.48-4.18-.45-5.85-.81.03-1.77.03-2.89,0-1.14-.03-2.12.08-2.92.32-.13.06-.37.26-.71.59-.34.33-.55.5-.64.5,0,.74.05,1.44.18,2.09.02.2.03.35.03.47,0,.01,0,.03,0,.04-.05,0-.12-.13-.23-.38-.04,0-.09,0-.13,0,0-.16,0-.31,0-.47-.05-.08-.11-.17-.16-.25-.11-.14-.18-.27-.2-.38-1.22-.5-1.83-.86-1.83-1.09-.17,0-.33,0-.5,0-1.18-.45-2.29-.65-3.34-.59-1.07.08-2.24.12-3.5.11-.66.42-1.36.62-2.09.61-1.97.71-3.37,1.04-4.24,1.02-.41.59-.78.99-1.11,1.2,0,.11,0,.23,0,.34-.45,1.8-.64,4.89-.56,9.26.02-.03.04-.04.06-.04.05,0,.07.11.07.33.04,0,.09,0,.13,0,.16.36.24.83.25,1.41,0,.55-.04,1.18-.16,1.89-.23,1.49-.34,2.6-.33,3.34,0,.14.04.34.12.61.08.27.12.48.12.61.37,1.87.51,4.5.42,7.89-.09,3.25.09,5.82.54,7.71.04.16.13.81.25,1.97.1.85.26,1.46.5,1.85.04,0,.08,0,.12,0,.09.23.17.91.25,2.02.07.84.31,1.38.71,1.64,3.41,2.13,6.27,2.79,8.58,2.01.27-.1.72-.43,1.34-1.01.56-.5,1.03-.75,1.4-.75,0-.23.21-.59.63-1.1.2-.24.36-.48.46-.72-.04.25-.05.53-.06.83,0,.25.02.62.06,1.1.04.48.06.84.05,1.09,0,.7-.12,1.2-.35,1.5,0,.32,0,.65,0,.97-.08.02-.12.21-.13.56-.04,0-.08,0-.12,0,0,.09,0,.17,0,.26-.03,0-.06,0-.09,0-.23.55-.35,1.09-.35,1.64-.17,0-.25.13-.25.41-.03,0-.06,0-.09,0-.17.2-.25.48-.25.85-.14,0-.22.08-.22.26-3.68,0-8-1.11-8-1.11,0,0-5.49-1.74-11.32-1.74-.03,1.55-.08,3.69-.07,5.53-.21,2.62-.52,6.78-.57,9.15-.02.82,0,1.43.05,1.68.49,2.27.68,5.38.57,9.32-.1,4.32-.03,7.36.22,9.16.15,1.06.04,2.87-.33,5.41-.62,4.25-.95,8.45-1.01,12.62-.01.81-.03,1.62-.02,2.43.04,3.38.08,6.76.12,10.14.02,1.5.03,3,.05,4.5-.11.02-.16.34-.15.98.06,0,.11.01.17.02,0,.14,0,.29,0,.43.75.1,2.03.16,3.83.14ZM156.23,183.74c.5-3.45.75-6.88.76-10.31.26-.63.39-.85.39-.66.7.01,1.73-.15,3.1-.51,1.37-.36,2.42-.54,3.15-.55,0,.3,0,.61,0,.91.06,0,.12,0,.17,0,0,1.02-.02,2.03-.03,3.05-.62,3.15-1.24,6.29-1.86,9.44-.21,1.07-.38,2.08-.52,3.06-.34,2.26-.52,4.31-.53,6.15-.07.06-.14.12-.21.18-1.31-.06-2.62-.14-3.93-.24,0-.09-.03-.2-.08-.32-.06-.12-.08-.23-.08-.32-.44-1.64-.66-3.44-.66-5.38,0-1.42.11-2.92.34-4.51ZM163.72,109.26c-.49,3.97-.74,7-.74,9.11-.19,0-.54.13-1.05.39-.51.26-.82.46-.92.62-.72,0-1.19-.06-1.43-.16,0-.23,0-.47,0-.7-.36-.42-.51-1.35-.45-2.79.06-1.45.09-2.5.09-3.16,0-1.59-.06-3.36-.17-5.29-.13-1.94-.09-3.71.15-5.29.04-.27.18-.85.42-1.72.2-.71.29-1.3.29-1.77,1.07,0,2.64.48,4.71,1.4-.06,2-.36,5.13-.9,9.36Z" fill="#fff"/>
  <path d="M143.97,228.09s.1-.58.32-1.47c.02-.01.03-.03,0-.04.04-.16.08-.32.13-.5,0,0,0,0,0,0,.04-.16.09-.33.14-.5,0-.03.01-.05.02-.08.1-.37.22-.75.35-1.16,0,0,0-.01,0-.02-.3,0-.6-.01-.91-.02-.71-.01-1.41-.03-2.11-.04-.33,0-.66-.02-1-.02-.75-.02-1.49-.04-2.23-.06-.17,0-.34-.01-.52-.02-.41-.01-.81-.02-1.21-.04-5.99-.18-11.63-.44-16.93-.79-6.8-.44-13.06-1-18.79-1.7,5.5,1.42,11.61,2.57,18.65,3.44,6.39.79,13.55,1.35,21.71,1.66l2.37,1.34Z" fill="#fff"/>
  <path d="M120.89,84.91c.37.04.84.05,1.39.04-.38.11-.79.19-1.25.21.1,1.87.2,3.73.3,5.61.73,13.78,1.47,27.51,2.21,41.16.25-.02.5-.04.74-.06,2.86-.22,5.73-.44,8.6-.66.02,0,.04,0,.06,0-.03-.71,0-1.92.12-3.63.08-1.54.08-2.76,0-3.67-.18-1.72-.44-4.12-.78-7.22-.32-2.62-.43-5.13-.33-7.52.02-.54-.07-1.51-.25-2.91-.09-.52-.14-.98-.15-1.36-.03-.66.03-1.14.16-1.43.04,0,.08,0,.13,0,.07-.22.11-.52.09-.9,0-.19-.04-.48-.08-.85-.05-.38-.08-.66-.08-.86-.02-.42.02-.75.12-.99.05,0,.11,0,.16,0,0-.2-.02-.39-.03-.59.03,0,.06,0,.1,0,0-.13-.01-.25-.02-.38.03,0,.07,0,.1,0,.02,0,.04,0,.06,0,.03-.26.06-.53.09-.79.96-.58,1.44-1,1.43-1.26.35.02.69.04,1.03.06.43,1.23.72,2.4.87,3.51.71,5.37,1.06,10.83,1.06,16.38-.03,5.5.05,10.64.23,15.44,3.17-.27,6.34-.55,9.51-.83-.04-1.71-.15-3.34-.33-4.86-.2-1.56-.23-3.22-.08-4.97.4-4.63.5-9.68.29-15.19-.24-5.7-.83-10.98-1.8-15.83-.58-2.89-.87-4.43-.87-4.57-.06-.06-.11-.12-.17-.18-.05-.07-.09-.15-.14-.22.11,0-.3-.21-1.24-.67-.53-.17-1.24-.28-2.12-.33-.57-.03-1.2-.04-1.88-.03-1.93.05-3.24.07-3.94.06-.7,0-1.04.18-1.03.56-.68-.05-1.14.46-1.37,1.54-.18.88-.37,1.77-.57,2.68-.04,0-.09,0-.13,0,0,.2.02.4.03.6-.1-.35-.24-2.29-.42-5.83-.2-.02-.38-.03-.56-.03-.11,0-.21,0-.32,0-1.18-.01-1.94.18-2.25.61-.78-.07-1.93-.04-3.45.08-.62.05-1.15.08-1.64.09.08-.02.17-.04.25-.07-.13-.01-.74,0-1.83.03Z" fill="#fff"/>
  <path d="M93.72,272.45c0-.07.01-.13.01-.2,0-.84-.07-1.7-.32-2.51-.2-.64-.62-1.22-1.2-1.57-.06-.03-.12-.06-.18-.09.21-.3.35-.65.44-1-4.68-3.72-8.64-9.71-6.98-16.23-.6-1.53-1.21-2.85-1.81-3.82-.38-.61-.76-1.28-1.13-1.99-.46-1.51-.69-3.06-.52-4.69.05-.52.14-1.11.23-1.76-1.87,1.17-3.48,2.58-3.48,2.58-1.97-6.89,2.31-11.91,3.67-13.29-1.12-1.09-2.92-1.87-4.68-2.28-5.89-1.36-6.23,12.79,1.39,25.01,0,.01.01.02.02.04,1.65,3.32,3.7,6.49,4.83,9.84.61,1.82,1.22,4.11,2.32,5.94.73,2.8.95,4.75,1.33,5.98.88,2.85,3.69,4.28,4.95,3.39,2.29-1.63,1.99-2.7,1.11-3.35Z" fill="#fff"/>
  <path d="M185.62,44.59c23.14,2.46,29.05,5.01,29.05,5.01,0,0-11.58-7.33-42-8.09-12.09-.3-26.46.6-43,2.45,16.61-.4,37.89-1.29,55.95.63Z" fill="#fff"/>
  <path d="M120.89,73.34c20.4,1.8,48.91,2.23,85.05-.64,4.14-.33,8.38-.7,12.72-1.12-25.04.52-57.1,1.67-84.33-.82-34.88-3.2-43.79-6.53-43.79-6.53l1.12,4.24s3.57,1.07,10.1,2.42c4.77.98,18.67,2.41,19.12,2.45Z" fill="#fff"/>
  <path d="M214.84,221.58c-9.51,1.17-20.48,1.99-33.05,2.44-.94.03-1.88.07-2.84.1-.26,0-.51.02-.77.02-.99.03-1.99.06-2.99.08-.29,0-.59.01-.89.02-1.03.02-2.06.05-3.11.06-.25,0-.51,0-.76.01-2.65.05-5.37.08-8.15.09h0s5.26,5.68,5.26,5.68c0,0,3.49-1.39,8.1-3.37,16.21-.64,29.21-2.24,39.39-4.71-.07-.15-.13-.29-.2-.44Z" fill="#fff"/>
  <path d="M191.48,147.32c-2.97.03-9.4,1.08-9.44,1.08,0,.11-.05.23-.13.35-.08.12-.12.2-.12.24-.83.18-1.37.78-1.63,1.8-.21.74-.42,1.49-.63,2.23-.49,1.07-.74,2.23-.77,3.49-.01.63.05,1.3.19,1.98.34,2.13.28,3.95-.17,5.47-.45,1.51-.59,3.03-.43,4.54.08,1.05.26,2.09.47,3.13.09.43.17.86.28,1.29.03,1.77.09,3.53.16,5.28.1,1.07.48,1.97,1.14,2.69.66.73,1.59,1.29,2.8,1.67,0,.08.04.18.13.3.09.12.13.21.13.27,2.89,1.14,6.99,2.06,12.27,2.56.56.06,1.28,0,2.16-.16.88-.17,1.55-.25,2-.26.79-.39,2.81-.63,6.05-.8,1.59-.09,2.83-.26,3.76-.5.81-.21,1.38-.47,1.7-.77.31-.05.75-.19,1.31-.4.09-.03.16-.05.24-.08.45-.16.86-.26,1.19-.28.1-.04.2-.09.3-.13,0-.08.02-.17.03-.25.26-.06.52-.12.77-.19,0-.05.01-.09.02-.14.95-.48,1.62-.74,2.01-.76.02-.16.34-.45.95-.84.62-.4.99-.66,1.13-.8.3-.51.45-1.16.44-1.96,0-.8.02-1.47.09-1.98.04-.32.17-.78.37-1.4.07-.47.02-.84-.12-1.1-.04-.07-.08-.14-.13-.2-.1,0-.19,0-.29.01.02-.18.05-.36.07-.54-3.24.26-6.48.49-9.72.67-.24.02-1.03,0-2.37-.06-1.14-.05-1.92-.02-2.32.1,0,.01,0,.02,0,.04,0,.04,0,.07,0,.11-.04.04-.13.06-.28.06-.18,0-.44-.03-.77-.1-.3-.06-.51-.09-.66-.1-.01,0-.04,0-.05,0,0,0,0,0,0,0-.11,1.38.14,3.01.73,4.86.08.31.11.6.09.86-.11,1.28-1.85,1.97-5.23,1.97-.7-.17-1.39-.35-2.09-.53.02-.35-.14-.53-.48-.53.08-1.33-.2-3.26-.86-5.84-.09-.36-.18-.71-.25-1.05-.48-2.1-.7-3.77-.63-4.97-.23,0-.33-.03-.29-.07.04-.04-.04-.06-.23-.07,0-.09,0-.19.02-.28,7.74.45,15.57.67,23.43.66.24-1.86.64-3.89,1.22-6.07.55-2.24.59-4.27.1-6.11-.11-.45-.58-1.28-1.42-2.52-.69-1.05-.99-1.92-.91-2.61-.3-.02-.42-.04-.35-.08.07-.04-.02-.06-.28-.08.01-.09.02-.19.03-.28-.3-.02-.47-.08-.5-.19-.02-.05-.03-.11-.05-.16-.09,0-.17,0-.26-.01-.2-.16-.4-.32-.59-.48-1.63-.1-3.88-.37-6.74-.85-2.3-.38-6.06-.9-8.38-1.15,0,0,0,0,0,0-.5,0-.96.06-1.38.17-.12,0-.27.04-.44.14-.17.1-.32.14-.44.14-.02-.01-.04-.03-.06-.04.08-.08.13-.17.14-.28-1.48-.07-3.48-.1-5.99-.07ZM197.37,153.36c.65.04,1.3.08,1.96.12,0,.05,0,.11-.01.16.65.09,1.3.18,1.95.27-.15,2.11-.3,4.21-.44,6.32-.36-.02-.73-.03-1.09-.05,0-.05,0-.11.01-.16-.43-.15-1.19-.23-2.28-.26-1.05-.03-1.83-.06-2.35-.09,0-.1-.02-.24-.06-.42-.05-.22-.07-.38-.06-.49,0-.13.05-.22.14-.28.08,0,.16,0,.24.01.01-.2.02-.41.03-.61.1,0,.2.01.3.02.63-1.17,1-2.59,1.09-4.26.37.02.56-.08.57-.29Z" fill="#fff"/>
  <path d="M200.65,240.85c-1.19.81-2.52,1.83-3.86,3.07-2.96,2.75-11.69,2.74-18.77,1.75,15.13,9.02,24.45,1.16,22.63-4.82Z" fill="#fff"/>
  <path d="M191.45,238.14c-4.87.37-5.85-2.21-5.85-2.21l-10.07,4.41c25.67,4.78,23.39-7.73,23.39-7.73h-2.92s.32,5.15-4.55,5.52Z" fill="#fff"/>
  <path d="M185.12,191.47s-.1,0-.18,0c-.02,0-.03,0-.05,0-.26.03-.4.06-.42.09.41-.05.63-.08.66-.1Z" fill="#fff"/>
  <path d="M182.5,312.09l.26-7.6-11.62,6.21c4.15,3.21,8.3,2.1,11.36,1.4Z" fill="#fff"/>
  <path d="M213.32,235.54c-.7,1.45-1.3,2.59-1.53,3.14-.87,2.04-4.37,3.2-4.37,3.2l-2.04-2.62-4.22,10.48c-11.88,10.77-27.79-2.04-27.79-2.04l-2.92,1.62.88,14.09-1.75,10.77,3.78-.29s-1.16-4.37.87-4.66,2.33,7.86,2.33,7.86c0,0-5.82,4.66-7.28,5.82-1.46,1.16-5.53,2.33-5.53,2.33,0,0-.58-3.49-2.62-3.49s-3.49,5.82-3.49,5.82l-4.66-6.11-6.4-.58s-1.16-7.28,3.2-9.89l2.62,4.66,12.81-.87s2.91-8.15,2.91-10.48-5.24-28.52-5.24-28.52l-4.95,4.07,2.62-7.28.1-5.52h0l.04-2v-.63c-.56,0-1.13,0-1.71,0-.4,0-2.1,0-2.55,0-2.43,0-4.82-.02-7.16-.05h0s0,.04.01.06c.14.83.32,1.66.53,2.47,0,.02,0,.04.01.05h0c1.09,4.18,2.87,7.82,2.87,7.82l-4.37.58,2.62,9.89s-8.73,8.73-20.66,8.73c-2.33,0-4.4-.5-6.21-1.31-.42-.19-.31-.81.14-.85,4.13-.42,15.4-2.09,21.27-8.06l-3.79-1s-13.97,10.12-22.99.22l-3.45,1.48s-.02-.02-.02-.04l-.5.26-2.31.99c-.68-.88-4.13-5.35-5.7-7.7-.05-.07-.07-.14-.11-.21-2.78,4.28-5.59,9.55-6.84,14.83,2.27,6.96,6.65,13.15,10.74,16.23l-2.04,4.66,6.69-2.91-1.46,9.02,4.37-2.33-.87,5.53,7.86-1.75-4.07,8.44s9.02-4.95,12.81-9.02c3.78-4.07,3.78-6.69,5.82-6.11s-2.06,7.88-7.86,13.68c-3.62,3.62-6.99,6.96-8.81,10.47l1.67,9.28,5.61-11.58s9.1.85,12.88.27,9.6-2.91,9.6-2.91l5.09,2.87s4.8-2.87,6.26-2.87,6.69,4.07,13.68,3.2c6.98-.87,8.73-1.46,8.73-1.46l5.24,3.78-3.96,12.12c3.05.57,5.3-.28,6.96-1.69,1.16-3.99,1.66-8.5,1.86-12.03-4.94-8.11-15.35-25.61-10.39-21.1,2.74,2.49,12.22,11.06,12.22,11.06,2.39-6.49,1.22-10.92,1.22-10.92l3.39.45-.23-5.2h4.3c.12-.13.25-.26.37-.38l-.83-4.37,6.61.62h0s-2.04-3.49-2.04-3.49c4.39-7.46,7.75-13.74,9.11-19.7-1.37-4.98-4.58-7.61-7-8.93Z" fill="#fff"/>
  <polygon points="165.8 312.48 163.47 317.14 158.23 312.48 155.61 316.85 152.99 313.07 150.08 315.98 146.13 313.81 141.06 323.25 147.46 320.34 146.3 330.82 152.41 322.09 155.61 331.4 159.69 321.8 164.64 331.98 165.51 320.63 174.82 325.58 170.7 315.9 165.8 312.48" fill="#fff"/>
  <path d="M220.23,183.89c-.07.03-.1-.05-.09-.25-.05.02-.06.02-.06,0,0-.03,0-.03-.04-.01.01-.2-.09-.25-.31-.14,0-.04-.09-.08-.25-.12-.39-.08-.79-.01-1.18.18-.26.13-.53.31-.79.53-.68.61-1.27,1.21-1.78,1.81-.36.42-.54.68-.55.79-.02.03-.04.05-.07.08-.04.02-.08.03-.11.05-.24-.67-.62-.96-1.16-.88-.55.09-1.2.41-1.95.92-1.27.86-1.93,1.4-1.94,1.68-.06.02-.08.03-.07.05,0,.01-.01.03-.06.04-.02.04-.05.09-.07.13.02-.57.03-1.15.05-1.72-1.14.39-2.28.73-3.41,1.04,0,.04-.11.09-.34.14-.01.04-.13.08-.35.13,0,.02,0,.04,0,.06-.05.01-.09.02-.14.03,0,.11-.03.17-.08.18,0,.16,0,.32,0,.48-.01.22-.03.36-.06.41.03-.06.06-.12.08-.18.08-.14.12-.19.12-.14-.02,1.71-.11,3.45-.29,5.19-.17,1.69-.06,3.28.33,4.78.09.37.11.84.05,1.42-.05.54-.08,1.01-.09,1.42.41-.41.94-.68,1.58-.82.29-.07.73-.15,1.32-.24.58-.1,1.01-.18,1.3-.25,0-.07-.01-.13-.05-.18-.03-.05-.05-.1-.06-.13-.12-.39-.18-1.14-.17-2.28,0-1.1.05-1.92.12-2.45.05-.77.1-1.54.15-2.32.08-.95.28-1.76.62-2.43.08-.03.2-.1.36-.21.16-.12.27-.19.34-.22.41-.19.61-.15.62.13,0,.32,0,.58-.04.77-.33,1.68-.42,3.23-.28,4.7.13,1.48.17,2.94.11,4.37.02.01.03.02.05.03,0-.17.96-.58,2.82-1.31.05-.01.12-.05.22-.12.1-.06.18-.1.23-.12.16-3.28.32-6.59.49-9.93.02-.04.04-.09.06-.14.11-.06.31-.18.6-.38.24-.16.44-.27.61-.34.01.03.03.06.04.1.03-.01.08-.02.14-.02.06,0,.11-.01.15-.03.02.01.03.02.05.03,0,.11.02.22.07.33.07.14.11.23.12.27.04.19.05.53,0,1.01-.03.37-.07.72-.11,1.05-.07.58-.13,1.15-.2,1.73-.06.48-.08.96-.08,1.43,0,.47-.02.94-.07,1.42-.08.78-.15,1.56-.23,2.33-.03.2-.05.37-.07.52-.04.26-.03.42.02.48.02,0,.04-.01.06-.02,0,.07,0,.13-.01.2.07-.02.56-.26,1.46-.74.12-.06.35-.15.7-.27.35-.12.56-.21.65-.29,0-.02,0-.04,0-.06.03-.01.07-.02.1-.04,0-.02.03-.15.08-.4.14-1.16.22-2.04.25-2.62.19-1.58.42-3.29.69-5.16.08-.55.13-1.08.15-1.6.07-1.28-.02-2.39-.28-3.31-.06-.2-.08-.38-.07-.56Z" fill="#fff"/>
  <path d="M156.87,306.27c12.53-.48,21.54-5.18,21.54-5.18-17.54-3.36-21.71.72-21.71.72-4.73-4.55-20.43-1.87-20.43-1.87-.32.23-2.04,2.5-2.28,2.85,4.03,1.31,14.43,3.81,22.88,3.49Z" fill="#fff"/>
  <path d="M234.04,174.28c.03-5.91.23-13.96.81-23.83.04-.66.08-1.34.12-2.01v-.09c.05-.67.09-1.34.14-2.01v-.13c.05-.68.1-1.36.15-2.06v-.11c.06-.7.11-1.41.16-2.11v-.05s-.01-.03-.01-.03h.02c.17-2.23.35-4.53.55-6.82v-.13c.08-.74.14-1.49.21-2.25l.02-.2c.07-.74.14-1.5.21-2.25l.02-.24c.07-.76.15-1.53.22-2.3l.02-.21c.08-.79.16-1.59.24-2.4v-.11c.19-1.69.37-3.41.56-5.1v-.13c.11-.83.2-1.66.3-2.5l.03-.27c.09-.82.19-1.64.29-2.47l.04-.32c.1-.82.2-1.66.3-2.49l.04-.34c.1-.84.21-1.69.32-2.55l.04-.29c.11-.88.23-1.77.35-2.67l.02-.13c.12-.93.25-1.86.38-2.8v-.05c.13-.92.26-1.86.39-2.79l.04-.26c.13-.9.26-1.81.39-2.71l.05-.38c.13-.9.26-1.8.4-2.7l.06-.42c.14-.91.27-1.82.41-2.74l.06-.41c.14-.94.29-1.88.44-2.83l.05-.3c.16-.99.31-1.98.48-2.97l.02-.1c.16-1.01.33-2.03.5-3.07l.03-.17c.17-1,.34-2,.51-3.02l.06-.36c.17-.98.34-1.97.51-2.96l.08-.45c.17-.98.35-1.97.53-2.96l.08-.47c.18-1,.36-2,.55-3.02l.08-.41c.19-1.04.39-2.09.58-3.13l.05-.26c.21-1.1.42-2.21.64-3.33.84-4.37.43-8.81-1.18-12.51-.09-.22-.19-.43-.3-.65-.11-.23-.23-.46-.35-.68-.14-.27-.29-.53-.45-.78-.1-.17-.21-.33-.31-.5-.21-.32-.43-.63-.65-.92-.38-.5-.78-.97-1.19-1.39-.19-.2-.39-.39-.58-.58-.2-.19-.41-.37-.62-.55-1.29-1.09-2.75-1.97-4.35-2.61-3.97-1.59-8.5-3.05-13.46-4.35l-.38-.1c-1.81-.47-3.69-.92-5.6-1.34-.34-.07-.68-.15-1.03-.22-1.05-.22-2.12-.44-3.19-.65-.73-.14-1.47-.28-2.22-.42-7.45-1.36-15.58-2.39-24.18-3.06-.66-.05-1.32-.1-1.98-.15-3.7-.26-7.54-.47-11.42-.6-1.6-.06-3.25-.1-4.89-.14-.62-.01-1.23-.02-1.86-.03-1.74-.03-3.52-.04-5.29-.04h-.57c-4.49,0-8.94.09-13.22.26-10.11.39-19.69,1.23-28.48,2.49-.9.13-1.8.26-2.7.4-.87.14-1.75.28-2.6.42-1.26.21-2.52.44-3.74.67-.81.15-1.6.31-2.38.47-.78.16-1.54.32-2.29.48-.75.16-1.49.33-2.21.49-.72.17-1.43.33-2.12.5-1.03.25-2.04.51-3.02.77-.65.17-1.29.35-1.91.53-.62.18-1.23.35-1.83.53-.6.18-1.18.36-1.75.54-1.11.35-2.2.71-3.25,1.08-.76.26-1.51.54-2.24.81-.48.18-.94.36-1.39.54-1.31.52-2.56,1.05-3.73,1.59-1.05.48-2.02,1.09-2.9,1.82-.17.14-.34.29-.51.44-1.05.97-1.94,2.11-2.65,3.4-.07.13-.14.26-.2.39-.31.61-.58,1.25-.8,1.9-.04.11-.08.22-.11.34-.85,2.71-.96,5.73-.33,8.73.24,1.15.48,2.29.71,3.42l.06.29c.22,1.08.44,2.16.65,3.22l.09.43c.21,1.04.41,2.07.61,3.1l.1.5c.2,1.02.39,2.03.58,3.03l.09.49c.19,1.01.38,2.01.56,3.01l.08.43c.19,1.02.37,2.03.55,3.04l.05.28c.19,1.05.37,2.1.55,3.12v.05c.19,1.04.36,2.08.54,3.11l.04.22c.17.99.33,1.97.48,2.95l.06.37c.15.95.3,1.89.45,2.83l.07.42c.14.93.29,1.85.43,2.76l.06.42c.14.92.27,1.83.41,2.74l.05.35c.14.93.27,1.85.4,2.76l.03.24c.13.95.27,1.9.39,2.84v.07c.14.94.26,1.88.38,2.8l.02.12c.12.91.23,1.82.35,2.72l.03.25c.11.87.22,1.74.32,2.59l.04.31c.1.85.2,1.69.3,2.53l.03.3c.1.84.19,1.68.28,2.51l.03.24c.09.85.18,1.69.27,2.54v.11c.28,2.58.53,5.17.76,7.72v.06c.08.81.15,1.61.21,2.41v.13c.08.78.14,1.56.2,2.33v.14c.07.78.13,1.54.19,2.32v.07c.34,4.5.61,8.97.8,13.29.44,9.71.45,17.63.33,23.44-12.77,1.86-22.93,4.31-30.26,7.31-8.77,3.58-13.22,7.99-13.22,13.1,0,6.63,2.65,12.44,7.89,17.27,3.5,3.23,8.1,5.98,13.95,8.33-.99.93-1.9,2.03-2.66,3.35-2.78,4.8-2.71,10.87.2,18.03.98,2.41,1.89,4.65,2.75,6.74,6.35,15.57,9.24,22.67,10.22,27.94,1.42,7.62,7.97,13.99,14.99,15.22.95,1.01,2.06,1.87,3.3,2.57-.78,2.42-1.24,5.25-.75,8.19.49,2.94,2.12,7.13,7.16,10.39l.41.27c-.26.98-.67,1.92-1.26,2.68l-3.41,4.42,4.29,3.57c.9.75,2.19,1.44,3.79,1.84-.21.36-.5.76-.89,1.19l-3.87,7.25,3,2.2-3,7.94,12.52-1.22c1.41,5.81,4.53,14.02,11.26,17.73l2.09,1.17,3.75,5.44,1.51-1.64c.35.64.75,1.28,1.21,1.9l5.29,7.01,3.02-3.18,2.38,5.35,3.23-4.24c1.98.65,4.79.99,7.84.17l7.41,8.42,2.82-6.35c1.09.7,2.32,1.3,3.69,1.74l7.24.99.58-5.69.72-.36c.56-.28,1.71-.91,2.94-1.89,2.01.56,4.57.92,7.6.64l7.69-.66-.77-6.17.88-.75,1.61.34.06-1.77,1.67-1.43,1.98.34-.1-1.96.68-.58c1.53-1.31,3.55-3.99,4.33-7.63,1.2-.32,2.52-.79,3.98-1.45l4.96-2.23,5.32.13-3.23-9.95,3.06,1.73,2.95-4.64c.58-.92,3.43-5.76,2.03-10.83-.05-.2-.11-.39-.18-.58,1.31-1.97,1.68-3.95,1.8-5.45l6.59-3.57-4.39-5.7,1.08-5.92c.84-4.62.6-8.48.41-11.34,6.74-1.7,12.66-8.66,13.34-16.55.18-2.09,1.07-4.81,2.3-8.57,1.98-6.07,4.69-14.39,7.05-27.69.98-5.55.89-12.01-.9-17,5.48-2.23,9.86-4.83,13.24-7.84,5.5-4.9,8.28-10.83,8.28-17.63,0-8.77-12.85-15.33-38.22-19.52ZM239.67,216.9l.05.32c5.24-2.04,7.99,7.96,6.21,18.04-3.88,21.92-8.83,30.07-9.41,36.77-.58,6.69-6.4,11.93-11.06,11.64-4.66-.29-.87,6.11-2.62,15.72,0,0-2.91-1.46-4.66,2.33s4.66,8.44,4.66,8.44c-6.69,1.16.29,6.4-7.28,10.19,5.24,2.62,1.16,9.02,1.16,9.02-6.69-3.78-9.6.58-9.6.58l2.62,6.4s-6.26-3.61-8.27-2.51c-.15.16-.3.32-.46.47-.25.51-.44,1.07-.57,1.64.39,2.72,5.73,6.2,5.73,6.2-5.24,2.36-7.34,1.31-7.34,1.31,1.31,5.51-2.36,8.65-2.36,8.65.24-2.91-2.62-4.38-3.18-4.57l.23,4.57-3-.52-.12,3.24s-5.99-1.14-6.51,2.53,2.1,6.03,2.1,6.03c-5.51.52-8.65-1.84-8.65-1.84-.79,2.1-3.93,3.67-3.93,3.67,0-3.67-3.41-3.67-3.41-3.67-1.84,2.88-.79,8.39-.79,8.39-5.77-1.84-7.87-8.65-7.87-8.65l-2.36,8.13-3.41-5.24c-4.46,3.67-8.65,1.57-8.65,1.57,3.93-2.88,1.05-6.82,1.05-6.82l-4.19,5.51-3.15-7.08c-2.62,1.31-4.19,5.77-4.19,5.77-2.88-3.93-2.46-8.76-2.46-8.76,0,0-1.62-.23-4.28,2.66,0,0-1.63-2.36-2.08-7.4-1.9.92-1.62,4.97-1.62,4.97-7.98-4.39-9.37-19.42-9.37-19.42l-7.86,1.46,5.53-6.69-6.69-.29c5.24-5.82,1.75-10.77,1.75-10.77-3.49.87-5.24-.58-5.24-.58,4.95-6.4,2.62-17.46-.29-17.17-2.91.29-.29,5.82-.29,5.82-9.89-6.4-1.16-17.46-1.16-17.46-5.33,0-7.67-2.62-8.65-4.43-4.83.41-11.14-4.23-12.34-10.67-1.23-6.62-4.85-15.02-13.3-35.81-5.61-13.79,3.21-17.42,8.36-18.12-1.59-1.92-2.72-3.38-2.72-3.38.3-.21.57-.4.82-.59-17.81-5.27-25.4-13-25.4-22.7,0-4.29,11.2-11.24,43.33-15.34.26-6.67.37-16.41-.2-28.99-.06-1.32-.13-2.66-.2-4.04,0-.04,0-.09,0-.13-.16-2.83-.35-5.8-.57-8.9,0-.11-.02-.22-.02-.33-.11-1.46-.23-2.96-.36-4.48-.02-.18-.03-.36-.05-.54-.13-1.49-.26-3.01-.41-4.55-.02-.22-.04-.45-.06-.67-.15-1.54-.3-3.1-.47-4.7-.02-.23-.05-.46-.07-.69-.17-1.61-.35-3.25-.54-4.92-.02-.2-.05-.41-.07-.61-.2-1.72-.41-3.45-.63-5.23-.02-.13-.03-.27-.05-.4-.23-1.85-.48-3.72-.73-5.63,0,0,0-.02,0-.02-.26-1.89-.53-3.81-.81-5.76-.03-.18-.05-.35-.08-.52-.27-1.86-.56-3.75-.86-5.67-.04-.27-.08-.53-.12-.79-.29-1.87-.6-3.77-.92-5.7-.05-.31-.1-.63-.16-.94-.32-1.92-.66-3.86-1-5.82-.06-.32-.11-.64-.17-.96-.36-1.99-.72-4.01-1.11-6.05-.05-.28-.11-.57-.16-.86-.4-2.1-.81-4.22-1.24-6.37-.04-.2-.08-.39-.12-.59-.45-2.26-.92-4.54-1.41-6.86-.17-.81-.26-1.63-.28-2.44-.01-.8.06-1.59.21-2.35.3-1.51.93-2.9,1.91-4,.65-.73,1.45-1.35,2.42-1.79,3.45-1.58,8.15-3.35,14.26-5.02,1.22-.34,2.5-.67,3.83-.99,3.34-.82,7.03-1.6,11.1-2.31.81-.14,1.64-.28,2.49-.42,3.38-.55,7-1.05,10.87-1.49,1.94-.22,3.94-.42,6-.6,4.13-.37,8.51-.66,13.16-.87,4.65-.2,9.57-.32,14.76-.33h.56c3.56,0,6.99.06,10.29.16,1.1.03,2.19.07,3.26.12,11.81.47,21.92,1.53,30.5,2.89,7.02,1.11,13,2.43,18.04,3.81,2.8.77,5.3,1.55,7.53,2.33.45.16.88.31,1.3.47.85.31,1.65.62,2.41.92,1.39.56,2.56,1.37,3.52,2.37,2.15,2.25,3.22,5.45,3.24,8.87,0,1.14-.1,2.3-.33,3.46-.43,2.23-.84,4.43-1.25,6.61-.04.2-.08.41-.11.61-.38,2.07-.75,4.11-1.1,6.13-.05.29-.1.59-.16.88-.34,1.97-.68,3.91-1,5.83-.05.32-.11.64-.16.96-.32,1.91-.62,3.79-.92,5.65-.05.3-.09.6-.14.89-.29,1.88-.58,3.73-.85,5.57-.04.24-.07.48-.11.72-.28,1.88-.55,3.74-.81,5.58-.02.13-.04.26-.05.38-.26,1.87-.52,3.72-.76,5.55,0,.06-.02.13-.03.19-.24,1.81-.47,3.59-.68,5.35-.02.19-.05.38-.07.57-.21,1.68-.41,3.34-.59,4.98-.03.24-.06.48-.08.72-.18,1.6-.36,3.18-.53,4.74-.03.25-.05.49-.08.73-.16,1.55-.32,3.07-.47,4.57-.02.22-.04.43-.06.65-.15,1.52-.29,3.03-.43,4.5-.01.14-.02.28-.04.42-.14,1.54-.27,3.05-.39,4.53,0,.02,0,.03,0,.05-.13,1.51-.24,3-.35,4.45,0,.04,0,.09,0,.13,0,.02,0,.04,0,.06-.1,1.4-.2,2.77-.29,4.11,0,.14-.02.28-.03.42-.09,1.3-.17,2.57-.24,3.82-.76,12.8-.9,22.69-.83,29.39,29.12,4.21,38.21,10.66,38.21,14.55,0,9.95-7.99,17.83-26.8,23.11Z" fill="#fff"/>
  <path d="M224.52,81.45c-1.49.5-2.25.83-2.26,1.02-.21.03-.42.06-.64.09,0,.08-.01.15-.02.23-.71.37-2.44.76-5.19,1.12-.01.15-.17.25-.49.29-.34,4.42-.69,8.83-1.03,13.23-.17,2.17-.34,4.34-.51,6.51-.19,2.15-.5,4.29-.92,6.42-.18.92-.32,1.44-.41,1.56-.06.77-.22,1.89-.49,3.35-.26,1.45-.42,2.54-.48,3.27-.5.03-.99.05-1.49.08,0-.05-.01-.14-.04-.26-.04-.12-.05-.21-.04-.26-.45.02-.73-.27-.84-.88-.22-1.31-.23-2.87,0-4.71.19-1.76.44-3.42.72-4.99.69-3.77.93-7.68.7-11.69-.3-4.65-.07-8.63.68-11.95.02-.21.08-.52.18-.93.11-.41.17-.72.18-.93-.16.08-.32.16-.48.24,0,.07,0,.15-.02.22-.1.01-.2.03-.3.04,0,.07-.01.15-.02.22-.21.2-1.1.43-2.65.68-1.35.22-2.04.52-2.07.9-1.14.07-2.28.14-3.42.2-.96.07-.85,5.01-.85,5.01-.01,1.11-.03,2.22-.04,3.33-.36,2.94-.72,5.88-1.08,8.82-.3,3.65-.6,7.3-.91,10.95-.4,3.37-.8,6.74-1.2,10.1,0,1.6,0,3.2,0,4.8.09.13.17.25.26.38-.01.18-.02.36-.03.54,3.44.91,6.88,1.83,10.31,2.76,1.2-1.25,1.93-2.24,2.2-2.98-.08.52-.17,1.44-.29,2.78-.18,2.31-.36,4.61-.54,6.92-.05.06-.09.13-.14.19-.56,0-1.33-.13-2.31-.42-.98-.28-1.73-.42-2.25-.41-.02-.05-.19-.29-.51-.72.03-.38-.03-.85-.18-1.42-.15-.57-.21-1.03-.18-1.39-.19,0-.26-.29-.22-.88-2.71.16-5.42.32-8.13.48-.31,5.19.47,8.94,2.32,11.32,2.68.01,5.46.31,8.34.89.95.2,1.92.31,2.88.32,1.9.01,3.78-.36,5.64-1.14.24-.1.68-.42,1.34-.97.66-.55,1.03-.94,1.11-1.17.59-1.23,1.19-2.48,1.8-3.76.7-1.57,1.01-2.9.92-3.97-.44-4.81-.43-9.78.02-14.96.31-3.51.81-7.11,1.52-10.82,1.83-9.56,3.16-19.08,3.97-28.43-.29.04-1.1.3-2.44.74Z" fill="#fff"/>
  <path d="M235.65,223.14c-3.62,1.23-7.28,4.37-3.49,7.86,0,0,1.46-4.07,3.2-3.78s-.49,11.64-3.4,17.75c-2.91,6.11-5.04,25.03-5.04,25.03,0,0-5.53,1.46-.87,4.37,1.26.79,3.78-.87,4.37-3.78.58-2.91,0-9.6,6.11-22.41,6.11-12.81,4.56-26.87-.87-25.03Z" fill="#fff"/>
  <path d="M198.25,103.34c.32-3.01.37-6.04.15-9.09-.19-2.52-.19-5.69,0-9.53-.09-.16-.19-.31-.28-.47-.81.11-1.27.1-1.37-.04-.79.11-1.73.06-2.84-.14-1.11-.2-2.06,0-2.85.62-1.02.78-1.59,1.18-1.73,1.19-.01.33-.18.52-.49.55-.66,1.51-1.17,2.72-1.54,3.63.34-.84.56-1.34.66-1.49,0,.02,0,.04,0,.06-.03.08-.05.15-.08.23-.22.65-.42,1.22-.6,1.71-.05.08-.1.16-.14.23.12-2.17.25-4.33.37-6.5-.07.04-.87.28-2.41.68-1.2.33-1.9.67-2.12,1.02-.54.04-1.47.32-2.78.82-1.4.5-2.3.92-2.68,1.28,0,.07,0,.15,0,.22.06-.08.12-.15.17-.23.2,3.44.36,7.3.47,11.55.08,4.29-.13,8.13-.63,11.54-.24,1.61-.38,3.29-.42,5.04-.19,7.59-.39,15.18-.58,22.77-.02.69,0,1.74.08,3.17.03.49.04.91.03,1.26-.02.74-.11,1.29-.26,1.65-.04,0-.08,0-.13,0,0,.35-.02.71-.03,1.06.81-.01,3.17-.61,7.09-1.86.13,0,.39.02.78.08.38.02.65-.02.82-.12,0-.05,0-.1,0-.15.09,0,.19,0,.28,0,.05-.08.09-.17.13-.25.07-1.96.11-4.16.12-6.6-.02-2.42.16-4.61.53-6.56.56-2.95.83-6.22.81-9.81-.03-3.3.25-6.63.83-9.99.03-.25.12-2.26.26-6.06.1-2.72.51-4.51,1.23-5.36,0-.07,0-.14,0-.22.2-.02.5-.09.92-.22.41-.13.72-.2.92-.22-.06,1.49-.28,3.69-.65,6.59-.37,2.89-.58,5.05-.64,6.49,2.62.12,5.24.22,7.86.3.14-2.89.38-5.83.73-8.82Z" fill="#fff"/>
  <path d="M101.82,141.51c.06.1.13.17.19.23,0,0,0,0,0,0,.05.23.19.42.42.59,1.6-.53,3.35-1.76,5.23-3.6.04-.04.08-.07.12-.11,1.81-1.8,3.31-2.83,4.55-3.17,0-.17.12-.47.4-.88.09,1.53.18,3.04.27,4.54.35-.12.73-.52,1.16-1.18.42-.65.77-1.05,1.05-1.23.17-.11,1-.54,2.44-1.27.92-.45,1.63-.95,2.14-1.5-.16-4.31-.22-8.91-.16-13.79.04-5-.26-10.05-.91-15.33-.45-3.65-.69-7-.71-9.97-.04-3.06-.13-6.51-.27-10.4-.62-.55-.93-.61-.92-.16.14.12-.87-.38-3.16-1.58-5.26-2.77-9.63-3.85-12.55-2.83-.27.1-.55.18-.8.32-.08-.01-.17-.03-.25-.04-.17-.03-.32-.09-.46-.19-1.58,2.24-2.42,5.42-2.48,9.43-.03,1.51.24,5.39.8,11.42,2.27.74,4.4,1.44,6.4,2.09.96.31,1.91.62,2.81.92-.41-4.18-.83-8.47-1.26-12.85.38-.01.87.16,1.45.51.57.38,1.1.71,1.57.98.06.13.12.25.17.38.41,6.62.81,13.04,1.2,19.28-1.36-1.97-2.8-3.2-4.29-3.59-.34-.09-.67-.12-1-.13-.12,0-.23-.01-.35,0-2.14.18-4.39,0-6.77-.57.02.22-.12.5-.42.85-.3.35-.44.64-.42.86-.33,2.13-.34,4.63-.06,7.44.11,1.12.29,2.28.51,3.46.7,4.12,1.19,7.64,1.49,10.63.55,5.48,1.41,8.76,2.55,9.95.03.02.15.19.35.49ZM110.6,120.37c.05.07.14.33.28.8.13.46.23.69.3.69.11,1.85.23,3.69.34,5.51-.31.03-.66.44-1.05,1.22-.39.8-.68,1.21-.87,1.24,0-.03-.25.35-.75,1.16-.7-1.46-1.13-3.3-1.27-5.51-.16-2.2-.32-4.34-.47-6.4,1.81.12,2.95.56,3.49,1.29Z" fill="#fff"/>
  <path d="M203.37,190.36c-.12-.21-.38-.58-.77-1.11,0-.04,0-.07,0-.11-.42-.08-.83-.17-1.25-.27,0-.02,0-.03,0-.05-.15-.03-.58-.06-1.29-.11-.45-.03-.81-.04-1.06-.02-.17.01-.3.04-.38.08v.06c-.13.01-.26.02-.39.03-.47.03-1.2.02-2.19-.08-.99-.1-1.69,0-2.09.32-.15.12-.27.32-.37.6-.27.57-.49.99-.65,1.26-.31,1.68-.39,3.46-.26,5.29.13,1.82.4,3.47.81,4.96.13.48.37.93.71,1.33.34.4.69.78,1.03,1.15.12-.02.27.03.44.14,1.01-.17,2.05-.33,3.1-.48,1.04-.16,2.03-.4,2.98-.73.68-.24,1.15-.69,1.4-1.36.14-.57.28-1.15.43-1.74.15-.59.23-1.23.23-1.91,0-.49.02-1.15.09-1.97.08-1.06.13-1.75.15-2.03.03-.81-.02-1.51-.15-2.07-.09-.38-.26-.78-.52-1.2ZM198.83,200.69c-.1.02-.24.06-.42.12-.18.06-.31.1-.41.11-.16.02-.32,0-.48-.08,0-.02,0-.04,0-.06-.14.02-.21-.02-.21-.13-.17-.41-.26-.84-.28-1.29-.02-.47.04-.97.18-1.49.27-1.03.3-2.01.08-2.92-.09-.37-.14-.85-.16-1.44-.01-.61.21-1.04.67-1.31.03.05.06.1.09.15.04-.08.04-.11,0-.11.05,0,.1,0,.15-.01.03-.02.05-.04.08-.06,0-.02,0-.04,0-.06.02-.02.04-.05.06-.07.15-.01.31-.03.46-.05,0,.02,0,.04,0,.06.08,0,.15-.02.23-.02,0-.02.13.02.38.13,0,.02,0,.03,0,.05.14-.02.21.03.22.15.03,0,.07,0,.11.02.04.01.08.02.11.02.03.02.05.03.08.05.08,3.65-.24,6.38-.96,8.24Z" fill="#fff"/>
  <path d="M131.65,305.38c-.28,1.8-.44,5.02-.39,6.89,4.96,2.39,9.64.47,11.28-1.13l-10.89-5.75Z" fill="#fff"/>
</svg>